<svg width="38" height="56" viewBox="0 0 38 56" fill="none" xmlns="http://www.w3.org/2000/svg">
<rect width="5.97333" height="8.21333" rx="2.98667" transform="matrix(-1 0 0 1 16.72 1.79999)" stroke="#006AFE" stroke-width="2.5"/>
<path d="M5.33333 31.6667C5.33333 31.6667 5.94 21.7077 6.08 19.6872C6.22 17.6667 7.52378 15.2867 8.93497 14.26C10.141 13.3826 11.8514 12.8134 13.733 12.8134C15.6146 12.8134 17.261 13.42 18.5311 14.26C19.9975 15.2299 21.2467 17.7134 21.3867 19.6872C21.5267 21.661 22.1333 31.6667 22.1333 31.6667" stroke="#006AFE" stroke-width="2.5" stroke-linecap="round" stroke-linejoin="round"/>
<path d="M9.44 32.3867L11.526 53.9467H15.9406L18.0267 32.3867" stroke="#006AFE" stroke-width="2.5" stroke-linecap="round" stroke-linejoin="round"/>
<rect width="5.6" height="7.65333" rx="2.8" transform="matrix(-1 0 0 1 27.64 5.3067)" stroke="#006AFE" stroke-width="2.5"/>
<path d="M32.68 33.4934C32.68 33.4934 32.1147 24.1812 31.9843 22.3442C31.8538 20.5071 30.6898 18.1958 29.3234 17.2931C28.14 16.5113 26.6059 15.9467 24.8526 15.9467C23.9884 15.9467 23.1629 16.0755 22.4133 16.3038" stroke="#006AFE" stroke-width="2.5" stroke-linecap="round" stroke-linejoin="round"/>
<path d="M20.8267 34.3467L22.7767 53.9467H26.9034L28.8533 34.3467" stroke="#006AFE" stroke-width="2.5" stroke-linecap="round" stroke-linejoin="round"/>
</svg>
