<svg width="32" height="32" viewBox="0 0 32 32" fill="none" xmlns="http://www.w3.org/2000/svg">
<path d="M9.4869 5.62617C9.87743 5.23571 10.5105 5.23567 10.901 5.62617C11.2911 6.01671 11.2913 6.64984 10.901 7.04024L7.38794 10.552H21.1392C24.931 10.552 28.0051 13.6261 28.0051 17.4178C28.0049 21.2094 24.9309 24.2824 21.1392 24.2824H5.00903C4.45682 24.2823 4.00903 23.8347 4.00903 23.2824C4.00941 22.7305 4.45705 22.2825 5.00903 22.2824H21.1392C23.8263 22.2824 26.0049 20.1049 26.0051 17.4178C26.0051 14.7307 23.8264 12.552 21.1392 12.552H7.45825L10.901 15.9947C11.2913 16.3852 11.2913 17.0182 10.901 17.4087C10.5105 17.7992 9.87744 17.7991 9.4869 17.4087L4.46997 12.3918C4.19347 12.2139 4.00903 11.9052 4.00903 11.552V11.5168C4.00904 11.5029 4.01106 11.489 4.01164 11.4751C4.01277 11.4603 4.01507 11.4455 4.01685 11.4309C4.03641 11.2045 4.1288 10.983 4.302 10.8098L9.4869 5.62617Z" fill="black"/>
</svg>
