<svg width="24" height="24" viewBox="0 0 24 24" fill="none" xmlns="http://www.w3.org/2000/svg">
<path d="M18.9004 6.25C19.8667 6.2502 20.6504 7.03362 20.6504 8V8.76953C21.4982 8.8911 22.1504 9.61859 22.1504 10.5V13.5C22.1504 14.3814 21.4981 15.1079 20.6504 15.2295V16C20.6504 16.9664 19.8667 17.7498 18.9004 17.75H3.90039C2.93389 17.75 2.15039 16.9665 2.15039 16V8C2.15039 7.0335 2.93389 6.25 3.90039 6.25H18.9004ZM3.90039 7.75C3.76232 7.75 3.65039 7.86193 3.65039 8V16C3.65039 16.1381 3.76232 16.25 3.90039 16.25H18.9004C19.0383 16.2498 19.1504 16.1379 19.1504 16V8C19.1504 7.86205 19.0383 7.7502 18.9004 7.75H3.90039ZM10.4814 8.81348C10.6549 8.73063 10.861 8.7545 11.0107 8.875L16.2139 13.0693C16.3879 13.2098 16.4481 13.4495 16.3604 13.6553C16.2724 13.8611 16.0579 13.9837 15.8359 13.9551L12.6064 13.5352L12.6094 14.7344C12.6097 14.9268 12.4995 15.1031 12.3262 15.1865C12.1527 15.2698 11.946 15.2455 11.7959 15.125L6.58691 10.9375C6.41252 10.7972 6.35277 10.5575 6.44043 10.3516C6.52824 10.146 6.74206 10.0234 6.96387 10.0518L10.1973 10.4658V9.26465C10.1973 9.07211 10.3078 8.89656 10.4814 8.81348Z" fill="#FF3F3F"/>
</svg>
