<svg width="24" height="24" viewBox="0 0 24 24" fill="none" xmlns="http://www.w3.org/2000/svg">
<path d="M18.9004 6.25C19.8667 6.2502 20.6504 7.03362 20.6504 8V8.76953C21.4982 8.8911 22.1504 9.61859 22.1504 10.5V13.5C22.1504 14.3814 21.4981 15.1079 20.6504 15.2295V16C20.6504 16.9664 19.8667 17.7498 18.9004 17.75H3.90039C2.93389 17.75 2.15039 16.9665 2.15039 16V8C2.15039 7.0335 2.93389 6.25 3.90039 6.25H18.9004ZM3.90039 7.75C3.76232 7.75 3.65039 7.86193 3.65039 8V16C3.65039 16.1381 3.76232 16.25 3.90039 16.25H18.9004C19.0383 16.2498 19.1504 16.1379 19.1504 16V8C19.1504 7.86205 19.0383 7.7502 18.9004 7.75H3.90039ZM7.27441 15.25H4.64941V8.75H7.27441V15.25ZM10.8994 15.25H8.27441V8.75H10.8994V15.25ZM14.5244 15.25H11.8994V8.75H14.5244V15.25ZM18.1494 15.25H15.5244V8.75H18.1494V15.25Z" fill="black"/>
</svg>
