<svg width="24" height="24" viewBox="0 0 24 24" fill="none" xmlns="http://www.w3.org/2000/svg">
<path d="M13.5 16.498H17.5" stroke="black" stroke-width="1.5" stroke-linecap="round" stroke-linejoin="round"/>
<path d="M15.502 14.5L15.502 18.5" stroke="black" stroke-width="1.5" stroke-linecap="round" stroke-linejoin="round"/>
<circle cx="15.5" cy="16.5" r="4.5" stroke="black" stroke-width="1.5"/>
<path d="M10.9502 11.5137C10.3669 12.0463 9.8778 12.6798 9.50977 13.3867C6.73213 14.4023 4.75 17.0699 4.75 20.1992C4.74987 20.6133 4.41413 20.9492 4 20.9492C3.58587 20.9492 3.25013 20.6133 3.25 20.1992C3.25 15.7221 6.61278 12.0324 10.9502 11.5137ZM12 2.99609C14.1297 2.99623 15.8572 4.72285 15.8574 6.85254C15.8574 8.05179 15.309 9.12252 14.4502 9.83008C13.5763 9.96654 12.7582 10.2711 12.0293 10.709C12.0195 10.7091 12.0098 10.71 12 10.71C9.87012 10.7098 8.14355 8.98245 8.14355 6.85254C8.14383 4.72286 9.87029 2.99623 12 2.99609ZM12 4.49609C10.6987 4.49623 9.64383 5.55128 9.64355 6.85254C9.64355 8.15402 10.6985 9.20982 12 9.20996C13.3015 9.20983 14.3574 8.15403 14.3574 6.85254C14.3572 5.55128 13.3013 4.49623 12 4.49609Z" fill="black"/>
</svg>
