<svg width="35" height="56" viewBox="0 0 35 56" fill="none" xmlns="http://www.w3.org/2000/svg">
<path d="M9.39471 33.8969L7.04779 52.0141C6.91848 53.0123 7.69584 53.8969 8.70239 53.8969C9.41603 53.8969 10.0507 53.443 10.2813 52.7676L14.328 40.9174L18.4311 52.8032C18.657 53.4577 19.2732 53.8969 19.9655 53.8969C20.9418 53.8969 21.6972 53.0414 21.5764 52.0726L19.3092 33.8969" stroke="#006AFE" stroke-width="2.5" stroke-linecap="round" stroke-linejoin="round"/>
<rect width="7" height="7" rx="3.5" transform="matrix(-1 0 0 1 17.8039 17.8969)" stroke="#006AFE" stroke-width="2.5"/>
<path d="M26.8039 23.8969C23.9193 27.9709 19.3039 28.8969 14.3039 28.8969C9.3039 28.8969 4.68851 27.9709 1.8039 23.8969" stroke="#006AFE" stroke-width="2.5" stroke-linecap="round" stroke-linejoin="round"/>
<path d="M27.2588 1.89685C24.4796 1.89766 22.2088 4.26665 22.2903 7.24898C22.4173 11.9035 27.2279 14.6058 27.2588 14.6216C27.2902 14.6055 32.1003 11.9032 32.2272 7.24898C32.3087 4.26665 30.0379 1.89766 27.2588 1.89685Z" stroke="#006AFE" stroke-width="2.5" stroke-linecap="round" stroke-linejoin="round"/>
<path d="M27.8453 14.4383L27.8453 20.3167" stroke="#006AFE" stroke-width="2.5" stroke-linecap="round" stroke-linejoin="round"/>
</svg>
