<svg width="24" height="24" viewBox="0 0 24 24" fill="none" xmlns="http://www.w3.org/2000/svg">
<path d="M19.8701 21.001C19.87 21.415 19.5342 21.7509 19.1201 21.751H15.4629L16.9629 20.251H18.3701V18.8428L19.8701 17.3438V21.001Z" fill="#121212"/>
<path d="M14.1572 2.25C14.2373 2.25415 14.3158 2.27263 14.3906 2.30176C14.4029 2.30652 14.4148 2.31198 14.4268 2.31738C14.4574 2.3312 14.4869 2.34725 14.5156 2.36523C14.5254 2.37137 14.5354 2.3772 14.5449 2.38379C14.5817 2.40921 14.6171 2.43738 14.6494 2.46973L19.6494 7.46973C19.6814 7.50177 19.7091 7.53687 19.7344 7.57324C19.741 7.58277 19.7468 7.59273 19.7529 7.60254C19.7714 7.63191 19.7877 7.66204 19.8018 7.69336C19.8066 7.70414 19.8121 7.71459 19.8164 7.72559C19.8491 7.80848 19.8654 7.8963 19.8672 7.98535C19.8673 7.99016 19.8691 7.99518 19.8691 8V9.99707C19.4205 9.67341 18.8981 9.50154 18.3691 9.48145V8.75H14.1191C13.7051 8.74993 13.3693 8.41406 13.3691 8V3.75H5.86914V20.25H9.41406C9.41848 20.7997 9.62401 21.3356 10.0029 21.75H5.11914C4.70506 21.7499 4.36927 21.4141 4.36914 21V3C4.36914 2.58583 4.70498 2.25007 5.11914 2.25H14.1572ZM10.8516 15.75H8.11914C7.70506 15.7499 7.36927 15.4141 7.36914 15C7.36914 14.5858 7.70498 14.2501 8.11914 14.25H12.3516L10.8516 15.75ZM14.3516 12.25H8.11914C7.70506 12.2499 7.36927 11.9141 7.36914 11.5C7.36914 11.0858 7.70498 10.7501 8.11914 10.75H15.8516L14.3516 12.25ZM10.1191 7.25C10.5334 7.25 10.8691 7.58579 10.8691 8C10.869 8.4141 10.5333 8.75 10.1191 8.75H8.11914C7.70506 8.74993 7.36927 8.41406 7.36914 8C7.36914 7.58583 7.70498 7.25007 8.11914 7.25H10.1191ZM14.8691 7.25H17.3086L14.8691 4.81055V7.25Z" fill="#121212"/>
<path d="M14.3746 19.6513L14.5315 20.3847L14.7482 20.3383L14.9049 20.1816L14.3746 19.6513ZM12.2533 17.5299L11.7229 16.9996L11.5675 17.155L11.5206 17.3697L12.2533 17.5299ZM11.6623 20.2315L10.9296 20.0712C10.8752 20.3202 10.9509 20.5799 11.1308 20.7606C11.3106 20.9412 11.5699 21.0182 11.8192 20.9649L11.6623 20.2315ZM18.6172 11.8731L18.0869 12.4034L19.5011 13.8176L20.0314 13.2873L20.5618 12.757L19.1476 11.3428L18.6172 11.8731ZM20.0314 13.9944L19.5011 13.4641L13.8443 19.1209L14.3746 19.6513L14.9049 20.1816L20.5618 14.5247L20.0314 13.9944ZM12.2533 17.5299L12.7836 18.0603L18.4404 12.4034L17.9101 11.8731L17.3798 11.3428L11.7229 16.9996L12.2533 17.5299ZM12.2533 17.5299L11.5206 17.3697L10.9296 20.0712L11.6623 20.2315L12.395 20.3917L12.9859 17.6902L12.2533 17.5299ZM11.6623 20.2315L11.8192 20.9649L14.5315 20.3847L14.3746 19.6513L14.2177 18.9179L11.5054 19.4981L11.6623 20.2315ZM20.0314 13.2873L19.5011 13.8176C19.4035 13.72 19.4035 13.5617 19.5011 13.4641L20.0314 13.9944L20.5618 14.5247C21.0499 14.0366 21.0499 13.2451 20.5618 12.757L20.0314 13.2873ZM18.6172 11.8731L19.1476 11.3428C18.6594 10.8546 17.8679 10.8546 17.3798 11.3428L17.9101 11.8731L18.4404 12.4034C18.3428 12.501 18.1845 12.501 18.0869 12.4034L18.6172 11.8731Z" fill="black"/>
<path d="M12.8379 16.9375L14.9592 19.0588" stroke="black" stroke-width="1.5"/>
<path d="M17.2148 12.5918L19.3362 14.7131" stroke="black" stroke-width="1.5"/>
<path d="M19.3243 14.7015L17.203 12.5802L17.9138 11.8694C18.107 11.6762 18.422 11.6778 18.6172 11.8731L20.0314 13.2873C20.2267 13.4826 20.2283 13.7975 20.0351 13.9908L19.3243 14.7015Z" fill="black" stroke="black" stroke-width="0.5"/>
</svg>
