<svg width="24" height="24" viewBox="0 0 24 24" fill="none" xmlns="http://www.w3.org/2000/svg">
<path d="M8.7002 4.875H11.2939V3H12.7939V4.875H15.2998V3H16.7998V4.875H19C19.9665 4.875 20.75 5.6585 20.75 6.625V19.125C20.75 20.0915 19.9665 20.875 19 20.875H5C4.0335 20.875 3.25 20.0915 3.25 19.125V6.625C3.25 5.6585 4.0335 4.875 5 4.875H7.2002V3H8.7002V4.875ZM4.75 19.125C4.75 19.2631 4.86193 19.375 5 19.375H19C19.1381 19.375 19.25 19.2631 19.25 19.125V9.625H4.75V19.125ZM8.25391 16.9961H6.75391V15.4961H8.25391V16.9961ZM11.2539 16.9961H9.75391V15.4961H11.2539V16.9961ZM14.2539 16.9961H12.7539V15.4961H14.2539V16.9961ZM17.2539 16.9961H15.7539V15.4961H17.2539V16.9961ZM8.25391 13.4961H6.75391V11.9961H8.25391V13.4961ZM11.2539 13.4961H9.75391V11.9961H11.2539V13.4961ZM14.2539 13.4961H12.7539V11.9961H14.2539V13.4961ZM17.2539 13.4961H15.7539V11.9961H17.2539V13.4961Z" fill="black"/>
</svg>
