<svg width="24" height="24" viewBox="0 0 24 24" fill="none" xmlns="http://www.w3.org/2000/svg">
<path d="M4.451 16.1208C3.53547 16.1208 2.79102 15.3969 2.79102 14.5066V7.55954C2.79102 6.66924 3.53547 5.94531 4.451 5.94531H15.1045C16.0201 5.94531 16.7645 6.66924 16.7645 7.55954V14.5066C16.7645 15.3969 16.0201 16.1208 15.1045 16.1208H4.451ZM4.451 6.52985C3.86839 6.52985 3.39213 6.99299 3.39213 7.55954V14.5066C3.39213 15.0731 3.86839 15.5362 4.451 15.5362H15.1045C15.6871 15.5362 16.1634 15.0731 16.1634 14.5066V7.55954C16.1634 6.99299 15.6871 6.52985 15.1045 6.52985H4.451Z" fill="black" stroke="black" stroke-width="1.5" stroke-miterlimit="10"/>
<path d="M16.3669 12.2539H3.19336V12.9284H16.3669V12.2539Z" fill="black" stroke="black" stroke-width="1.5" stroke-miterlimit="10"/>
<path d="M4.06471 18.0547C3.96761 18.0547 3.87513 18.0142 3.81502 17.9378C3.75491 17.8658 3.73642 17.7669 3.75491 17.677L4.2173 15.8334C4.2543 15.694 4.37914 15.5996 4.52248 15.5996H15.0327C15.1806 15.5996 15.3055 15.694 15.3378 15.8334L15.8002 17.677C15.8233 17.7669 15.8002 17.8658 15.7401 17.9378C15.68 18.0142 15.5875 18.0547 15.4904 18.0547H4.06471ZM4.467 17.4387H15.0974L14.7876 16.2066H4.77218L4.46237 17.4387H4.467Z" fill="black" stroke="black" stroke-width="1.5" stroke-miterlimit="10"/>
<path d="M20.5336 14.691C19.9914 14.691 19.551 14.2822 19.551 13.779L19.0717 8.05959C19.033 7.64176 19.2073 7.2374 19.5364 6.94986C19.8075 6.71623 20.1609 6.58594 20.5336 6.58594C20.9402 6.58594 21.3371 6.74319 21.6131 7.02174C21.889 7.3003 22.0294 7.6777 21.9955 8.0551L21.5162 13.7565C21.5162 14.2777 21.0757 14.6865 20.5336 14.6865V14.691Z" fill="black"/>
<path d="M20.5293 17.3418C20.2872 17.3418 20.0646 17.252 19.8903 17.0947C19.7209 16.9375 19.6289 16.7263 19.6289 16.5017C19.6289 16.0389 20.0355 15.666 20.5293 15.666C21.0278 15.666 21.4296 16.0434 21.4296 16.5017C21.4296 16.9644 21.023 17.3374 20.5293 17.3374V17.3418Z" fill="black"/>
</svg>
