<svg width="24" height="24" viewBox="0 0 24 24" fill="none" xmlns="http://www.w3.org/2000/svg">
<path d="M7.4502 4.875H10.0439V3H11.5439V4.875H14.0498V3H15.5498V4.875H17.75C18.7165 4.875 19.5 5.6585 19.5 6.625V9.29492C18.5931 8.85565 17.5753 8.60938 16.5 8.60938C15.1801 8.60938 13.9473 8.98139 12.8994 9.625H3.5V19.125C3.5 19.2631 3.61193 19.375 3.75 19.375H10.8018C11.1878 19.9416 11.6569 20.4467 12.1904 20.875H3.75C2.7835 20.875 2 20.0915 2 19.125V6.625C2 5.6585 2.7835 4.875 3.75 4.875H5.9502V3H7.4502V4.875ZM7.00391 16.9961H5.50391V15.4961H7.00391V16.9961ZM9.60938 15.5C9.60938 16.0139 9.66676 16.5143 9.77344 16.9961H8.50391V15.4961H9.60938C9.60937 15.4974 9.60938 15.4987 9.60938 15.5ZM7.00391 13.4961H5.50391V11.9961H7.00391V13.4961ZM10.0039 13.1992C9.9692 13.2972 9.93659 13.3961 9.90625 13.4961H8.50391V11.9961H10.0039V13.1992Z" fill="black"/>
<circle cx="16.5" cy="15.5" r="4.64062" fill="white" stroke="black" stroke-width="1.5"/>
<path d="M16.3945 13.0312V15.7344L17.8004 17.1402" stroke="black" stroke-width="1.5" stroke-linecap="round"/>
</svg>
