<svg width="24" height="24" viewBox="0 0 24 24" fill="none" xmlns="http://www.w3.org/2000/svg">
<path d="M15.2695 10.4219C17.6167 10.4219 19.5195 12.3247 19.5195 14.6719C19.5195 15.6011 19.2199 16.4597 18.7139 17.1592L20.9541 19.3994C21.247 19.6923 21.247 20.1671 20.9541 20.46C20.6612 20.7527 20.1864 20.7528 19.8936 20.46L17.6357 18.2021C16.9594 18.6564 16.1455 18.9219 15.2695 18.9219C12.9223 18.9219 11.0195 17.0191 11.0195 14.6719C11.0195 12.3247 12.9223 10.4219 15.2695 10.4219ZM15.2695 11.9219C13.7507 11.9219 12.5195 13.1531 12.5195 14.6719C12.5195 16.1907 13.7507 17.4219 15.2695 17.4219C16.7883 17.4219 18.0195 16.1907 18.0195 14.6719C18.0195 13.1531 16.7883 11.9219 15.2695 11.9219Z" fill="black"/>
<path d="M13.7695 14.6719H16.7695" stroke="black" stroke-linecap="round"/>
<path d="M15.2715 13.1738L15.2715 16.1738" stroke="black" stroke-linecap="round"/>
<path d="M14.1387 2.6377C14.182 2.63851 14.2252 2.64216 14.2676 2.65039C14.2702 2.6509 14.2728 2.65181 14.2754 2.65234C14.3171 2.6609 14.3577 2.67391 14.3975 2.68945C14.4094 2.69413 14.4209 2.6998 14.4326 2.70508C14.4618 2.71824 14.4901 2.73306 14.5176 2.75C14.529 2.75706 14.5407 2.76379 14.5518 2.77148C14.5881 2.7967 14.6232 2.82444 14.6553 2.85645L19.6553 7.85645C19.6863 7.88751 19.7136 7.92189 19.7383 7.95703C19.7463 7.96845 19.7534 7.98037 19.7607 7.99219C19.778 8.01999 19.7932 8.04858 19.8066 8.07812C19.8121 8.09011 19.8175 8.10201 19.8223 8.11426C19.8553 8.19848 19.8728 8.28747 19.874 8.37793C19.8741 8.38086 19.875 8.38378 19.875 8.38672V11.2305C19.4628 10.6801 18.9549 10.2057 18.375 9.83301V9.13672H16.8213C16.4189 9.02426 15.9992 8.95261 15.5664 8.93066L15.2705 8.92285C14.791 8.92285 14.3252 8.98121 13.8799 9.0918C13.5867 8.98979 13.375 8.71453 13.375 8.38672V4.13672H5.875V20.6367H17.9492L18.834 21.5215C19.0461 21.7336 19.2905 21.8933 19.5508 22.0029C19.4297 22.0867 19.2834 22.1367 19.125 22.1367H5.125C4.71095 22.1365 4.375 21.8008 4.375 21.3867V3.38672C4.37513 2.97274 4.71104 2.63692 5.125 2.63672H14.125C14.1294 2.63672 14.1342 2.63762 14.1387 2.6377ZM9.52051 14.6729L9.52832 14.9688C9.54868 15.3704 9.61132 15.7609 9.70996 16.1367H8.125C7.71095 16.1365 7.375 15.8008 7.375 15.3867C7.37513 14.9727 7.71104 14.6369 8.125 14.6367H9.52148C9.52141 14.6488 9.52051 14.6608 9.52051 14.6729ZM10.7383 11.1367C10.3858 11.5878 10.0989 12.0922 9.89258 12.6367H8.125C7.71095 12.6365 7.375 12.3008 7.375 11.8867C7.37513 11.4727 7.71104 11.1369 8.125 11.1367H10.7383ZM10.125 7.63672C10.5391 7.63672 10.8749 7.97262 10.875 8.38672C10.875 8.80093 10.5392 9.13672 10.125 9.13672H8.125C7.71095 9.13652 7.375 8.80081 7.375 8.38672C7.37513 7.97274 7.71104 7.63692 8.125 7.63672H10.125ZM14.875 7.63672H17.3145L14.875 5.19727V7.63672Z" fill="#121212"/>
</svg>
