<svg width="24" height="24" viewBox="0 0 24 24" fill="none" xmlns="http://www.w3.org/2000/svg">
<path d="M7.4502 4.875H10.0439V3H11.5439V4.875H14.0498V3H15.5498V4.875H17.75C18.7165 4.875 19.5 5.6585 19.5 6.625V10.1104C19.0236 9.93818 18.521 9.82167 18 9.76562V9.625H3.5V19.125C3.5 19.2631 3.61193 19.375 3.75 19.375H11.6611C11.9748 19.9309 12.3665 20.4367 12.8242 20.875H3.75C2.7835 20.875 2 20.0915 2 19.125V6.625C2 5.6585 2.7835 4.875 3.75 4.875H5.9502V3H7.4502V4.875ZM6.4834 11.9531C6.82064 11.9531 7.11914 12.0146 7.37891 12.1377C7.64095 12.2585 7.84375 12.4264 7.9873 12.6406C8.13071 12.8525 8.2015 13.088 8.19922 13.3477C8.2015 13.5277 8.16276 13.6917 8.08301 13.8398C8.00559 13.9856 7.89534 14.1065 7.75195 14.2021C7.61068 14.2979 7.44727 14.3617 7.2627 14.3936V14.4346C7.50195 14.4642 7.70638 14.5303 7.875 14.6328C8.04344 14.7353 8.17129 14.8693 8.25781 15.0332C8.34419 15.1948 8.38607 15.3782 8.38379 15.583C8.38607 15.8609 8.30555 16.1117 8.1416 16.335C7.97762 16.5559 7.74948 16.7292 7.45801 16.8545C7.16634 16.9775 6.83659 17.0391 6.46973 17.0391C6.11198 17.0391 5.79069 16.9775 5.50586 16.8545C5.22331 16.7292 5 16.556 4.83594 16.335C4.67415 16.1117 4.58984 15.8587 4.58301 15.5762H5.62207C5.62891 15.6969 5.66992 15.804 5.74512 15.8975C5.82031 15.9909 5.9222 16.0638 6.0498 16.1162C6.1773 16.1662 6.31951 16.1914 6.47656 16.1914C6.63835 16.1914 6.78353 16.1634 6.91113 16.1064C7.04091 16.0472 7.14132 15.9658 7.21191 15.8633C7.28472 15.7608 7.31966 15.6444 7.31738 15.5146C7.31966 15.3804 7.28228 15.2609 7.20508 15.1562C7.12988 15.0514 7.02116 14.9701 6.87988 14.9131C6.73861 14.8538 6.57227 14.8242 6.38086 14.8242H5.92285V14.0654H6.38086C6.54036 14.0654 6.68327 14.0381 6.80859 13.9834C6.93372 13.9287 7.03198 13.8511 7.10254 13.751C7.17307 13.6508 7.20801 13.5367 7.20801 13.4092C7.20801 13.2841 7.17749 13.1737 7.11621 13.0781C7.05704 12.9825 6.97246 12.9079 6.86328 12.8555C6.75391 12.8008 6.62695 12.7734 6.4834 12.7734C6.33756 12.7734 6.20312 12.8001 6.08008 12.8525C5.95939 12.9027 5.86129 12.9756 5.78613 13.0713C5.71337 13.1646 5.67447 13.2726 5.66992 13.3955H4.68555C4.6901 13.1153 4.77153 12.8662 4.92871 12.6475C5.08594 12.4287 5.30013 12.2585 5.57129 12.1377C5.84462 12.0148 6.1486 11.9531 6.4834 11.9531ZM11.2412 13.9189C10.9741 14.6282 10.8272 15.3965 10.8271 16.1992L10.8359 16.5322C10.8434 16.6798 10.8578 16.8259 10.875 16.9707H10.209V12.999H10.1816L9.04688 13.71V12.8008L10.2705 12.0215H11.2412V13.9189Z" fill="black"/>
<path d="M17.3016 20.4451C19.6461 20.4451 21.5466 18.5445 21.5466 16.2001C21.5466 13.8556 19.6461 11.9551 17.3016 11.9551C14.9572 11.9551 13.0566 13.8556 13.0566 16.2001C13.0566 18.5445 14.9572 20.4451 17.3016 20.4451Z" stroke="black" stroke-width="1.5" stroke-linecap="round" stroke-linejoin="round"/>
<path d="M17.3008 13.8418V16.318L19.1874 17.1435" stroke="black" stroke-width="1.5" stroke-linecap="round" stroke-linejoin="round"/>
</svg>
