<svg width="48" height="48" viewBox="0 0 48 48" fill="none" xmlns="http://www.w3.org/2000/svg">
<path d="M39.7402 42C39.74 42.8281 39.0684 43.4999 38.2402 43.5H30.9248L33.9248 40.5H36.7402V37.6846L39.7402 34.6846V42Z" fill="#B8B8B8"/>
<path d="M28.3164 4.5C28.4765 4.50829 28.6336 4.54527 28.7832 4.60352C28.8077 4.61305 28.8315 4.62396 28.8555 4.63477C28.9167 4.66241 28.9757 4.6945 29.0332 4.73047C29.0528 4.74273 29.0727 4.75439 29.0918 4.76758C29.1653 4.81843 29.2361 4.87476 29.3008 4.93945L39.3008 14.9395C39.3649 15.0035 39.4202 15.0737 39.4707 15.1465C39.4839 15.1655 39.4955 15.1855 39.5078 15.2051C39.5447 15.2638 39.5773 15.3241 39.6055 15.3867C39.6152 15.4083 39.6261 15.4292 39.6348 15.4512C39.7001 15.617 39.7327 15.7926 39.7363 15.9707C39.7365 15.9803 39.7402 15.9904 39.7402 16V19.9941C38.843 19.3468 37.7982 19.0031 36.7402 18.9629V17.5H28.2402C27.4121 17.4999 26.7405 16.8281 26.7402 16V7.5H11.7402V40.5H18.8301C18.8389 41.5994 19.25 42.6713 20.0078 43.5H10.2402C9.41208 43.4999 8.7405 42.8281 8.74023 42V6C8.74023 5.17165 9.41192 4.50013 10.2402 4.5H28.3164ZM21.7051 31.5H16.2402C15.4121 31.4999 14.7405 30.8281 14.7402 30C14.7402 29.1717 15.4119 28.5001 16.2402 28.5H24.7051L21.7051 31.5ZM28.7051 24.5H16.2402C15.4121 24.4999 14.7405 23.8281 14.7402 23C14.7402 22.1717 15.4119 21.5001 16.2402 21.5H31.7051L28.7051 24.5ZM20.2402 14.5C21.0687 14.5 21.7402 15.1716 21.7402 16C21.74 16.8282 21.0685 17.5 20.2402 17.5H16.2402C15.4121 17.4999 14.7405 16.8281 14.7402 16C14.7402 15.1717 15.4119 14.5001 16.2402 14.5H20.2402ZM29.7402 14.5H34.6191L29.7402 9.62109V14.5Z" fill="#B8B8B8"/>
<path d="M28.7521 39.3028L29.0659 40.7696L29.4993 40.6769L29.8128 40.3634L28.7521 39.3028ZM24.5095 35.0601L23.4488 33.9995L23.138 34.3102L23.0441 34.7396L24.5095 35.0601ZM23.3276 40.4632L21.8622 40.1426C21.7533 40.6407 21.9048 41.16 22.2645 41.5214C22.6242 41.8827 23.1428 42.0366 23.6414 41.93L23.3276 40.4632ZM37.2374 23.7464L36.1767 24.8071L39.0051 27.6355L40.0658 26.5748L41.1265 25.5142L38.298 22.6858L37.2374 23.7464ZM40.0658 27.9891L39.0051 26.9284L27.6914 38.2421L28.7521 39.3028L29.8128 40.3634L41.1265 29.0497L40.0658 27.9891ZM24.5095 35.0601L25.5701 36.1208L36.8838 24.8071L35.8232 23.7464L34.7625 22.6858L23.4488 33.9995L24.5095 35.0601ZM24.5095 35.0601L23.0441 34.7396L21.8622 40.1426L23.3276 40.4632L24.7929 40.7837L25.9748 35.3807L24.5095 35.0601ZM23.3276 40.4632L23.6414 41.93L29.0659 40.7696L28.7521 39.3028L28.4383 37.8359L23.0138 38.9964L23.3276 40.4632ZM40.0658 26.5748L39.0051 27.6355C38.8099 27.4402 38.8099 27.1237 39.0051 26.9284L40.0658 27.9891L41.1265 29.0497C42.1028 28.0734 42.1028 26.4905 41.1265 25.5142L40.0658 26.5748ZM37.2374 23.7464L38.298 22.6858C37.3217 21.7094 35.7388 21.7094 34.7625 22.6858L35.8232 23.7464L36.8838 24.8071C36.6886 25.0023 36.372 25.0023 36.1767 24.8071L37.2374 23.7464Z" fill="#B8B8B8"/>
<path d="M25.6787 33.8721L29.9214 38.1147" stroke="#B8B8B8" stroke-width="3"/>
<path d="M34.4312 25.1826L38.6738 29.4253" stroke="#B8B8B8" stroke-width="3"/>
<path d="M38.6516 29.4033L34.409 25.1606L35.8305 23.7391C36.217 23.3526 36.8469 23.3559 37.2374 23.7464L40.0658 26.5748C40.4563 26.9654 40.4596 27.5953 40.0731 27.9818L38.6516 29.4033Z" fill="#B8B8B8" stroke="#B8B8B8"/>
</svg>
