<svg width="24" height="24" viewBox="0 0 24 24" fill="none" xmlns="http://www.w3.org/2000/svg">
<path d="M20.125 19.4846C20.5392 19.4846 20.875 19.8204 20.875 20.2346C20.8749 20.6487 20.5391 20.9846 20.125 20.9846H14.875C14.4609 20.9846 14.1251 20.6487 14.125 20.2346C14.125 19.8204 14.4608 19.4846 14.875 19.4846H20.125ZM11.709 2.50611C11.9099 2.42854 12.137 2.44019 12.3301 2.54224L20.5137 6.87916C20.7588 7.00909 20.9128 7.26482 20.9131 7.54224C20.9131 7.81986 20.7589 8.07526 20.5137 8.20533L17.793 9.64478C17.697 9.63229 17.5993 9.62427 17.5 9.62427C16.6198 9.62427 15.859 10.1309 15.4893 10.8674L12.3301 12.5422C12.1094 12.659 11.8451 12.6583 11.625 12.5403L8.05078 10.6213L5.48438 11.9983L11.9814 15.4866L12.8789 15.01C12.6899 15.5496 12.713 16.1455 12.9473 16.6711L12.3301 16.9993C12.1094 17.1161 11.8451 17.1153 11.625 16.9973L7.50293 14.7844L5.48535 15.8674L11.9814 19.3547L13.2461 18.6838C12.8618 19.0871 12.6252 19.6326 12.625 20.2336C12.625 20.3888 12.641 20.5405 12.6709 20.6868L12.3301 20.8674C12.1094 20.9842 11.8451 20.9835 11.625 20.8655L3.54492 16.5286C3.30177 16.3978 3.14942 16.1435 3.14941 15.8674C3.14966 15.5916 3.30197 15.3379 3.54492 15.2073L5.91602 13.9329L3.54492 12.6604C3.30171 12.5297 3.14942 12.2754 3.14941 11.9993C3.14957 11.7232 3.30172 11.4688 3.54492 11.3381L6.46484 9.77076L3.54492 8.20337C3.30177 8.07265 3.14942 7.81833 3.14941 7.54224C3.14966 7.26641 3.30197 7.01271 3.54492 6.88208L11.625 2.54419L11.709 2.50611ZM17.5 11.1252C17.9142 11.1252 18.25 11.461 18.25 11.8752V16.3948L19.4189 15.2258C19.7118 14.9329 20.1876 14.9329 20.4805 15.2258C20.773 15.5186 20.7729 15.9935 20.4805 16.2864L18.0049 18.762C17.712 19.0543 17.2371 19.0545 16.9443 18.762L14.4697 16.2864C14.177 15.9935 14.177 15.5187 14.4697 15.2258C14.7626 14.9331 15.2374 14.9331 15.5303 15.2258L16.75 16.4456V11.8752C16.75 11.461 17.0858 11.1252 17.5 11.1252ZM20.5137 11.3362C20.7589 11.4662 20.9129 11.7218 20.9131 11.9993C20.9131 12.2769 20.7589 12.5323 20.5137 12.6624L19.75 13.0667V11.8743C19.7499 11.4768 19.6458 11.1036 19.4648 10.7795L20.5137 11.3362ZM5.48438 7.54224L11.9814 11.0295L18.5615 7.54224L11.9814 4.05396L5.48438 7.54224ZM8.02832 7.31373C8.15781 7.07012 8.46029 6.97744 8.7041 7.10669L12.2383 8.97974C12.4823 9.10908 12.5747 9.41252 12.4453 9.6565C12.3159 9.90019 12.0134 9.99281 11.7695 9.86353L8.23535 7.99048C7.99141 7.86113 7.89898 7.55769 8.02832 7.31373ZM9.79492 6.3772C9.92427 6.13332 10.2268 6.04092 10.4707 6.17017L14.0049 8.04322C14.2487 8.1725 14.342 8.47508 14.2129 8.719C14.0836 8.96286 13.781 9.05608 13.5371 8.92701L10.0029 7.05298C9.75895 6.92364 9.66558 6.62118 9.79492 6.3772ZM11.5586 5.44068C11.688 5.19679 11.9904 5.10335 12.2344 5.23267L15.7686 7.10669C16.0123 7.23612 16.1049 7.53859 15.9756 7.78248C15.8463 8.02641 15.5438 8.11973 15.2998 7.99048L11.7656 6.11646C11.5218 5.98707 11.4293 5.68461 11.5586 5.44068Z" fill="black"/>
</svg>
