<svg width="24" height="24" viewBox="0 0 24 24" fill="none" xmlns="http://www.w3.org/2000/svg">
<path d="M20.75 14.4062H22V17.1562C21.9997 18.1225 21.2163 18.9062 20.25 18.9062H3.75C2.78367 18.9062 2.00026 18.1225 2 17.1562V17.1279C2.16714 17.2027 2.34475 17.2612 2.5332 17.2939L2.53418 17.2949C2.87238 17.3534 3.20595 17.3302 3.5166 17.2441C3.55235 17.3385 3.64311 17.4062 3.75 17.4062H20.25C20.3879 17.4062 20.4997 17.2941 20.5 17.1562V15.9062H5.01074C5.06618 15.7658 5.10788 15.6176 5.13477 15.4629L5.19434 15.1924C5.25826 14.9465 5.35542 14.677 5.48633 14.4062H7.52246C8.32312 15.0136 9.43391 15.0134 10.2344 14.4062H19.25V10.8428C19.791 10.7035 20.2961 10.4753 20.75 10.1758V14.4062ZM4.75 12.7549C4.54223 13.0242 4.36552 13.3068 4.21777 13.5898C4.10593 13.8038 4.01048 14.0183 3.93066 14.2275C3.79803 14.5759 3.70859 14.9105 3.65723 15.2061C3.58633 15.6139 3.19789 15.8869 2.79004 15.8164C2.38217 15.7454 2.10792 15.3572 2.17871 14.9492C2.19179 14.874 2.20671 14.7966 2.22363 14.7178C2.24052 14.639 2.25944 14.5584 2.28027 14.4766C2.28625 14.4531 2.29447 14.4299 2.30078 14.4062H3.25V12.2803C3.58513 11.7683 4.00254 11.2734 4.51562 10.8418C4.59181 10.7777 4.6701 10.7151 4.75 10.6543V12.7549ZM13.083 5.09473C13.0293 5.3884 13 5.69081 13 6C13 6.20162 13.0129 6.40033 13.0361 6.5957H10.2559C9.44699 5.96687 8.31016 5.9666 7.50098 6.5957H5C4.86193 6.5957 4.75 6.70763 4.75 6.8457V8.87109C4.31812 9.10962 3.91688 9.38466 3.5498 9.69336C3.44654 9.78022 3.34692 9.86948 3.25 9.95996V6.8457C3.25 5.87921 4.0335 5.09473 5 5.09473H13.083Z" fill="black"/>
<g clip-path="url(#clip0_316_1243)">
<rect width="8" height="8" transform="translate(14 2)" fill="white"/>
<rect x="15.0167" y="3.01667" width="5.96667" height="5.96667" rx="0.316667" stroke="black" stroke-opacity="0.1" stroke-width="0.0333333"/>
<rect x="14.6827" y="3.3487" width="6.63333" height="5.3" rx="0.316667" stroke="black" stroke-opacity="0.1" stroke-width="0.0333333"/>
<rect x="15.3487" y="2.68268" width="5.3" height="6.63333" rx="0.316667" stroke="black" stroke-opacity="0.1" stroke-width="0.0333333"/>
<circle cx="17.9993" cy="5.99935" r="3.31667" stroke="black" stroke-opacity="0.1" stroke-width="0.0333333"/>
<circle cx="17.9987" cy="5.9987" r="1.65" stroke="black" stroke-opacity="0.1" stroke-width="0.0333333"/>
<path d="M21.96 9.9834H19.3496V7.37305L21.96 9.9834ZM19.3164 7.34961V9.9834H18.0166V7.34961H19.3164ZM17.9834 7.34961V9.9834H16.6836V7.34961H17.9834ZM16.6504 9.9834H14.04L16.6504 7.37305V9.9834ZM16.627 7.34961L14.0166 9.95996V7.34961H16.627ZM21.9834 7.34961V9.95996L19.373 7.34961H21.9834ZM21.9834 6.0166V7.31641H19.3496V6.0166H21.9834ZM19.293 7.31641H18.0166V6.04004L19.293 7.31641ZM17.9834 7.31641H16.707L17.9834 6.04004V7.31641ZM16.6504 6.0166V7.31641H14.0166V6.0166H16.6504ZM17.96 6.0166L16.6836 7.29297V6.0166H17.96ZM19.3164 6.0166V7.29297L18.04 6.0166H19.3164ZM21.9834 4.68359V5.9834H19.3496V4.68359H21.9834ZM19.3164 5.9834H18.04L19.3164 4.70703V5.9834ZM17.96 5.9834H16.6836V4.70703L17.96 5.9834ZM16.6504 4.68359V5.9834H14.0166V4.68359H16.6504ZM17.9834 4.68359V5.95996L16.707 4.68359H17.9834ZM19.293 4.68359L18.0166 5.95996V4.68359H19.293ZM21.9834 4.65039H19.373L21.9834 2.04004V4.65039ZM19.3164 2.0166V4.65039H18.0166V2.0166H19.3164ZM17.9834 2.0166V4.65039H16.6836V2.0166H17.9834ZM16.627 4.65039H14.0166V2.04004L16.627 4.65039ZM16.6504 2.0166V4.62695L14.04 2.0166H16.6504ZM21.96 2.0166L19.3496 4.62695V2.0166H21.96Z" stroke="black" stroke-opacity="0.1" stroke-width="0.0333333"/>
<circle cx="18" cy="6" r="3" fill="black" stroke="black"/>
<path d="M16.666 6.20898L17.4157 6.96159L19.3327 5.03711" stroke="white" stroke-linecap="round" stroke-linejoin="round"/>
</g>
<g clip-path="url(#clip1_316_1243)">
<rect x="2.525" y="6.525" width="8.95" height="8.95" rx="0.475" stroke="black" stroke-opacity="0.1" stroke-width="0.05"/>
<rect x="2.025" y="7.025" width="9.95" height="7.95" rx="0.475" stroke="black" stroke-opacity="0.1" stroke-width="0.05"/>
<rect x="3.025" y="6.025" width="7.95" height="9.95" rx="0.475" stroke="black" stroke-opacity="0.1" stroke-width="0.05"/>
<circle cx="7" cy="11" r="4.975" stroke="black" stroke-opacity="0.1" stroke-width="0.05"/>
<circle cx="7" cy="11" r="2.475" stroke="black" stroke-opacity="0.1" stroke-width="0.05"/>
<path d="M12.9395 16.9746H9.02539V13.0605L12.9395 16.9746ZM8.97461 13.0254V16.9746H7.02539V13.0254H8.97461ZM6.97461 13.0254V16.9746H5.02539V13.0254H6.97461ZM4.97461 16.9746H1.06055L4.97461 13.0605V16.9746ZM4.93945 13.0254L1.02539 16.9395V13.0254H4.93945ZM12.9746 13.0254V16.9395L9.06055 13.0254H12.9746ZM12.9746 11.0254V12.9746H9.02539V11.0254H12.9746ZM8.93945 12.9746H7.02539V11.0605L8.93945 12.9746ZM6.97461 12.9746H5.06055L6.97461 11.0605V12.9746ZM4.97461 11.0254V12.9746H1.02539V11.0254H4.97461ZM6.93945 11.0254L5.02539 12.9395V11.0254H6.93945ZM8.97461 11.0254V12.9395L7.06055 11.0254H8.97461ZM12.9746 9.02539V10.9746H9.02539V9.02539H12.9746ZM8.97461 10.9746H7.06055L8.97461 9.06055V10.9746ZM6.93945 10.9746H5.02539V9.06055L6.93945 10.9746ZM4.97461 9.02539V10.9746H1.02539V9.02539H4.97461ZM6.97461 9.02539V10.9395L5.06055 9.02539H6.97461ZM8.93945 9.02539L7.02539 10.9395V9.02539H8.93945ZM12.9746 8.97461H9.06055L12.9746 5.06055V8.97461ZM8.97461 5.02539V8.97461H7.02539V5.02539H8.97461ZM6.97461 5.02539V8.97461H5.02539V5.02539H6.97461ZM4.93945 8.97461H1.02539V5.06055L4.93945 8.97461ZM4.97461 5.02539V8.93945L1.06055 5.02539H4.97461ZM12.9395 5.02539L9.02539 8.93945V5.02539H12.9395Z" stroke="black" stroke-opacity="0.1" stroke-width="0.05"/>
<path d="M8.34863 7.84082C8.64148 7.54797 9.11628 7.54806 9.40918 7.84082L11.5312 9.96191C11.8239 10.2547 11.8237 10.7296 11.5312 11.0225L9.40918 13.1445C9.1163 13.437 8.64142 13.4372 8.34863 13.1445C8.05574 12.8516 8.05574 12.3759 8.34863 12.083L9.47949 10.9512C7.6313 10.7306 6.35476 11.2539 5.48047 11.9893C4.37918 12.9159 3.82157 14.2601 3.65723 15.2061C3.58612 15.6138 3.19784 15.8871 2.79004 15.8164C2.38233 15.7454 2.10819 15.357 2.17871 14.9492C2.3879 13.7451 3.08127 12.0485 4.51562 10.8418C5.58394 9.94325 7.01689 9.35945 8.85352 9.40625L8.34863 8.90137C8.0559 8.60849 8.05588 8.13368 8.34863 7.84082Z" fill="black"/>
</g>
<defs>
<clipPath id="clip0_316_1243">
<rect width="8" height="8" fill="white" transform="translate(14 2)"/>
</clipPath>
<clipPath id="clip1_316_1243">
<rect width="12" height="12" fill="white" transform="translate(1 5)"/>
</clipPath>
</defs>
</svg>
