<svg width="24" height="24" viewBox="0 0 24 24" fill="none" xmlns="http://www.w3.org/2000/svg">
<path d="M9.60969 6.45605C10.3418 6.17131 11.1398 6 12 6C17.0909 6 20 12 20 12C20 12 19.313 13.4169 18.0225 14.8737M7.55697 7.63645C5.25429 9.41303 4 12 4 12C4 12 6.90909 18 12 18C13.7234 18 15.1968 17.3124 16.3919 16.4028" stroke="black" stroke-width="1.5" stroke-linecap="round" stroke-linejoin="round"/>
<path d="M13.3229 13.4997C12.9703 13.8109 12.5072 13.9997 12 13.9997C10.8954 13.9997 10 13.1043 10 11.9997C10 11.4677 10.2077 10.9843 10.5464 10.626" stroke="black" stroke-width="1.5" stroke-linecap="round" stroke-linejoin="round"/>
<path d="M4 4L19.5563 19.5563" stroke="black" stroke-width="1.5" stroke-linecap="round" stroke-linejoin="round"/>
</svg>
