<svg width="24" height="24" viewBox="0 0 24 24" fill="none" xmlns="http://www.w3.org/2000/svg">
<path d="M19.9262 5.96879L19.4701 5.44287L17.3994 7.22222C16.022 5.57493 13.9466 4.52539 11.6316 4.52539C7.49246 4.52539 4.12578 7.87789 4.12578 11.9996C4.12578 13.9133 4.8517 15.6602 6.04295 16.9832L4.07227 18.6768L4.52829 19.2027L6.53388 17.4813C7.87404 18.7185 9.66324 19.4761 11.6293 19.4761C15.7684 19.4761 19.1351 16.1236 19.1351 12.0019C19.1351 10.438 18.6488 8.98303 17.8205 7.7829L19.9262 5.96879ZM18.4371 11.9996C18.4371 15.7367 15.3845 18.7787 11.6293 18.7787C9.87497 18.7787 8.2719 18.1138 7.06436 17.0225C6.89218 16.8673 6.72699 16.7005 6.5711 16.529C5.48455 15.3266 4.82378 13.7395 4.82378 11.9996C4.82378 8.26249 7.87636 5.22045 11.6316 5.22045C13.7372 5.22045 15.6218 6.17731 16.8713 7.67632C17.0202 7.85472 17.1598 8.04239 17.2901 8.23469C18.016 9.31203 18.4394 10.6072 18.4394 11.9973L18.4371 11.9996Z" fill="white" stroke="black" stroke-width="1.5" stroke-miterlimit="10" stroke-linecap="round"/>
<path d="M11.0103 10.4311C11.0103 10.9455 10.9009 11.3486 10.6846 11.6428C10.5612 11.805 10.41 11.9278 10.2285 12.0135C10.047 12.0993 9.83998 12.1433 9.60498 12.1433C9.36999 12.1433 9.16292 12.0993 8.98609 12.0135C8.80694 11.9278 8.6557 11.8027 8.53472 11.6428C8.31601 11.337 8.20898 10.9339 8.20898 10.4311C8.20898 9.92836 8.31834 9.509 8.53472 9.20318C8.786 8.87418 9.1443 8.70969 9.60731 8.70969C10.0703 8.70969 10.4356 8.87418 10.6869 9.20318C10.9056 9.49742 11.0126 9.9075 11.0126 10.4311H11.0103ZM10.4565 10.4311C10.4565 9.61326 10.1727 9.20318 9.60266 9.20318C9.03262 9.20318 8.75575 9.61326 8.75575 10.4311C8.75575 10.7717 8.81392 11.0451 8.93258 11.2536C9.08846 11.52 9.31182 11.6521 9.60266 11.6521C9.89349 11.6521 10.1238 11.52 10.282 11.2536C10.3984 11.0451 10.4589 10.7717 10.4589 10.4311H10.4565ZM13.6883 8.57068C13.7604 8.57068 13.8 8.57763 13.8046 8.58689C13.8093 8.59848 13.7953 8.63555 13.7627 8.70042L10.2192 15.2479C10.1797 15.3174 10.1517 15.3568 10.1308 15.3683C10.1122 15.3799 10.0633 15.3846 9.98423 15.3846H9.74226C9.66315 15.3846 9.62127 15.3799 9.61196 15.3683C9.60266 15.3568 9.62127 15.3104 9.66548 15.2293L13.1997 8.68189C13.2276 8.62396 13.2509 8.59153 13.2672 8.58226C13.2834 8.57299 13.323 8.56836 13.3835 8.56836H13.686L13.6883 8.57068ZM15.2216 13.5357C15.2216 14.0547 15.1122 14.4601 14.8958 14.7544C14.6492 15.0764 14.2932 15.2386 13.8232 15.2386C13.3532 15.2386 12.988 15.0764 12.7437 14.7544C12.5319 14.4671 12.4249 14.0593 12.4249 13.5357C12.4249 13.0121 12.5319 12.6066 12.7437 12.3078C12.867 12.1456 13.0182 12.0228 13.1997 11.9371C13.3812 11.8514 13.5882 11.8073 13.8232 11.8073C14.2979 11.8073 14.6562 11.9741 14.8958 12.3101C15.1145 12.6043 15.2216 13.0144 15.2216 13.538V13.5357ZM14.6701 13.5357C14.6701 12.7225 14.3886 12.317 13.8232 12.317C13.2578 12.317 12.96 12.7225 12.96 13.5357C12.96 13.8693 13.0205 14.145 13.1438 14.3582C13.2881 14.6293 13.5161 14.7636 13.8232 14.7636C14.3863 14.7636 14.6701 14.3536 14.6701 13.5357Z" fill="black" stroke="black" stroke-width="0.5" stroke-miterlimit="10"/>
</svg>
