<svg width="24" height="24" viewBox="0 0 24 24" fill="none" xmlns="http://www.w3.org/2000/svg">
<path d="M11.2495 12.791H12.1325C12.4547 12.791 12.7158 12.5298 12.7158 12.2077V4.37435C12.7158 4.05218 12.4547 3.79102 12.1325 3.79102H4.29915C3.97699 3.79102 3.71582 4.05218 3.71582 4.37435V12.2077C3.71582 12.5298 3.97699 12.791 4.29915 12.791H7.91748M15.8081 11.25H19.6667C19.9888 11.25 20.25 11.5112 20.25 11.8333V19.6667C20.25 19.9888 19.9888 20.25 19.6667 20.25H11.8333C11.5112 20.25 11.25 19.9888 11.25 19.6667V12.793" stroke="black" stroke-width="1.5" stroke-linecap="round" stroke-linejoin="round"/>
<path d="M6.03003 10.0232L7.44214 5.78101H8.95972L10.366 10.0232H9.16479L8.90991 9.19116H7.48901L7.23706 10.0232H6.03003ZM8.6521 8.34741L8.21558 6.92358H8.18042L7.74683 8.34741H8.6521Z" fill="black"/>
<path d="M15.75 11.25H19.6667C19.9888 11.25 20.25 11.5112 20.25 11.8333V19.6667C20.25 19.9888 19.9888 20.25 19.6667 20.25H11.8333C11.5112 20.25 11.25 19.9888 11.25 19.6667V12.793" stroke="black" stroke-width="1.5" stroke-linecap="round" stroke-linejoin="round"/>
<path d="M17.4512 15.6816H18.0273V16.6221H17.4512V18.8242H16.3643V14.0166H17.4512V15.6816ZM16.2207 14.6172C16.219 15.1209 16.1521 15.5845 16.0186 16.0059C15.8849 16.4324 15.6607 16.8217 15.3496 17.1719C15.0363 17.5245 14.6216 17.8255 14.1104 18.0762L13.998 18.1309L13.4795 17.4355L13.3711 17.292L13.5322 17.2119C13.8635 17.0455 14.1377 16.8654 14.3555 16.6738C14.5741 16.4813 14.7452 16.2678 14.8711 16.0342C14.9724 15.8449 15.0458 15.634 15.0928 15.4014H13.7324V14.4658H16.2207V14.6172Z" fill="black"/>
<path d="M6.48224 11.0232L8.25001 12.791L6.48224 14.5588" stroke="black" stroke-width="1.5" stroke-linecap="round" stroke-linejoin="round"/>
<path d="M17.4665 9.48223L15.6987 11.25L17.4665 13.0178" stroke="black" stroke-width="1.5" stroke-linecap="round" stroke-linejoin="round"/>
</svg>
