<svg width="24" height="24" viewBox="0 0 24 24" fill="none" xmlns="http://www.w3.org/2000/svg">
<path d="M18.25 2.25C19.2165 2.25 20 3.0335 20 4V20C20 20.9665 19.2165 21.75 18.25 21.75H9.25C8.2835 21.75 7.5 20.9665 7.5 20V16H9V20C9 20.1381 9.11193 20.25 9.25 20.25H18.25C18.3881 20.25 18.5 20.1381 18.5 20V4C18.5 3.86193 18.3881 3.75 18.25 3.75H9.25C9.11193 3.75 9 3.86193 9 4V8H7.5V4C7.5 3.0335 8.2835 2.25 9.25 2.25H18.25ZM10.6416 8.60645C10.9345 8.31387 11.4094 8.31366 11.7021 8.60645L14.5303 11.4346C14.8229 11.7275 14.8231 12.2033 14.5303 12.4961L11.7021 15.3242C11.4094 15.6167 10.9345 15.6165 10.6416 15.3242C10.3488 15.0314 10.349 14.5566 10.6416 14.2637L12.1904 12.7148H4.75C4.33595 12.7148 4.00026 12.3788 4 11.9648C4.00009 11.5507 4.33584 11.2148 4.75 11.2148H12.1885L10.6416 9.66699C10.3488 9.37418 10.349 8.89936 10.6416 8.60645Z" fill="black"/>
</svg>
