<svg width="24" height="24" viewBox="0 0 24 24" fill="none" xmlns="http://www.w3.org/2000/svg">
<path d="M11.2485 12.791H12.1315C12.4537 12.791 12.7148 12.5298 12.7148 12.2077V4.37435C12.7148 4.05218 12.4537 3.79102 12.1315 3.79102H4.29818C3.97601 3.79102 3.71484 4.05218 3.71484 4.37435V12.2077C3.71484 12.5298 3.97601 12.791 4.29818 12.791H7.9165M15.8071 11.25H19.6657C19.9879 11.25 20.249 11.5112 20.249 11.8333V19.6667C20.249 19.9888 19.9879 20.25 19.6657 20.25H11.8324C11.5102 20.25 11.249 19.9888 11.249 19.6667V12.793" stroke="black" stroke-width="1.5" stroke-linecap="round" stroke-linejoin="round"/>
<path d="M6.02734 10.0234L7.43945 5.78125H8.95703L10.3633 10.0234H9.16211L8.90723 9.19141H7.48633L7.23438 10.0234H6.02734ZM8.64941 8.34766L8.21289 6.92383H8.17773L7.74414 8.34766H8.64941Z" fill="black"/>
<path d="M15.75 11.25H19.6667C19.9888 11.25 20.25 11.5112 20.25 11.8333V19.6667C20.25 19.9888 19.9888 20.25 19.6667 20.25H11.8333C11.5112 20.25 11.25 19.9888 11.25 19.6667V12.793" stroke="black" stroke-width="1.5" stroke-linecap="round" stroke-linejoin="round"/>
<path d="M16.2451 14.6865H18.1328V15.6758H17.4004C17.202 16.1885 16.9532 16.6436 16.6514 17.0381C16.6079 17.0951 16.5623 17.1504 16.5166 17.2051C16.5684 17.2399 16.6215 17.2746 16.6758 17.3076C17.0834 17.5502 17.5659 17.7342 18.1221 17.8574L18.3887 17.917L18.1953 18.1104C18.1462 18.1595 18.0889 18.2255 18.0234 18.3096L18.0225 18.3086C17.9601 18.3897 17.9018 18.4735 17.8457 18.5576C17.7897 18.6449 17.7455 18.72 17.7129 18.7822L17.6572 18.8877L17.542 18.8574C16.9985 18.7158 16.5191 18.5199 16.1064 18.2686L15.9336 18.1572C15.8519 18.1014 15.7724 18.0419 15.6953 17.9814C15.6185 18.0387 15.5406 18.0953 15.46 18.1484V18.1494C15.0006 18.4489 14.4758 18.6887 13.8887 18.8701L13.7588 18.9102L13.7061 18.7852C13.6847 18.7343 13.6491 18.6673 13.5967 18.584L13.5957 18.582C13.5451 18.4998 13.4907 18.4157 13.4336 18.3301V18.3291C13.3786 18.2498 13.329 18.1863 13.2861 18.1377L13.123 17.9531L13.3613 17.8926C13.8996 17.7564 14.3679 17.57 14.7676 17.3359C14.827 17.3009 14.8848 17.2641 14.9414 17.2266C14.8945 17.1666 14.8478 17.1057 14.8037 17.043L14.8027 17.042C14.5262 16.6409 14.2907 16.1839 14.0908 15.6758H13.3555V14.6865H15.2178V13.9492H16.2451V14.6865ZM15.2139 15.6758C15.3394 15.94 15.4862 16.187 15.6602 16.4131C15.6841 16.4438 15.7104 16.474 15.7354 16.5039C15.7492 16.4866 15.7647 16.4697 15.7783 16.4521L15.8789 16.3164C16.0154 16.1226 16.1351 15.9087 16.2393 15.6758H15.2139Z" fill="black"/>
<path d="M6.48261 11.0232L8.25038 12.791L6.48261 14.5588" stroke="black" stroke-width="1.5" stroke-linecap="round" stroke-linejoin="round"/>
<path d="M17.4666 9.48223L15.6988 11.25L17.4666 13.0178" stroke="black" stroke-width="1.5" stroke-linecap="round" stroke-linejoin="round"/>
</svg>
