<svg width="170" height="23" viewBox="0 0 170 23" fill="none" xmlns="http://www.w3.org/2000/svg">
<path d="M77.8648 8.89712C77.7476 8.37351 77.4819 7.96713 77.0677 7.67797C76.6613 7.381 76.1221 7.23251 75.45 7.23251C74.9811 7.23251 74.5591 7.31066 74.1839 7.46697C73.8088 7.61545 73.5158 7.81864 73.3047 8.07654C73.1016 8.33444 73.0039 8.62359 73.0117 8.94401C72.9961 9.32695 73.1484 9.65127 73.4689 9.91698C73.7971 10.1827 74.309 10.3976 75.0045 10.5617L77.0208 11.0306C78.1931 11.2885 79.0644 11.7027 79.6349 12.2732C80.2054 12.8359 80.4985 13.5705 80.5141 14.4771C80.5063 15.2429 80.2914 15.9268 79.8694 16.5285C79.4552 17.1225 78.8573 17.5875 78.0758 17.9235C77.2943 18.2517 76.3722 18.4158 75.3093 18.4158C73.7932 18.4158 72.5897 18.0915 71.6988 17.4429C70.8078 16.7942 70.2842 15.876 70.1279 14.6881H72.6835C72.8945 15.8291 73.7619 16.3996 75.2859 16.3996C76.0986 16.3996 76.7434 16.2472 77.2201 15.9424C77.7046 15.6298 77.9508 15.2039 77.9586 14.6646C77.943 14.2504 77.775 13.9066 77.4545 13.633C77.1419 13.3595 76.6535 13.1485 75.9892 13L73.9964 12.578C72.8476 12.3201 71.9762 11.8942 71.3822 11.3002C70.7961 10.7063 70.5031 9.96778 70.5031 9.08468C70.5031 8.33444 70.7062 7.67016 71.1126 7.09184C71.5268 6.51353 72.1051 6.06417 72.8476 5.74375C73.59 5.42333 74.4497 5.26312 75.4265 5.26312C76.3565 5.26312 77.1693 5.41552 77.8648 5.7203C78.5682 6.01727 79.1231 6.43929 79.5294 6.98634C79.9436 7.53339 80.1937 8.17032 80.2797 8.89712H77.8648Z" fill="white"/>
<path d="M64.2209 5.42715H66.7061V18.1579H64.2678V15.954H64.1271C63.8223 16.6652 63.3417 17.2396 62.6852 17.6772C62.0288 18.1071 61.2434 18.322 60.329 18.322C59.5006 18.322 58.7699 18.1383 58.1369 17.771C57.5039 17.4037 57.0115 16.8606 56.6598 16.1416C56.3082 15.4226 56.1323 14.5473 56.1323 13.5157V5.42715H58.641V13.2109C58.641 13.7814 58.7504 14.2816 58.9692 14.7114C59.188 15.1413 59.4889 15.4734 59.8718 15.7079C60.2626 15.9345 60.7119 16.0478 61.2199 16.0478C61.7045 16.0478 62.1773 15.9306 62.6383 15.6961C63.0994 15.4539 63.4785 15.0944 63.7754 14.6177C64.0724 14.1331 64.2209 13.547 64.2209 12.8593V5.42715Z" fill="white"/>
<path d="M52.7337 7.42013H50.1313V14.4068C50.1313 15.0554 50.2642 15.5009 50.5299 15.7432C50.8034 15.9776 51.1785 16.1027 51.6552 16.1183C51.8741 16.1183 52.2179 16.1027 52.6868 16.0714C52.7337 16.0558 52.8119 16.0479 52.9213 16.0479V18.2283C52.4524 18.2909 51.9288 18.3221 51.3505 18.3221C50.6705 18.3221 50.0492 18.1971 49.4866 17.947C48.9239 17.6969 48.4745 17.3179 48.1385 16.8099C47.8024 16.2941 47.6383 15.665 47.6461 14.9226V7.42013H45.7705V5.42729H47.6461V2.37943H50.1313V5.42729H52.7337V7.42013Z" fill="white"/>
<path d="M34.6351 18.158H32.1265V5.42724H34.5413V7.51386H34.682C34.9946 6.8105 35.4674 6.25954 36.1004 5.86097C36.7334 5.46241 37.511 5.26312 38.4332 5.26312C39.3163 5.26312 40.0822 5.44678 40.7308 5.81408C41.3795 6.17358 41.8796 6.71281 42.2313 7.4318C42.5908 8.15078 42.7706 9.02998 42.7706 10.0694V18.158H40.2854V10.3742C40.2854 9.45199 40.047 8.7291 39.5703 8.20549C39.0936 7.68188 38.4332 7.42008 37.5892 7.42008C37.0187 7.42008 36.5068 7.54512 36.0535 7.7952C35.6081 8.04528 35.2603 8.41259 35.0102 8.89712C34.7601 9.37384 34.6351 9.94434 34.6351 10.6086V18.158Z" fill="white"/>
<path d="M19.7479 22.9407C19.1852 22.9407 18.7398 22.9172 18.4115 22.8703V20.7837C18.7867 20.815 19.1618 20.8306 19.5369 20.8306C19.8573 20.8306 20.123 20.7994 20.334 20.7368C20.545 20.6743 20.7521 20.5219 20.9553 20.2797C21.1663 20.0374 21.3656 19.6662 21.5532 19.166L21.858 18.322L17.1924 5.42715H19.8651L23.0771 15.2976H23.2178L26.4298 5.42715H29.126L23.8742 19.8459C23.5069 20.8697 22.9833 21.6395 22.3034 22.1553C21.6313 22.6789 20.7795 22.9407 19.7479 22.9407Z" fill="white"/>
<path d="M7.6045 14.9928H7.79206L12.5045 1.18359H15.2945L9.17532 18.1579H6.19779L0.102051 1.18359H2.89202L7.6045 14.9928Z" fill="white"/>
<path d="M169.044 9.67075C169.044 11.437 168.715 12.9804 168.059 14.3012C167.402 15.6141 166.492 16.6261 165.328 17.3373C164.171 18.0407 162.862 18.3923 161.4 18.3923C159.923 18.3923 158.603 18.0407 157.438 17.3373C156.282 16.6261 155.375 15.6141 154.719 14.3012C154.062 12.9804 153.734 11.437 153.734 9.67075C153.734 7.89674 154.062 6.35326 154.719 5.04034C155.375 3.71959 156.282 2.70754 157.438 2.00419C158.603 1.30083 159.923 0.949158 161.4 0.949158C162.862 0.949158 164.171 1.30083 165.328 2.00419C166.492 2.70754 167.402 3.71959 168.059 5.04034C168.715 6.35326 169.044 7.89674 169.044 9.67075ZM166.488 9.67075C166.488 8.32656 166.269 7.17775 165.832 6.22432C165.394 5.27088 164.788 4.54799 164.015 4.05564C163.249 3.56329 162.377 3.31712 161.4 3.31712C160.416 3.31712 159.537 3.56329 158.763 4.05564C157.989 4.54799 157.384 5.27088 156.946 6.22432C156.508 7.17775 156.289 8.32656 156.289 9.67075C156.289 11.0149 156.508 12.1638 156.946 13.1172C157.384 14.0706 157.989 14.7935 158.763 15.2859C159.537 15.7782 160.416 16.0244 161.4 16.0244C162.377 16.0244 163.249 15.7782 164.015 15.2859C164.788 14.7935 165.394 14.0706 165.832 13.1172C166.269 12.1559 166.488 11.0071 166.488 9.67075Z" fill="white"/>
<path d="M149.867 18.1579H147.499L138.894 5.75546H138.754V18.1579H136.175V1.18365H138.566L147.171 13.6096H147.335V1.18365H149.867V18.1579Z" fill="white"/>
<path d="M121.405 1.18365H132.049V3.41094H123.984V8.54543H131.487V10.7493H123.984V15.9307H132.143V18.1579H121.405V1.18365Z" fill="white"/>
<path d="M107.034 1.18365H117.561V3.41094H109.613V8.54543H116.811V10.7493H109.613V18.1579H107.034V1.18365Z" fill="white"/>
<path d="M91.2761 0.826538L93.4801 6.22608H93.5668L95.7709 0.826538H97.0606V7.79493H96.05V2.76113H95.9826L93.9421 7.7853H93.1048L91.0547 2.75151H90.9969V7.79493H89.9863V0.826538H91.2761Z" fill="white"/>
<path d="M83.0161 0.826508H88.4157V1.74087H86.2501V7.7949H85.1913V1.74087H83.0161V0.826508Z" fill="white"/>
</svg>
