<svg width="24" height="24" viewBox="0 0 24 24" fill="none" xmlns="http://www.w3.org/2000/svg">
<path d="M11.5283 11.4619C11.3187 11.6215 11.1294 11.8137 10.9688 12.0361L10.9463 12.0674L10.9248 12.1006L10.8555 12.208L10.835 12.2393L10.8164 12.2725L10.3096 13.1494C7.12108 13.9112 4.75 16.7774 4.75 20.1992C4.74987 20.6133 4.41413 20.9492 4 20.9492C3.58587 20.9492 3.25013 20.6133 3.25 20.1992C3.25 15.525 6.91515 11.707 11.5283 11.4619ZM12 2.99609C14.1297 2.99623 15.8571 4.72285 15.8574 6.85254C15.8574 8.0264 15.3315 9.07662 14.5039 9.78418C14.1006 9.91621 13.7384 10.1392 13.4414 10.4287C12.9958 10.6086 12.5099 10.7099 12 10.71C9.87012 10.7098 8.14355 8.98245 8.14355 6.85254C8.14383 4.72286 9.87029 2.99623 12 2.99609ZM12 4.49609C10.6987 4.49623 9.64383 5.55128 9.64355 6.85254C9.64355 8.15402 10.6985 9.20982 12 9.20996C13.3015 9.20983 14.3574 8.15403 14.3574 6.85254C14.3571 5.55128 13.3013 4.49623 12 4.49609Z" fill="black"/>
<path d="M16.6025 11.1504C17.2926 11.1507 17.8524 11.7103 17.8525 12.4004V12.5459C17.9058 12.5752 17.9582 12.6061 18.0098 12.6377L18.1367 12.5645L18.251 12.5059C18.7901 12.2644 19.4289 12.4358 19.7744 12.915L19.8438 13.0225L20.4834 14.1289C20.8288 14.7269 20.6226 15.4918 20.0244 15.8369L19.8994 15.9092C19.9002 15.9395 19.9023 15.9703 19.9023 16.001L19.8994 16.0918L20.0264 16.165C20.6235 16.5103 20.8279 17.2745 20.4834 17.8721L19.8438 18.9795C19.4984 19.5775 18.7336 19.7821 18.1357 19.4365L18.0098 19.3633C17.9582 19.3948 17.9057 19.4259 17.8525 19.4551V19.6016C17.8525 20.2918 17.2927 20.8513 16.6025 20.8516H15.3242C14.6339 20.8516 14.0742 20.2919 14.0742 19.6016V19.4551C14.0205 19.4256 13.9672 19.3951 13.915 19.3633L13.79 19.4365C13.1922 19.7823 12.4274 19.5776 12.082 18.9795L11.4434 17.873C11.0985 17.2756 11.3023 16.5115 11.8994 16.166L12.0264 16.0918L12.0244 16.001C12.0244 15.9704 12.0257 15.9396 12.0264 15.9092L11.9004 15.8369C11.3028 15.4917 11.0984 14.7276 11.4434 14.1299L12.082 13.0225L12.1514 12.915C12.4973 12.4358 13.1366 12.2645 13.6758 12.5068L13.7891 12.5654L13.9141 12.6377C13.9665 12.6057 14.0202 12.5745 14.0742 12.5449V12.4004C14.0744 11.7102 14.634 11.1504 15.3242 11.1504H16.6025ZM15.5742 12.6777C15.5741 13.21 15.2451 13.6275 14.8525 13.8291C14.7796 13.8665 14.7082 13.9077 14.6396 13.9521C14.2685 14.1928 13.7417 14.269 13.2803 14.0029L13.2559 13.9883L12.8662 14.6631L12.8906 14.6768C13.3506 14.9425 13.5487 15.4351 13.5273 15.876C13.5253 15.917 13.5244 15.9591 13.5244 16.001L13.5273 16.126C13.5489 16.5666 13.3511 17.0591 12.8916 17.3252L12.8662 17.3389L13.2549 18.0127L13.2793 17.999L13.3662 17.9531C13.8058 17.7424 14.2913 17.8232 14.6396 18.0488C14.7082 18.0933 14.7795 18.1344 14.8525 18.1719C15.2452 18.3734 15.574 18.7911 15.5742 19.3232V19.3516H16.3525V19.3232C16.3527 18.7909 16.6816 18.3735 17.0732 18.1719L17.2852 18.0498L17.4307 17.9668C17.7617 17.8064 18.1776 17.7703 18.5586 17.9531L18.6455 17.999L18.6689 18.0127L19.0586 17.3379L19.0342 17.3242C18.5729 17.0579 18.3755 16.5639 18.3994 16.1211L18.4023 16.001C18.4023 15.9609 18.4016 15.9202 18.3994 15.8799C18.3758 15.4369 18.5735 14.9428 19.0352 14.6768L19.0586 14.6621L18.6699 13.9883L18.6445 14.0039C18.1834 14.2696 17.6566 14.1934 17.2852 13.9521C17.2168 13.9077 17.1457 13.8665 17.0732 13.8291C16.6816 13.6274 16.3526 13.2102 16.3525 12.6777V12.6504H15.5742V12.6777ZM15.9629 14.1123C17.0059 14.1125 17.8523 14.958 17.8525 16.001C17.8525 17.044 17.006 17.8904 15.9629 17.8906C14.9198 17.8905 14.0743 17.044 14.0742 16.001C14.0744 14.958 14.9198 14.1124 15.9629 14.1123ZM15.9629 15.6123C15.7484 15.6124 15.5744 15.7863 15.5742 16.001C15.5743 16.2157 15.7483 16.3905 15.9629 16.3906C16.1774 16.3904 16.3525 16.2157 16.3525 16.001C16.3523 15.7863 16.1774 15.6125 15.9629 15.6123Z" fill="black"/>
</svg>
