<svg width="24" height="24" viewBox="0 0 24 24" fill="none" xmlns="http://www.w3.org/2000/svg">
<path d="M11.1907 20.3665C11.1907 16.2851 7.88211 12.9766 3.80078 12.9766" stroke="black" stroke-width="1.5" stroke-linecap="round"/>
<path d="M6.11037 20.3467V21.0967H7.61037V20.3467H6.86037H6.11037ZM3.78125 16.5176C3.36704 16.5176 3.03125 16.8534 3.03125 17.2676C3.03125 17.6818 3.36704 18.0176 3.78125 18.0176V17.2676V16.5176ZM3.78125 17.2676V18.0176C5.06759 18.0176 6.11037 19.0604 6.11037 20.3467H6.86037H7.61037C7.61037 18.2319 5.89602 16.5176 3.78125 16.5176V17.2676Z" fill="black"/>
<path d="M17.873 21.0967H15.4062C14.9922 21.0965 14.6562 20.7608 14.6562 20.3467C14.6562 19.9326 14.9922 19.5969 15.4062 19.5967H16.373L17.873 21.0967ZM19.2344 3.1543C20.2009 3.1543 20.9844 3.9378 20.9844 4.9043V13.9824C20.9842 14.9488 20.2008 15.7324 19.2344 15.7324H18.8721L17.3721 14.2324H19.2344C19.3724 14.2324 19.4842 14.1204 19.4844 13.9824V4.9043C19.4844 4.76623 19.3724 4.6543 19.2344 4.6543H7.79395L6.3457 3.20605C6.4803 3.17286 6.6208 3.15433 6.76562 3.1543H19.2344Z" fill="black"/>
<path d="M3.31928 3.36225C3.61217 3.06935 4.08693 3.06935 4.37983 3.36225L20.6796 19.6621C20.9725 19.9549 20.9725 20.4297 20.6796 20.7226C20.3867 21.0155 19.912 21.0155 19.6191 20.7226L3.31928 4.4228C3.02639 4.1299 3.02639 3.65514 3.31928 3.36225Z" fill="black"/>
</svg>
