<svg width="24" height="24" viewBox="0 0 24 24" fill="none" xmlns="http://www.w3.org/2000/svg">
<path d="M10.1973 2.25C14.4977 2.25 18.0269 5.54064 18.4102 9.74121C18.0437 9.55899 17.6308 9.45609 17.1934 9.45605H16.8643C16.8238 9.19947 16.7701 8.94748 16.7021 8.70117C16.7006 8.70118 16.6988 8.70215 16.6973 8.70215H13.627C13.6878 9.2697 13.7211 9.83929 13.7295 10.4092C13.6354 10.5181 13.5491 10.634 13.4727 10.7568C13.0363 10.7708 12.608 10.8879 12.2256 11.0986C12.2439 10.2988 12.2082 9.49818 12.1152 8.70215H8.30762C8.17004 9.88055 8.15531 11.0692 8.26172 12.25H11.1074L10.4844 13.3291C10.4056 13.4658 10.3411 13.6069 10.2881 13.75H8.46094C8.57125 14.3645 8.71501 14.9745 8.89258 15.5771L9.36914 17.1973C9.61506 17.2274 9.86485 17.2438 10.1182 17.2471C10.1077 17.7314 10.2243 18.2245 10.4844 18.6748L10.5225 18.7412C10.4145 18.7454 10.3062 18.75 10.1973 18.75C5.64096 18.7499 1.94727 15.0563 1.94727 10.5C1.94733 5.94372 5.641 2.25013 10.1973 2.25ZM4.28027 13.75C5.02714 15.1069 6.22749 16.1778 7.67676 16.7617L7.45312 16.002C7.23457 15.2602 7.06624 14.5077 6.94141 13.75H4.28027ZM3.69141 8.70117C3.53337 9.274 3.44728 9.87693 3.44727 10.5C3.44727 11.1054 3.52828 11.6918 3.67773 12.25H6.75488C6.65707 11.069 6.66945 9.88113 6.7959 8.70215H3.69727C3.69531 8.70215 3.69336 8.70119 3.69141 8.70117ZM17.4375 10.9795L17.4453 10.9814C17.4263 10.9775 17.407 10.9747 17.3877 10.9717C17.4044 10.9743 17.4211 10.9762 17.4375 10.9795ZM7.81152 4.18457C6.31915 4.74867 5.07965 5.82632 4.30762 7.20215H7.02051C7.13542 6.59734 7.2781 5.99634 7.45312 5.40234L7.81152 4.18457ZM10.1973 3.75C9.9548 3.75001 9.71535 3.76315 9.47949 3.78809C9.47461 3.82995 9.46836 3.87227 9.45605 3.91406L8.89258 5.82715C8.7587 6.28155 8.64643 6.74066 8.55078 7.20215H11.873C11.7774 6.74065 11.6651 6.28156 11.5312 5.82715L10.9678 3.91406C10.9558 3.87348 10.9473 3.83265 10.9424 3.79199C10.6977 3.76512 10.4491 3.75 10.1973 3.75ZM12.9707 5.40234C13.1457 5.99634 13.2884 6.59734 13.4033 7.20215H16.0869C15.3204 5.83624 14.0932 4.76461 12.6152 4.19727L12.9707 5.40234Z" fill="black"/>
<g clip-path="url(#clip0_316_708)">
<path d="M17.1934 10.957C17.8837 10.957 18.4434 11.5167 18.4434 12.207V12.4033C18.5116 12.4401 18.5787 12.479 18.6445 12.5195L18.8164 12.4209L18.9307 12.3623C19.4699 12.1206 20.1085 12.2921 20.4541 12.7715L20.5234 12.8789L21.2168 14.0801C21.5619 14.6782 21.3562 15.4433 20.7578 15.7881L20.5879 15.8857C20.5891 15.9244 20.5918 15.9638 20.5918 16.0029L20.5879 16.1201L20.7588 16.2188C21.3567 16.564 21.5621 17.3289 21.2168 17.9268L20.5234 19.126C20.178 19.7237 19.4132 19.9284 18.8154 19.583L18.6445 19.4834C18.5787 19.5241 18.5117 19.5635 18.4434 19.6006V19.7988C18.4431 20.489 17.8836 21.0488 17.1934 21.0488H15.8066C15.1164 21.0488 14.5569 20.489 14.5566 19.7988V19.6006C14.4882 19.5635 14.4205 19.5251 14.3545 19.4844L14.1846 19.583C13.5868 19.9287 12.8221 19.7238 12.4766 19.126L11.7832 17.9258C11.4382 17.3284 11.6423 16.5644 12.2393 16.2188L12.4121 16.1182L12.4092 16.0029C12.4092 15.9639 12.411 15.9246 12.4121 15.8857L12.2412 15.7881C11.6432 15.4431 11.4382 14.6781 11.7832 14.0801L12.4766 12.8789L12.5459 12.7715C12.8918 12.292 13.531 12.1208 14.0703 12.3633L14.1836 12.4219L14.3555 12.5205C14.4213 12.4799 14.4884 12.4412 14.5566 12.4043V12.207C14.5566 11.5167 15.1163 10.957 15.8066 10.957H17.1934ZM16.0566 12.5381C16.0564 13.0698 15.7279 13.4894 15.3311 13.6904C15.2457 13.7337 15.1627 13.7818 15.083 13.834C14.7102 14.0779 14.1824 14.1524 13.7217 13.8867L13.6494 13.8447L13.2061 14.6133L13.2773 14.6543C13.7373 14.9199 13.9369 15.4131 13.9131 15.8574C13.9105 15.9052 13.9092 15.9541 13.9092 16.0029L13.9131 16.1475C13.937 16.5915 13.7375 17.0849 13.2783 17.3506L13.2061 17.3916L13.6494 18.1592L13.7197 18.1191L13.8066 18.0732C14.1876 17.8905 14.6035 17.9268 14.9355 18.0889L15.083 18.1719L15.2051 18.2471C15.2463 18.2709 15.2884 18.2938 15.3311 18.3154C15.7279 18.5166 16.0565 18.936 16.0566 19.4678V19.5488H16.9434V19.4678C16.9435 18.9359 17.2718 18.5166 17.668 18.3154C17.7532 18.2722 17.8362 18.2242 17.916 18.1719C18.2663 17.9421 18.7529 17.8624 19.1924 18.0732L19.2793 18.1191L19.3486 18.1592L19.792 17.3916L19.7217 17.3516C19.261 17.0857 19.0617 16.5909 19.0879 16.1445L19.0918 16.0029C19.0918 15.956 19.0906 15.9085 19.0879 15.8613C19.0617 15.4148 19.2614 14.9201 19.7227 14.6543L19.793 14.6133L19.3496 13.8447L19.2783 13.8867C18.8176 14.1521 18.2904 14.0762 17.918 13.833C17.8384 13.7811 17.7553 13.7336 17.6699 13.6904C17.2724 13.4895 16.9437 13.0698 16.9434 12.5381V12.457H16.0566V12.5381ZM16.5 14.0596C17.5733 14.0596 18.4434 14.9297 18.4434 16.0029C18.4432 17.0761 17.5732 17.9463 16.5 17.9463C15.4268 17.9462 14.5568 17.0761 14.5566 16.0029C14.5566 14.9297 15.4268 14.0596 16.5 14.0596ZM16.5 15.5596C16.2552 15.5596 16.0566 15.7581 16.0566 16.0029C16.0568 16.2476 16.2553 16.4462 16.5 16.4463C16.7448 16.4463 16.9432 16.2477 16.9434 16.0029C16.9434 15.7581 16.7448 15.5596 16.5 15.5596Z" fill="black"/>
</g>
<defs>
<clipPath id="clip0_316_708">
<rect width="12" height="12" fill="white" transform="translate(10.5 10.002)"/>
</clipPath>
</defs>
</svg>
