<svg width="24" height="24" viewBox="0 0 24 24" fill="none" xmlns="http://www.w3.org/2000/svg">
<path d="M11.1907 20.2708C11.1907 16.1894 7.88211 12.8809 3.80078 12.8809" stroke="black" stroke-width="1.5" stroke-linecap="round"/>
<path d="M6.86037 20.251C6.86037 18.5504 5.4818 17.1719 3.78125 17.1719" stroke="black" stroke-width="1.5" stroke-linecap="round"/>
<path d="M13.9453 14.9824H19.2344C19.7867 14.9824 20.2344 14.5347 20.2344 13.9824V4.9043C20.2344 4.35201 19.7867 3.9043 19.2344 3.9043H6.76563C6.21334 3.9043 5.76562 4.35201 5.76562 4.9043V8.7583" stroke="black" stroke-width="1.5" stroke-linecap="round"/>
<path d="M20.25 19.5C20.6642 19.5 21 19.8358 21 20.25C21 20.6642 20.6642 21 20.25 21H15.4062C14.992 21 14.6562 20.6642 14.6562 20.25C14.6562 19.8358 14.992 19.5 15.4062 19.5H20.25Z" fill="black"/>
</svg>
