<svg width="16" height="16" viewBox="0 0 16 16" fill="none" xmlns="http://www.w3.org/2000/svg">
<path d="M7.24268 13.1244C7.53558 13.4172 8.01036 13.4173 8.30322 13.1244C8.59587 12.8315 8.59596 12.3567 8.30322 12.0638L3.88916 7.64978L8.30615 3.23279C8.59905 2.93989 8.59905 2.46513 8.30615 2.17224C8.01325 1.87945 7.53846 1.87938 7.24561 2.17224L2.29834 7.11951C2.02378 7.39407 2.00639 7.82883 2.24658 8.12341L2.29834 8.18005L7.24268 13.1244Z" fill="black"/>
<path d="M13.1865 13.1241C13.4794 13.417 13.9542 13.417 14.2471 13.1241C14.5396 12.8312 14.5398 12.3564 14.2471 12.0636L9.83301 7.65051L14.25 3.23254C14.5429 2.93965 14.5429 2.46489 14.25 2.172C13.9571 1.87921 13.4823 1.87914 13.1895 2.172L8.24219 7.11926C7.96763 7.39382 7.95026 7.82859 8.19043 8.12317L8.24219 8.18079L13.1865 13.1241Z" fill="black"/>
</svg>
