<svg width="16" height="16" viewBox="0 0 16 16" fill="none" xmlns="http://www.w3.org/2000/svg">
<path d="M8.75732 13.1243C8.46442 13.4171 7.98964 13.4172 7.69678 13.1243C7.40413 12.8314 7.40404 12.3566 7.69678 12.0638L12.1108 7.64972L7.69385 3.23273C7.40095 2.93983 7.40095 2.46507 7.69385 2.17218C7.98675 1.87939 8.46154 1.87932 8.75439 2.17218L13.7017 7.11945C13.9762 7.39401 13.9936 7.82877 13.7534 8.12335L13.7017 8.17999L8.75732 13.1243Z" fill="black"/>
<path d="M2.81372 13.125C2.52087 13.4175 2.04597 13.4176 1.75317 13.125C1.4603 12.8321 1.46035 12.3564 1.75317 12.0635L6.16724 7.65039L1.75024 3.23242C1.45735 2.93953 1.45735 2.46477 1.75024 2.17188C2.04316 1.8793 2.518 1.87909 2.81079 2.17188L7.75806 7.12012C8.03233 7.39462 8.04974 7.82855 7.80981 8.12305L7.75806 8.18066L2.81372 13.125Z" fill="black"/>
</svg>
