<svg width="24" height="24" viewBox="0 0 24 24" fill="none" xmlns="http://www.w3.org/2000/svg">
<path d="M12 3C14.0711 3 15.75 4.67893 15.75 6.75V8H16C16.9665 8 17.75 8.7835 17.75 9.75V13.4688H16.25V9.75C16.25 9.61193 16.1381 9.5 16 9.5H8C7.86193 9.5 7.75 9.61193 7.75 9.75V13.4688H6.25V9.75C6.25 8.7835 7.0335 8 8 8H8.25V6.75C8.25 4.67893 9.92893 3 12 3ZM12.0654 11C12.6176 11 13.0653 11.4478 13.0654 12C13.0654 12.2532 12.9706 12.484 12.8154 12.6602V13.4688H11.3154V12.6602C11.1603 12.484 11.0654 12.2532 11.0654 12C11.0656 11.4479 11.5133 11.0001 12.0654 11ZM12 4.5C10.7574 4.5 9.75 5.50736 9.75 6.75V8H14.25V6.75C14.25 5.50736 13.2426 4.5 12 4.5Z" fill="black"/>
<rect x="3.75" y="14.2188" width="16.5" height="6" rx="0.8" stroke="black" stroke-width="1.5"/>
<path d="M6.92871 15.7188C7.20477 15.7189 7.42871 15.9427 7.42871 16.2188V16.3594L7.55078 16.2891C7.78986 16.151 8.09528 16.2327 8.2334 16.4717C8.37147 16.7108 8.28993 17.0172 8.05078 17.1553L7.93262 17.2227L8.04688 17.2891C8.28576 17.4272 8.36747 17.7326 8.22949 17.9717C8.0915 18.2107 7.78596 18.293 7.54688 18.1553L7.42871 18.0869V18.2188C7.42851 18.4947 7.20464 18.7186 6.92871 18.7188C6.65269 18.7188 6.42891 18.4947 6.42871 18.2188V18.0908L6.31836 18.1553C6.07926 18.2931 5.77375 18.2107 5.63574 17.9717C5.49773 17.7326 5.57942 17.4272 5.81836 17.2891L5.93164 17.2227L5.81445 17.1553C5.57531 17.0172 5.49376 16.7108 5.63184 16.4717C5.76997 16.2327 6.07538 16.151 6.31445 16.2891L6.42871 16.3545V16.2188C6.42871 15.9426 6.65257 15.7188 6.92871 15.7188Z" fill="black"/>
<path d="M10.2646 15.7188C10.5407 15.7188 10.7646 15.9426 10.7646 16.2188V16.3594L10.8867 16.2891C11.1258 16.151 11.4312 16.2327 11.5693 16.4717C11.7074 16.7108 11.6259 17.0172 11.3867 17.1553L11.2686 17.2227L11.3828 17.2891C11.6217 17.4272 11.7034 17.7326 11.5654 17.9717C11.4274 18.2107 11.1219 18.2931 10.8828 18.1553L10.7646 18.0869V18.2188C10.7645 18.4947 10.5406 18.7187 10.2646 18.7188C9.98863 18.7188 9.76485 18.4947 9.76465 18.2188V18.0908L9.6543 18.1553C9.41521 18.293 9.10967 18.2107 8.97168 17.9717C8.8337 17.7326 8.91541 17.4272 9.1543 17.2891L9.26758 17.2227L9.15039 17.1553C8.91124 17.0172 8.8297 16.7108 8.96777 16.4717C9.10589 16.2327 9.41131 16.151 9.65039 16.2891L9.76465 16.3545V16.2188C9.76465 15.9426 9.98851 15.7188 10.2646 15.7188Z" fill="black"/>
<path d="M13.6006 15.7188C13.8766 15.7189 14.1006 15.9427 14.1006 16.2188V16.3594L14.2227 16.2891C14.4617 16.151 14.7672 16.2327 14.9053 16.4717C15.0433 16.7108 14.9618 17.0172 14.7227 17.1553L14.6045 17.2227L14.7188 17.2891C14.9576 17.4272 15.0393 17.7326 14.9014 17.9717C14.7634 18.2107 14.4578 18.293 14.2188 18.1553L14.1006 18.0869V18.2188C14.1004 18.4947 13.8765 18.7186 13.6006 18.7188C13.3246 18.7188 13.1008 18.4947 13.1006 18.2188V18.0908L12.9902 18.1553C12.7511 18.2931 12.4456 18.2107 12.3076 17.9717C12.1696 17.7326 12.2513 17.4272 12.4902 17.2891L12.6035 17.2227L12.4863 17.1553C12.2472 17.0172 12.1656 16.7108 12.3037 16.4717C12.4418 16.2327 12.7473 16.151 12.9863 16.2891L13.1006 16.3545V16.2188C13.1006 15.9426 13.3244 15.7188 13.6006 15.7188Z" fill="black"/>
<path d="M16.9365 15.7188C17.2126 15.7188 17.4365 15.9426 17.4365 16.2188V16.3594L17.5586 16.2891C17.7977 16.151 18.1031 16.2327 18.2412 16.4717C18.3793 16.7108 18.2977 17.0172 18.0586 17.1553L17.9404 17.2227L18.0547 17.2891C18.2936 17.4272 18.3753 17.7326 18.2373 17.9717C18.0993 18.2107 17.7938 18.2931 17.5547 18.1553L17.4365 18.0869V18.2188C17.4363 18.4947 17.2125 18.7187 16.9365 18.7188C16.6605 18.7188 16.4367 18.4947 16.4365 18.2188V18.0908L16.3262 18.1553C16.0871 18.293 15.7815 18.2107 15.6436 17.9717C15.5056 17.7326 15.5873 17.4272 15.8262 17.2891L15.9395 17.2227L15.8223 17.1553C15.5831 17.0172 15.5016 16.7108 15.6396 16.4717C15.7778 16.2327 16.0832 16.151 16.3223 16.2891L16.4365 16.3545V16.2188C16.4365 15.9426 16.6604 15.7188 16.9365 15.7188Z" fill="black"/>
</svg>
