<svg width="80" height="80" viewBox="0 0 80 80" fill="none" xmlns="http://www.w3.org/2000/svg">
<rect width="80" height="80" rx="8" fill="#F7F7F7"/>
<rect width="5.97333" height="8.21333" rx="2.98667" transform="matrix(-1 0 0 1 38.0537 13.8)" stroke="#999999" stroke-width="2.5"/>
<path d="M26.6668 43.6667C26.6668 43.6667 27.2735 33.7077 27.4135 31.6872C27.5535 29.6667 28.8572 27.2867 30.2684 26.26C31.4745 25.3826 33.1849 24.8133 35.0665 24.8133C36.9481 24.8133 38.5944 25.42 39.8645 26.26C41.3309 27.2299 42.5801 29.7133 42.7201 31.6872C42.8601 33.661 43.4668 43.6667 43.4668 43.6667" stroke="#999999" stroke-width="2.5" stroke-linecap="round" stroke-linejoin="round"/>
<path d="M30.7734 44.3867L32.8595 65.9467H37.2741L39.3601 44.3867" stroke="#999999" stroke-width="2.5" stroke-linecap="round" stroke-linejoin="round"/>
<rect width="5.6" height="7.65333" rx="2.8" transform="matrix(-1 0 0 1 48.9736 17.3067)" stroke="#999999" stroke-width="2.5"/>
<path d="M54.0137 45.4933C54.0137 45.4933 53.4484 36.1811 53.3179 34.3441C53.1875 32.5071 52.0235 30.1957 50.6571 29.2931C49.4736 28.5113 47.9396 27.9467 46.1863 27.9467C45.3221 27.9467 44.4966 28.0754 43.747 28.3038" stroke="#999999" stroke-width="2.5" stroke-linecap="round" stroke-linejoin="round"/>
<path d="M42.1602 46.3466L44.1101 65.9466H48.2368L50.1868 46.3466" stroke="#999999" stroke-width="2.5" stroke-linecap="round" stroke-linejoin="round"/>
</svg>
