<svg width="24" height="24" viewBox="0 0 24 24" fill="none" xmlns="http://www.w3.org/2000/svg">
<path d="M12 2.25C14.9258 2.25 17.5492 3.53969 19.3359 5.5791V3.04688C19.3359 2.63266 19.6717 2.29688 20.0859 2.29688C20.5002 2.29688 20.8359 2.63266 20.8359 3.04688V8.04688C20.8359 8.46109 20.5002 8.79688 20.0859 8.79688H15.0859C14.6717 8.79688 14.3359 8.46109 14.3359 8.04688C14.3359 7.63266 14.6717 7.29688 15.0859 7.29688H18.7773C17.2867 5.15274 14.8071 3.75 12 3.75C7.44365 3.75 3.75 7.44365 3.75 12C3.75 16.5563 7.44365 20.25 12 20.25C16.5563 20.25 20.25 16.5563 20.25 12C20.25 11.5858 20.5858 11.25 21 11.25C21.4142 11.25 21.75 11.5858 21.75 12C21.75 17.3848 17.3848 21.75 12 21.75C6.61522 21.75 2.25 17.3848 2.25 12C2.25 6.61522 6.61522 2.25 12 2.25Z" fill="black"/>
</svg>
