<svg width="24" height="24" viewBox="0 0 24 24" fill="none" xmlns="http://www.w3.org/2000/svg">
<path d="M18.5363 19H2.75195V5H7.46226L9.69199 6.27569H19.252V8.52832" stroke="black" stroke-width="1.5" stroke-linecap="round" stroke-linejoin="round"/>
<path d="M20.8988 10.1503L21.25 8.73047H5.39286L2.75 19.0305H18.6071L18.9684 17.573" stroke="black" stroke-width="1.5" stroke-linecap="round" stroke-linejoin="round"/>
<path d="M21.0684 13.125C21.0098 12.9238 20.9014 12.7666 20.7432 12.6533C20.5869 12.5381 20.3945 12.4805 20.166 12.4805C19.9473 12.4805 19.7549 12.5352 19.5889 12.6445C19.4229 12.7539 19.2939 12.9141 19.2021 13.125C19.1104 13.334 19.0645 13.584 19.0645 13.875C19.0645 14.1699 19.1094 14.4229 19.1992 14.6338C19.291 14.8447 19.4199 15.0059 19.5859 15.1172C19.752 15.2266 19.9473 15.2812 20.1719 15.2812C20.3711 15.2812 20.543 15.2461 20.6875 15.1758C20.834 15.1035 20.9463 15.001 21.0244 14.8682C21.1045 14.7354 21.1465 14.5801 21.1504 14.4023H20.2305V13.7402H22V14.2676C22 14.6328 21.9219 14.9512 21.7656 15.2227C21.6113 15.4922 21.3955 15.6992 21.1182 15.8438C20.8408 15.9883 20.5234 16.0605 20.166 16.0605C19.7715 16.0605 19.4229 15.9727 19.1201 15.7969C18.8193 15.6191 18.585 15.3672 18.417 15.041C18.251 14.7129 18.168 14.3281 18.168 13.8867C18.168 13.4395 18.2539 13.0508 18.4258 12.7207C18.5977 12.3906 18.834 12.1387 19.1348 11.9648C19.4355 11.7891 19.7734 11.7012 20.1484 11.7012C20.4629 11.7012 20.75 11.7617 21.0098 11.8828C21.2715 12.002 21.4854 12.1699 21.6514 12.3867C21.8174 12.6016 21.9199 12.8477 21.959 13.125H21.0684Z" fill="black"/>
<path d="M17.6172 13.8809C17.6172 14.3301 17.5312 14.7197 17.3594 15.0498C17.1875 15.3779 16.9512 15.6289 16.6504 15.8027C16.3516 15.9746 16.0137 16.0605 15.6367 16.0605C15.2578 16.0605 14.918 15.9736 14.6172 15.7998C14.3164 15.626 14.0801 15.375 13.9082 15.0469C13.7363 14.7168 13.6504 14.3281 13.6504 13.8809C13.6504 13.4316 13.7363 13.043 13.9082 12.7148C14.0801 12.3848 14.3164 12.1338 14.6172 11.9619C14.918 11.7881 15.2578 11.7012 15.6367 11.7012C16.0137 11.7012 16.3516 11.7881 16.6504 11.9619C16.9512 12.1338 17.1875 12.3848 17.3594 12.7148C17.5312 13.043 17.6172 13.4316 17.6172 13.8809ZM16.7207 13.8809C16.7207 13.582 16.6758 13.3281 16.5859 13.1191C16.498 12.9102 16.373 12.752 16.2109 12.6445C16.0488 12.5352 15.8574 12.4805 15.6367 12.4805C15.416 12.4805 15.2236 12.5352 15.0596 12.6445C14.8975 12.752 14.7715 12.9111 14.6816 13.1221C14.5918 13.3311 14.5469 13.584 14.5469 13.8809C14.5469 14.1777 14.5918 14.4316 14.6816 14.6426C14.7715 14.8516 14.8975 15.0107 15.0596 15.1201C15.2236 15.2275 15.416 15.2812 15.6367 15.2812C15.8574 15.2812 16.0488 15.2275 16.2109 15.1201C16.373 15.0107 16.498 14.8516 16.5859 14.6426C16.6758 14.4336 16.7207 14.1797 16.7207 13.8809Z" fill="black"/>
<path d="M10.627 11.7598H11.5059V15.2754H13.334V16.002H10.627V11.7598Z" fill="black"/>
</svg>
