<svg width="24" height="24" viewBox="0 0 24 24" fill="none" xmlns="http://www.w3.org/2000/svg">
<path d="M13.5 2.25C14.4665 2.25 15.25 3.0335 15.25 4V4.77246C15.25 4.86251 15.311 4.98975 15.4658 5.06738C15.7438 5.2066 16.0121 5.36289 16.2695 5.5332C16.4134 5.62825 16.5537 5.61718 16.6318 5.57227L17.3037 5.18457C18.1405 4.70214 19.2102 4.98879 19.6934 5.8252L21.1934 8.42383C21.6766 9.26088 21.3898 10.3312 20.5527 10.8145L19.8828 11.2012C19.8049 11.2463 19.7249 11.3619 19.7354 11.5332C19.7448 11.6875 19.75 11.8431 19.75 12C19.75 12.1568 19.7448 12.3127 19.7354 12.4668C19.725 12.6375 19.8041 12.7527 19.8818 12.7979L20.5537 13.1855C21.3903 13.669 21.6765 14.7394 21.1934 15.5762L19.6934 18.1738C19.2101 19.0108 18.1397 19.2977 17.3027 18.8145L16.6328 18.4277C16.5547 18.3827 16.4138 18.3714 16.2695 18.4668C16.0118 18.6371 15.7429 18.7925 15.4648 18.9316C15.3104 19.0091 15.25 19.1365 15.25 19.2266V20C15.25 20.9665 14.4665 21.75 13.5 21.75H10.5C9.53363 21.7499 8.75 20.9664 8.75 20V19.2266C8.75 19.1364 8.68977 19.0089 8.53516 18.9316C8.25681 18.7925 7.98754 18.6373 7.72949 18.4668C7.58494 18.3714 7.44426 18.3826 7.36621 18.4277L6.69727 18.8145C5.86031 19.2977 4.78992 19.0108 4.30664 18.1738L2.80664 15.5752C2.32382 14.7385 2.60999 13.669 3.44629 13.1855L4.11719 12.7979C4.19508 12.7527 4.27389 12.6373 4.26367 12.4658C4.25445 12.3118 4.25 12.1563 4.25 12C4.25 11.8436 4.25447 11.6883 4.26367 11.5342C4.27394 11.3622 4.19427 11.2462 4.11621 11.2012L3.44727 10.8145C2.61053 10.3311 2.32355 9.26071 2.80664 8.42383L4.30664 5.82617C4.78981 4.98931 5.8603 4.70261 6.69727 5.18555L7.36621 5.57129C7.44427 5.61634 7.58504 5.62758 7.72949 5.53223C7.98753 5.36175 8.25679 5.20656 8.53516 5.06738C8.6898 4.99006 8.75 4.86259 8.75 4.77246V4C8.75 3.03359 9.53363 2.25015 10.5 2.25H13.5ZM10.5 3.75C10.3621 3.75015 10.25 3.86202 10.25 4V4.77246C10.25 5.51116 9.79274 6.11584 9.20605 6.40918C8.98161 6.5214 8.76463 6.64677 8.55664 6.78418C8.00928 7.14574 7.25627 7.24053 6.61621 6.87109L5.94727 6.48438C5.82773 6.41553 5.67446 6.45668 5.60547 6.57617L4.10547 9.17383C4.03657 9.29331 4.0779 9.44655 4.19727 9.51562L4.86719 9.90234C5.50591 10.2714 5.80073 10.9686 5.76172 11.623C5.75428 11.7476 5.75 11.8735 5.75 12C5.75 12.1263 5.75428 12.2516 5.76172 12.376C5.80088 13.0304 5.50583 13.7276 4.86719 14.0967L4.19727 14.4844C4.07805 14.5534 4.03681 14.7058 4.10547 14.8252L5.60547 17.4238C5.67448 17.5433 5.82772 17.5845 5.94727 17.5156L6.61621 17.1289C7.25638 16.7591 8.00912 16.8532 8.55664 17.2148C8.76461 17.3522 8.9816 17.4776 9.20605 17.5898C9.79277 17.8832 10.25 18.4879 10.25 19.2266V20C10.25 20.138 10.3621 20.2499 10.5 20.25H13.5C13.6381 20.25 13.75 20.1381 13.75 20V19.2266C13.75 18.488 14.2076 17.8833 14.7939 17.5898C15.0179 17.4778 15.2347 17.3531 15.4424 17.2158C15.9898 16.8539 16.7427 16.7594 17.3828 17.1289L18.0527 17.5156C18.1723 17.5846 18.3255 17.5433 18.3945 17.4238L19.8945 14.8262C19.9636 14.7066 19.9223 14.5534 19.8027 14.4844L19.1318 14.0967C18.4931 13.7275 18.1983 13.0299 18.2383 12.375C18.2459 12.2508 18.25 12.1258 18.25 12C18.25 11.874 18.2459 11.7485 18.2383 11.624C18.1984 10.9689 18.4937 10.2714 19.1328 9.90234L19.8027 9.51562C19.9223 9.4466 19.9636 9.29341 19.8945 9.17383L18.3945 6.5752C18.3255 6.45583 18.1722 6.41547 18.0527 6.48438L17.3809 6.87109C16.7412 7.23986 15.9895 7.14591 15.4424 6.78418C15.2347 6.64683 15.0178 6.52131 14.7939 6.40918C14.2079 6.1156 13.75 5.51113 13.75 4.77246V4C13.75 3.86193 13.6381 3.75 13.5 3.75H10.5ZM12 8.75C13.7949 8.75 15.25 10.2051 15.25 12C15.25 13.7949 13.7949 15.25 12 15.25C10.2052 15.2499 8.75 13.7949 8.75 12C8.75 10.2051 10.2052 8.7501 12 8.75ZM12 10.25C11.0336 10.2501 10.25 11.0336 10.25 12C10.25 12.9664 11.0336 13.7499 12 13.75C12.9665 13.75 13.75 12.9665 13.75 12C13.75 11.0335 12.9665 10.25 12 10.25Z" fill="black"/>
</svg>
