<svg width="24" height="24" viewBox="0 0 24 24" fill="none" xmlns="http://www.w3.org/2000/svg">
<path d="M19 3.9375C19.9665 3.9375 20.75 4.72198 20.75 5.68848V10.6299C20.3152 10.1511 19.8093 9.73842 19.25 9.40625V5.68848C19.25 5.55041 19.1381 5.43848 19 5.43848H5C4.86193 5.43848 4.75 5.55041 4.75 5.68848V13.249H9.6748C9.54087 13.7291 9.46101 14.2311 9.44141 14.749H3.5V15.999C3.5 16.1371 3.61193 16.249 3.75 16.249H9.55664C9.659 16.7742 9.8224 17.2773 10.043 17.749H3.75C2.7835 17.749 2 16.9655 2 15.999V13.249H3.25V5.68848C3.25 4.72198 4.0335 3.9375 5 3.9375H19Z" fill="black"/>
<circle cx="16" cy="15" r="4.5" stroke="black"/>
<circle cx="16" cy="12.5215" r="0.4375" fill="black" stroke="black" stroke-width="0.4"/>
<rect x="15.6348" y="13.834" width="0.729167" height="4.08333" rx="0.364583" fill="black" stroke="black" stroke-width="0.4"/>
</svg>
