<svg width="24" height="24" viewBox="0 0 24 24" fill="none" xmlns="http://www.w3.org/2000/svg">
<rect width="24" height="24" fill="white"/>
<path d="M12.5303 4.15234C12.7627 4.03204 13.041 4.04175 13.2646 4.17773C13.4882 4.31382 13.625 4.55661 13.625 4.81836V19.1816C13.6248 19.4433 13.4882 19.6863 13.2646 19.8223C13.0411 19.9581 12.7626 19.9678 12.5303 19.8477L6.98828 16.9756H4C3.03366 16.9756 2.25026 16.1919 2.25 15.2256V8.77441C2.25034 7.80855 3.03336 7.02441 4 7.02441H6.98828L10.6328 5.13574L12.5303 4.15234ZM16.8682 5.75C19.8465 5.75 21.9844 8.72474 21.9844 12C21.9843 15.2752 19.8465 18.25 16.8682 18.25C16.4542 18.2497 16.1182 17.914 16.1182 17.5C16.1182 17.0859 16.4542 16.7503 16.8682 16.75C18.7127 16.75 20.4843 14.7894 20.4844 12C20.4844 9.21053 18.7127 7.25 16.8682 7.25C16.4542 7.24974 16.1182 6.914 16.1182 6.5C16.1182 6.08595 16.4542 5.75026 16.8682 5.75ZM11.3223 6.46777L7.51562 8.44043C7.40913 8.49551 7.2908 8.52441 7.1709 8.52441H4C3.8624 8.52441 3.75019 8.63616 3.75 8.77441V15.2256C3.75026 15.3634 3.86209 15.4756 4 15.4756H7.1709C7.29088 15.4756 7.40908 15.5044 7.51562 15.5596L12.125 17.9482V6.05078L11.3223 6.46777ZM15.2344 7.71484C17.5154 7.71484 19.2754 9.68623 19.2754 12.001C19.2749 14.3153 17.5151 16.2861 15.2344 16.2861C14.8203 16.2861 14.4846 15.9501 14.4844 15.5361C14.4845 15.122 14.8202 14.7861 15.2344 14.7861C16.5874 14.7861 17.775 13.5898 17.7754 12.001C17.7754 10.4117 16.5876 9.21484 15.2344 9.21484C14.8203 9.21484 14.4846 8.87884 14.4844 8.46484C14.4844 8.05063 14.8202 7.71484 15.2344 7.71484Z" fill="black"/>
</svg>
