<svg width="24" height="24" viewBox="0 0 24 24" fill="none" xmlns="http://www.w3.org/2000/svg">
<rect width="24" height="24" fill="white"/>
<path d="M3.96973 3.96973C4.26262 3.67683 4.73738 3.67683 5.03027 3.96973L20.0303 18.9697C20.3231 19.2626 20.3231 19.7374 20.0303 20.0303C19.7374 20.3231 19.2626 20.3231 18.9697 20.0303L3.96973 5.03027C3.67683 4.73738 3.67683 4.26262 3.96973 3.96973ZM6.79883 9.98047V15.2861C6.79886 15.4242 6.91078 15.5361 7.04883 15.5361H10.6846C10.9552 15.5362 11.2226 15.5991 11.4648 15.7197L13.6016 16.7832L16.7227 19.9043C16.538 19.8795 16.3517 19.8283 16.1709 19.7383L10.7959 17.0625C10.7614 17.0453 10.7231 17.0362 10.6846 17.0361H7.04883C6.08235 17.0361 5.29886 16.2526 5.29883 15.2861V8.66699C5.29884 8.60672 5.30068 8.54699 5.30664 8.48828L6.79883 9.98047ZM16.1709 4.24219C17.3343 3.66299 18.7011 4.50899 18.7012 5.80859V15.5195L17.2012 14.0195V5.80859C17.2011 5.623 17.006 5.50234 16.8398 5.58496L11.5205 8.2334C11.4965 8.24536 11.4708 8.25383 11.4463 8.26465L10.0986 6.91699H10.7402C10.7788 6.91696 10.817 6.90779 10.8516 6.89062L16.1709 4.24219Z" fill="black"/>
</svg>
