<svg width="24" height="24" viewBox="0 0 24 24" fill="none" xmlns="http://www.w3.org/2000/svg">
<path d="M18.8213 14.8847C18.2479 14.8847 17.782 14.4523 17.782 13.9201L17.2752 7.87108C17.2342 7.42916 17.4185 7.0015 17.7666 6.69739C18.0533 6.4503 18.4271 6.3125 18.8213 6.3125C19.2513 6.3125 19.6711 6.47881 19.9629 6.77342C20.2548 7.06803 20.4032 7.46718 20.3674 7.86633L19.8606 13.8963C19.8606 14.4475 19.3947 14.8799 18.8213 14.8799V14.8847Z" fill="black"/>
<path d="M18.8152 17.6878C18.5593 17.6878 18.3239 17.5928 18.1396 17.4265C17.9605 17.2603 17.8633 17.037 17.8633 16.7995C17.8633 16.3103 18.2932 15.916 18.8152 15.916C19.3423 15.916 19.7671 16.315 19.7671 16.7995C19.7671 17.2888 19.3372 17.683 18.8152 17.683V17.6878Z" fill="black"/>
<path d="M8.90245 16.1922L14.1714 7.06055H3.62891L8.90245 16.1922Z" fill="black" stroke="black" stroke-width="1.5" stroke-miterlimit="10"/>
</svg>
