<svg width="24" height="24" viewBox="0 0 24 24" fill="none" xmlns="http://www.w3.org/2000/svg">
<path d="M10.8453 2.99225C15.1254 2.99225 18.5951 6.46215 18.5953 10.7422C18.5953 12.6647 17.8929 14.4219 16.7339 15.7764L20.6851 19.7276C20.978 20.0205 20.9779 20.4952 20.6851 20.7881C20.3922 21.081 19.9175 21.081 19.6246 20.7881L15.6539 16.8174C14.3323 17.865 12.6626 18.4922 10.8453 18.4922C6.56507 18.4922 3.09528 15.0225 3.09528 10.7422C3.09541 6.46215 6.56515 2.99225 10.8453 2.99225ZM10.8453 4.49225C7.39358 4.49225 4.59541 7.29058 4.59528 10.7422C4.59528 14.194 7.3935 16.9922 10.8453 16.9922C14.2971 16.9922 17.0953 14.194 17.0953 10.7422C17.0951 7.29058 14.297 4.49225 10.8453 4.49225Z" fill="black"/>
</svg>
