<svg width="24" height="24" viewBox="0 0 24 24" fill="none" xmlns="http://www.w3.org/2000/svg">
<path d="M12.6416 3.44727C13.7429 3.44747 14.6504 4.36343 14.6504 5.50586V13.9473L14.6904 13.9805V13.9922L14.8301 14.1045C15.6786 14.7852 16.1885 15.8385 16.1885 16.9316C16.1884 18.0305 15.7128 19.0553 14.8945 19.7451C14.2759 20.2643 13.4822 20.5547 12.666 20.5547C12.4913 20.5547 12.3147 20.5416 12.1406 20.5156L11.9678 20.4854C10.588 20.209 9.47311 19.0862 9.19824 17.6904V17.6885L9.1543 17.4316C8.98331 16.1486 9.47235 14.8934 10.4531 14.0996L10.458 14.0967L10.4971 14.0635L10.6318 13.9512V5.50586C10.6318 4.36331 11.5402 3.44727 12.6416 3.44727ZM12.6094 3.75879C11.6337 3.75879 10.8545 4.56503 10.8545 5.54199V13.1797L11.4902 12.5596L14.2861 9.83789L14.3994 9.72754V5.54199C14.3994 4.56979 13.5751 3.75897 12.6094 3.75879Z" fill="black" stroke="black" stroke-width="0.75"/>
<path d="M17.7149 5.2168L14.0254 8.81013V9.56892L17.933 5.764H20.2389V5.2168H17.7149Z" fill="black" stroke="black" stroke-width="1.5" stroke-miterlimit="10"/>
<path d="M5.76019 16.861H3.76172V17.4083H5.9747L11.2301 12.29V11.5312L5.76019 16.861Z" fill="black" stroke="black" stroke-width="1.5" stroke-miterlimit="10"/>
<path d="M11.2305 11.532V12.2908L14.0262 9.56934V8.81055L11.2305 11.532Z" fill="black" stroke="black" stroke-width="1.5" stroke-miterlimit="10"/>
</svg>
