<svg width="24" height="24" viewBox="0 0 24 24" fill="none" xmlns="http://www.w3.org/2000/svg">
<path d="M12.0859 2.00029C12.0568 2.00029 12.0278 2.00029 12.0001 2.00029C11.9725 2.00029 11.9434 2.00029 11.9144 2.00029C11.9144 2.00029 9.38029 1.90081 9.7961 5.41742L11.1089 15.8912C11.1089 15.8912 11.2674 16.9678 11.9972 17C11.9972 17 12.0001 17 12.0016 17C12.0016 17 12.0045 17 12.006 17C12.7358 16.9664 12.8943 15.8897 12.8943 15.8897L14.2042 5.41742C14.6185 1.90081 12.0859 2.00029 12.0859 2.00029Z" fill="black"/>
<path d="M12 19C11.1709 19 10.5 19.6718 10.5 20.5C10.5 21.3282 11.1726 22 12 22C12.8274 22 13.5 21.3282 13.5 20.5C13.5 19.6718 12.8274 19 12 19Z" fill="black"/>
</svg>
