<svg width="231" height="408" viewBox="0 0 231 408" fill="none" xmlns="http://www.w3.org/2000/svg">
<g filter="url(#filter0_d_1264_23090)">
<mask id="path-1-outside-1_1264_23090" maskUnits="userSpaceOnUse" x="5.55182" y="5.55249" width="215" height="392" fill="black">
<rect fill="white" x="5.55182" y="5.55249" width="215" height="392"/>
<path d="M112.552 6.55249C171.818 6.56762 220.244 55.3593 218.507 111.226C216.189 185.881 140.647 230.489 118.558 241.96C119.256 242.281 119.723 242.993 119.723 243.802C119.722 245.277 118.145 246.535 116.675 246.422C116.536 246.411 116.392 246.402 116.242 246.392L116.628 249.558C116.794 249.985 117.084 250.353 117.462 250.612L122.2 253.857C123.46 253.988 124.442 255.053 124.442 256.347C124.442 257.73 123.321 258.85 121.939 258.85H115.743C118.479 284.55 110.8 302.835 105.871 320.725C103.184 330.478 101.28 340.152 102.054 351.079C102.826 361.995 106.284 377.502 114.546 392.48C115.153 393.581 114.753 394.965 113.652 395.572C112.552 396.179 111.167 395.779 110.56 394.678C102.036 379.226 98.3398 363.083 97.5128 351.4C96.6865 339.728 98.7372 329.481 101.482 319.516C106.574 301.036 113.938 283.655 111.165 258.85H103.276C101.894 258.85 100.773 257.73 100.773 256.347C100.773 256.334 100.773 256.321 100.773 256.307C100.775 256.167 100.789 256.027 100.816 255.888C100.981 255.003 101.61 254.284 102.441 253.989L107.228 250.585C107.567 250.343 107.833 250.012 107.998 249.629L108.529 246.422C107.062 246.527 105.494 245.274 105.493 243.802C105.493 243.016 105.934 242.321 106.6 241.988C84.579 230.562 8.91758 185.941 6.59772 111.226C4.8605 55.3595 53.2856 6.56788 112.552 6.55249Z"/>
</mask>
<path d="M112.552 6.55249L112.552 5.55249L112.552 5.55249L112.552 6.55249ZM218.507 111.226L217.507 111.195V111.195L218.507 111.226ZM118.558 241.96L118.097 241.072L118.14 242.868L118.558 241.96ZM119.723 243.802L120.723 243.803V243.802H119.723ZM116.675 246.422L116.751 245.425H116.751L116.675 246.422ZM116.242 246.392L116.307 245.394L115.25 246.513L116.242 246.392ZM116.628 249.558L115.635 249.679L115.696 249.921L116.628 249.558ZM117.462 250.612L116.897 251.437L116.897 251.437L117.462 250.612ZM122.2 253.857L121.635 254.682L122.097 254.852L122.2 253.857ZM124.442 256.347L125.442 256.348V256.347L124.442 256.347ZM121.939 258.85V259.85H121.939L121.939 258.85ZM115.743 258.85V257.85L114.749 258.956L115.743 258.85ZM105.871 320.725L104.907 320.46V320.46L105.871 320.725ZM102.054 351.079L101.056 351.149V351.149L102.054 351.079ZM114.546 392.48L113.67 392.963V392.963L114.546 392.48ZM113.652 395.572L114.135 396.448L114.135 396.448L113.652 395.572ZM110.56 394.678L109.684 395.161L109.684 395.162L110.56 394.678ZM97.5128 351.4L96.5153 351.471V351.471L97.5128 351.4ZM101.482 319.516L100.518 319.251V319.251L101.482 319.516ZM111.165 258.85L112.159 258.739L111.165 257.85V258.85ZM103.276 258.85L103.276 259.85H103.276V258.85ZM100.773 256.347L99.7725 256.347V256.348L100.773 256.347ZM100.773 256.307L101.773 256.323L101.773 256.315L100.773 256.307ZM100.816 255.888L101.798 256.081L101.8 256.071L100.816 255.888ZM102.441 253.989L102.775 254.932L103.021 254.804L102.441 253.989ZM107.228 250.585L107.807 251.4L107.807 251.399L107.228 250.585ZM107.998 249.629L108.917 250.024L108.985 249.792L107.998 249.629ZM108.529 246.422L109.516 246.585L108.458 245.424L108.529 246.422ZM105.493 243.802H104.493V243.803L105.493 243.802ZM106.6 241.988L107.047 242.882L107.06 241.1L106.6 241.988ZM6.59772 111.226L7.59724 111.195L7.59723 111.195L6.59772 111.226ZM112.552 6.55249L112.552 7.55249C171.29 7.56749 219.226 55.9277 217.507 111.195L218.507 111.226L219.506 111.257C221.262 54.7909 172.347 5.56776 112.552 5.55249L112.552 6.55249ZM218.507 111.226L217.507 111.195C216.359 148.174 197.076 177.762 175.24 199.58C153.405 221.396 129.096 235.36 118.097 241.072L118.558 241.96L119.019 242.847C130.108 237.088 154.615 223.013 176.653 200.994C198.69 178.977 218.337 148.933 219.506 111.257L218.507 111.226ZM118.558 241.96L118.14 242.868C118.481 243.025 118.723 243.381 118.723 243.802H119.723H120.723C120.723 242.605 120.031 241.536 118.975 241.051L118.558 241.96ZM119.723 243.802L118.723 243.802C118.723 244.175 118.518 244.598 118.108 244.941C117.697 245.285 117.187 245.458 116.751 245.425L116.675 246.422L116.598 247.419C117.634 247.498 118.647 247.099 119.393 246.474C120.139 245.848 120.723 244.904 120.723 243.803L119.723 243.802ZM116.675 246.422L116.751 245.425C116.605 245.413 116.452 245.404 116.307 245.394L116.242 246.392L116.177 247.39C116.332 247.4 116.468 247.409 116.598 247.419L116.675 246.422ZM116.242 246.392L115.25 246.513L115.635 249.679L116.628 249.558L117.621 249.437L117.235 246.271L116.242 246.392ZM116.628 249.558L115.696 249.921C115.934 250.534 116.351 251.063 116.897 251.437L117.462 250.612L118.027 249.787C117.817 249.643 117.654 249.437 117.56 249.196L116.628 249.558ZM117.462 250.612L116.897 251.437L121.635 254.682L122.2 253.857L122.765 253.032L118.027 249.787L117.462 250.612ZM122.2 253.857L122.097 254.852C122.852 254.93 123.442 255.571 123.442 256.348L124.442 256.347L125.442 256.347C125.442 254.536 124.067 253.046 122.304 252.863L122.2 253.857ZM124.442 256.347L123.442 256.347C123.442 257.177 122.769 257.85 121.939 257.85L121.939 258.85L121.939 259.85C123.873 259.85 125.442 258.283 125.442 256.348L124.442 256.347ZM121.939 258.85V257.85H115.743V258.85V259.85H121.939V258.85ZM115.743 258.85L114.749 258.956C117.459 284.414 109.868 302.454 104.907 320.46L105.871 320.725L106.835 320.991C111.732 303.217 119.499 284.685 116.738 258.744L115.743 258.85ZM105.871 320.725L104.907 320.46C102.207 330.259 100.271 340.059 101.056 351.149L102.054 351.079L103.051 351.008C102.289 340.245 104.161 330.697 106.835 320.991L105.871 320.725ZM102.054 351.079L101.056 351.149C101.838 362.19 105.329 377.842 113.67 392.963L114.546 392.48L115.422 391.997C107.239 377.163 103.815 361.799 103.051 351.008L102.054 351.079ZM114.546 392.48L113.67 392.963C114.011 393.58 113.786 394.356 113.169 394.696L113.652 395.572L114.135 396.448C115.72 395.574 116.295 393.581 115.422 391.997L114.546 392.48ZM113.652 395.572L113.17 394.696C112.552 395.037 111.775 394.812 111.435 394.195L110.56 394.678L109.684 395.162C110.558 396.745 112.551 397.321 114.135 396.448L113.652 395.572ZM110.56 394.678L111.435 394.195C102.99 378.885 99.3283 362.886 98.5103 351.33L97.5128 351.4L96.5153 351.471C97.3513 363.281 101.082 379.568 109.684 395.161L110.56 394.678ZM97.5128 351.4L98.5103 351.33C97.6956 339.821 99.7141 329.7 102.447 319.782L101.482 319.516L100.518 319.251C97.7603 329.261 95.6774 339.635 96.5153 351.471L97.5128 351.4ZM101.482 319.516L102.447 319.782C107.506 301.42 114.959 283.789 112.159 258.739L111.165 258.85L110.171 258.961C112.917 283.521 105.643 300.652 100.518 319.251L101.482 319.516ZM111.165 258.85V257.85H103.276V258.85V259.85H111.165V258.85ZM103.276 258.85L103.276 257.85C102.446 257.85 101.773 257.177 101.773 256.347L100.773 256.347L99.7725 256.348C99.7728 258.283 101.342 259.85 103.276 259.85L103.276 258.85ZM100.773 256.347L101.773 256.348C101.773 256.354 101.772 256.358 101.772 256.36C101.772 256.362 101.772 256.362 101.772 256.36C101.772 256.358 101.772 256.358 101.773 256.355C101.773 256.353 101.773 256.351 101.773 256.348C101.773 256.342 101.773 256.333 101.773 256.323L100.773 256.307L99.7736 256.292C99.7737 256.288 99.7737 256.286 99.7737 256.287C99.7737 256.289 99.7737 256.289 99.7735 256.295C99.7732 256.302 99.7725 256.323 99.7725 256.347L100.773 256.347ZM100.773 256.307L101.773 256.315C101.774 256.24 101.782 256.162 101.798 256.081L100.816 255.888L99.8352 255.696C99.7965 255.893 99.775 256.095 99.7735 256.3L100.773 256.307ZM100.816 255.888L101.8 256.071C101.898 255.543 102.275 255.109 102.775 254.932L102.441 253.989L102.108 253.046C100.945 253.458 100.063 254.464 99.8332 255.706L100.816 255.888ZM102.441 253.989L103.021 254.804L107.807 251.4L107.228 250.585L106.648 249.77L101.862 253.174L102.441 253.989ZM107.228 250.585L107.807 251.399C108.298 251.05 108.68 250.574 108.917 250.024L107.998 249.629L107.079 249.234C106.986 249.45 106.837 249.635 106.648 249.77L107.228 250.585ZM107.998 249.629L108.985 249.792L109.516 246.585L108.529 246.422L107.543 246.258L107.012 249.465L107.998 249.629ZM108.529 246.422L108.458 245.424C108.022 245.456 107.513 245.281 107.105 244.938C106.697 244.595 106.493 244.174 106.493 243.802L105.493 243.802L104.493 243.803C104.493 244.902 105.074 245.843 105.817 246.469C106.56 247.093 107.569 247.493 108.601 247.419L108.529 246.422ZM105.493 243.802H106.493C106.493 243.394 106.721 243.046 107.047 242.882L106.6 241.988L106.152 241.094C105.147 241.597 104.493 242.639 104.493 243.802H105.493ZM106.6 241.988L107.06 241.1C96.0951 235.411 71.774 221.454 49.9174 199.633C28.0594 177.81 8.74633 148.204 7.59724 111.195L6.59772 111.226L5.5982 111.257C6.76897 148.964 26.4465 179.025 48.5044 201.048C70.5636 223.072 95.0835 237.139 106.139 242.876L106.6 241.988ZM6.59772 111.226L7.59723 111.195C5.87866 55.9278 53.8142 7.56775 112.552 7.55249L112.552 6.55249L112.552 5.55249C52.757 5.56802 3.84234 54.7911 5.5982 111.257L6.59772 111.226Z" fill="black" mask="url(#path-1-outside-1_1264_23090)"/>
<path d="M114.775 251.911C119.849 281.338 111.233 301.265 105.871 320.725C103.184 330.477 101.28 340.151 102.054 351.079C102.826 361.995 106.284 377.502 114.546 392.48C115.153 393.581 114.753 394.965 113.652 395.572C112.551 396.178 111.167 395.778 110.56 394.678C102.036 379.226 98.3395 363.083 97.5125 351.4C96.6863 339.728 98.7371 329.481 101.482 319.516C106.986 299.542 115.145 280.851 110.289 252.684L114.775 251.911Z" fill="url(#paint0_linear_1264_23090)"/>
<path d="M108.98 243.708C109.784 241.836 115.185 241.883 115.924 243.782L116.627 249.559C116.793 249.986 117.084 250.353 117.462 250.612L123.093 254.47C124.939 255.734 124.044 258.623 121.807 258.623H103.052C100.836 258.623 99.9271 255.778 101.733 254.493L107.226 250.584C107.566 250.342 107.833 250.011 107.998 249.628L108.98 243.708Z" fill="url(#paint1_linear_1264_23090)"/>
<rect x="100.772" y="253.844" width="23.669" height="5.00691" rx="2.50346" fill="url(#paint2_linear_1264_23090)"/>
<g filter="url(#filter1_ii_1264_23090)">
<path d="M112.553 6.55249C171.819 6.56762 220.245 55.3596 218.507 111.227C215.8 198.418 113.211 244.625 112.553 244.921C111.883 244.621 9.30501 198.413 6.59789 111.227C4.86038 55.3596 53.286 6.56769 112.553 6.55249Z" fill="url(#paint3_radial_1264_23090)"/>
</g>
<g style="mix-blend-mode:overlay" filter="url(#filter2_f_1264_23090)">
<path d="M112.607 146.746C156.596 146.751 176.179 163.618 174.89 181.098C173.457 200.548 142.657 217.559 124.916 225.755C116.891 229.463 108.322 229.464 100.297 225.756C82.556 217.56 51.7563 200.549 50.3237 181.098C49.0341 163.618 68.6179 146.751 112.607 146.746Z" fill="url(#paint4_linear_1264_23090)" fill-opacity="0.15"/>
</g>
<path d="M105.493 243.802C105.493 242.782 106.235 241.914 107.248 241.793C108.67 241.622 110.737 241.422 112.608 241.422C114.48 241.422 116.547 241.622 117.968 241.793C118.982 241.914 119.723 242.782 119.723 243.802C119.723 245.277 118.146 246.534 116.676 246.421C115.655 246.343 114.324 246.287 112.608 246.287C110.893 246.287 109.562 246.343 108.541 246.421C107.071 246.534 105.493 245.277 105.493 243.802Z" fill="url(#paint5_linear_1264_23090)"/>
<g filter="url(#filter3_d_1264_23090)">
<path d="M130.363 93.6175C131.013 93.539 131.668 93.5551 132.302 93.6552C132.307 93.6558 132.311 93.6568 132.316 93.6574C132.884 93.7408 133.429 93.9001 133.937 94.1075L134.154 94.1997L134.179 94.2112L134.554 94.3917L134.571 94.3997L134.587 94.4081C134.734 94.4858 134.872 94.5684 134.986 94.6369L134.989 94.6386L134.992 94.6409L135.181 94.7557L135.195 94.7654L135.297 94.8328L135.497 94.965C136.567 95.6669 137.578 96.3355 138.476 96.942C140.131 98.0555 141.47 98.997 142.08 99.5261L142.192 99.6263L142.193 99.6276C143.616 100.951 143.268 102.802 142.467 104.075C141.666 105.348 140.192 106.469 138.602 106.547C138.273 106.564 137.929 106.473 137.642 106.375C137.332 106.269 136.983 106.116 136.61 105.933C135.862 105.567 134.949 105.044 133.937 104.423C133.131 103.929 132.254 103.364 131.334 102.757C130.938 103.217 130.544 103.675 130.159 104.121L130.157 104.123C129.914 104.404 129.675 104.68 129.437 104.954L129.258 105.16L129.254 105.165L129.249 105.169L129.094 105.344L129.083 105.356L128.901 105.551L128.902 105.551C128.609 105.875 128.288 106.153 127.993 106.393L127.991 106.391C126.711 107.428 125.186 108.011 123.739 108.208L123.74 108.208C122.269 108.413 120.847 108.221 119.618 107.769C118.39 107.325 117.362 106.632 116.584 105.878L116.575 105.87C116.27 105.566 115.899 105.143 115.748 104.946L115.375 104.478C115.269 104.345 115.171 104.224 115.081 104.114C114.51 104.797 113.924 105.498 113.339 106.196L113.338 106.199L113.199 106.363L113.198 106.365L113.112 106.466L113.105 106.474L113.098 106.483L112.958 106.639L112.95 106.648C112.78 106.835 112.561 107.08 112.303 107.303L112.304 107.304C112.086 107.502 111.84 107.712 111.559 107.905L111.559 107.905L111.215 108.145L111.194 108.16L111.171 108.174C111.035 108.258 110.893 108.336 110.781 108.4L110.777 108.402L110.774 108.404C109.677 109.013 108.462 109.358 107.259 109.43C106.052 109.506 104.854 109.304 103.777 108.881C102.704 108.458 101.744 107.817 100.991 107.055L100.987 107.051L100.984 107.047C99.5892 105.603 98.4126 104.386 97.6856 103.634C97.5438 103.487 97.3861 103.328 97.2156 103.16C96.6301 103.659 96.0365 104.16 95.45 104.646L95.4496 104.646C94.0806 105.779 92.7283 106.847 91.5793 107.631C91.006 108.022 90.4626 108.357 89.9796 108.594C89.5323 108.814 89.0034 109.02 88.5053 109C87.7645 108.972 87.0462 108.657 86.4347 108.233C85.8148 107.802 85.2455 107.219 84.796 106.559C83.9213 105.276 83.3637 103.479 84.13 101.852C84.3023 101.486 84.6407 101.12 84.9729 100.8C85.3321 100.454 85.7907 100.065 86.3101 99.652C87.3509 98.8237 88.6915 97.8531 90.0953 96.8627L90.0957 96.8613C90.4427 96.6172 90.8019 96.3642 91.1598 96.1142L91.1607 96.1133L91.6968 95.74L91.9242 95.5791L92.2164 95.3822C92.4409 95.2279 92.7034 95.0924 92.8482 95.0111L92.8562 95.0062L92.8647 95.0013C94.6136 94.0683 96.6174 93.8145 98.3874 94.1474L98.5533 94.1797C100.259 94.5294 101.732 95.398 102.771 96.4401L102.942 96.6095L102.958 96.6254L102.974 96.6423L103.06 96.7376L103.065 96.742L103.069 96.7469L103.228 96.9225L103.232 96.9269L103.236 96.9309C103.34 97.0477 103.441 97.1566 103.549 97.2746L103.849 97.5956C103.944 97.6962 104.035 97.7918 104.123 97.882L104.763 98.5488L105.548 99.3811L105.551 99.3842C105.832 99.6861 106.137 100.012 106.46 100.357C106.592 100.498 106.727 100.643 106.861 100.787L107.448 100.119C107.849 99.6612 108.25 99.2029 108.649 98.7479C108.848 98.52 109.046 98.2929 109.245 98.0678L109.252 98.0598L109.473 97.8155L109.491 97.796L109.758 97.518L109.845 97.4306C110.048 97.2342 110.268 97.061 110.412 96.942L110.422 96.9331L110.433 96.9252C111.356 96.2041 112.428 95.7299 113.501 95.5117C114.573 95.2938 115.648 95.322 116.631 95.5462C117.618 95.7706 118.51 96.1929 119.25 96.7225L119.489 96.8963L119.524 96.9203L119.556 96.9487C119.59 96.9779 119.625 97.0068 119.663 97.0387C119.699 97.0697 119.74 97.1038 119.78 97.1384L119.787 97.1446L119.793 97.15C119.88 97.2276 120.1 97.4104 120.267 97.5947C120.271 97.599 120.275 97.6033 120.279 97.6075C120.408 97.7476 120.531 97.8861 120.645 98.0163L120.651 98.0234L120.656 98.0301L120.699 98.0806L120.71 98.0935L120.721 98.1068L120.744 98.1374L120.793 98.1999L120.797 98.2043L120.891 98.3267C121.141 98.6476 121.372 98.9424 121.58 99.2064L122.135 99.9034L122.157 99.9326C122.161 99.9375 122.2 99.9794 122.307 100.016C122.324 100.021 122.37 100.029 122.431 100.022C122.489 100.015 122.537 99.997 122.57 99.9779C122.581 99.9691 122.594 99.9588 122.607 99.9486C122.61 99.9463 122.614 99.9435 122.617 99.9411C122.625 99.9336 122.634 99.9247 122.644 99.9154C122.661 99.8945 122.686 99.8633 122.719 99.828C122.758 99.7794 122.797 99.7311 122.834 99.6839C122.882 99.6224 122.929 99.5628 122.975 99.5039L122.978 99.4995C123.369 99.0047 123.771 98.4928 124.181 97.9711C124.591 97.4498 125.008 96.9186 125.431 96.3842L125.433 96.3802L125.472 96.3315L125.485 96.3164L125.54 96.2499L125.544 96.2455L125.548 96.241L125.687 96.0787L125.696 96.0685L125.705 96.0588C125.744 96.0158 125.897 95.8339 126.03 95.7063L126.198 95.5454C126.368 95.3859 126.554 95.2233 126.758 95.0705L126.956 94.9233C127.42 94.5895 127.929 94.3073 128.468 94.0959C129.075 93.8495 129.715 93.6881 130.363 93.6175Z" fill="url(#paint6_linear_1264_23090)"/>
<path d="M85.4225 78.5495C85.7493 80.6434 89.0039 84.9362 90.4034 84.4964C91.803 84.0566 98.977 77.3976 100.734 76.1095C101.245 75.735 102.198 75.1022 103.734 74.0411C105.176 73.0424 105.547 71.0478 104.567 69.5838C104.447 69.405 104.31 69.2405 104.162 69.0929L103.653 68.5936C101.659 66.6387 98.3763 63.461 97.1723 62.4481C95.471 61.0181 91.9204 56.2203 90.6689 56.487C88.7776 56.8899 85.5343 61.2451 85.1571 63.1262C84.7828 65.0073 90.1548 67.8048 91.8421 69.2263C92.3003 69.6207 93.0713 70.2817 93.9569 71.0421C90.5348 73.346 85.1822 76.9975 85.4253 78.5495H85.4225Z" fill="url(#paint7_linear_1264_23090)"/>
<path d="M139.683 78.5495C139.356 80.6434 136.101 84.9362 134.702 84.4964C133.302 84.0566 126.128 77.3976 124.371 76.1095C123.86 75.735 122.907 75.1022 121.371 74.0411C119.929 73.0424 119.558 71.0478 120.538 69.5838C120.658 69.405 120.795 69.2405 120.943 69.0929L121.452 68.5936C123.446 66.6387 126.729 63.461 127.933 62.4481C129.634 61.0181 133.185 56.2203 134.436 56.487C136.328 56.8899 139.571 61.2451 139.948 63.1262C140.322 65.0073 134.95 67.8048 133.263 69.2263C132.805 69.6207 132.034 70.2817 131.148 71.0421C134.57 73.346 139.923 76.9975 139.68 78.5495H139.683Z" fill="url(#paint8_linear_1264_23090)"/>
</g>
<g opacity="0.6" filter="url(#filter4_f_1264_23090)">
<path d="M63.4033 30.7588C66.0382 29.9514 69.9795 29.6585 72.7976 30.8207C75.2714 31.8409 77.55 34.2193 77.6907 37.6545C77.8314 41.0897 76.4677 43.5728 73.662 44.8997C70.911 46.2007 69.7803 46.4758 65.3995 49.8209C62.5569 51.9915 61.0055 55.5127 55.2545 54.2368C49.7985 53.0262 48.0798 46.2955 50.7001 41.105C53.5789 35.4026 59.9577 31.8147 63.4033 30.7588Z" fill="#FFC8DA"/>
</g>
</g>
<defs>
<filter id="filter0_d_1264_23090" x="-1.28746e-05" y="0.000109196" width="230.152" height="407.455" filterUnits="userSpaceOnUse" color-interpolation-filters="sRGB">
<feFlood flood-opacity="0" result="BackgroundImageFix"/>
<feColorMatrix in="SourceAlpha" type="matrix" values="0 0 0 0 0 0 0 0 0 0 0 0 0 0 0 0 0 0 127 0" result="hardAlpha"/>
<feOffset dx="2.52381" dy="2.52381"/>
<feGaussianBlur stdDeviation="4.0381"/>
<feComposite in2="hardAlpha" operator="out"/>
<feColorMatrix type="matrix" values="0 0 0 0 0 0 0 0 0 0 0 0 0 0 0 0 0 0 0.12 0"/>
<feBlend mode="normal" in2="BackgroundImageFix" result="effect1_dropShadow_1264_23090"/>
<feBlend mode="normal" in="SourceGraphic" in2="effect1_dropShadow_1264_23090" result="shape"/>
</filter>
<filter id="filter1_ii_1264_23090" x="-16.6665" y="-29.7904" width="255.41" height="290.864" filterUnits="userSpaceOnUse" color-interpolation-filters="sRGB">
<feFlood flood-opacity="0" result="BackgroundImageFix"/>
<feBlend mode="normal" in="SourceGraphic" in2="BackgroundImageFix" result="shape"/>
<feColorMatrix in="SourceAlpha" type="matrix" values="0 0 0 0 0 0 0 0 0 0 0 0 0 0 0 0 0 0 127 0" result="hardAlpha"/>
<feOffset dx="-23.219" dy="-36.3428"/>
<feGaussianBlur stdDeviation="28.7714"/>
<feComposite in2="hardAlpha" operator="arithmetic" k2="-1" k3="1"/>
<feColorMatrix type="matrix" values="0 0 0 0 0 0 0 0 0 0 0 0 0 0 0 0 0 0 0.14 0"/>
<feBlend mode="normal" in2="shape" result="effect1_innerShadow_1264_23090"/>
<feColorMatrix in="SourceAlpha" type="matrix" values="0 0 0 0 0 0 0 0 0 0 0 0 0 0 0 0 0 0 127 0" result="hardAlpha"/>
<feOffset dx="20.1905" dy="16.1524"/>
<feGaussianBlur stdDeviation="27.2571"/>
<feComposite in2="hardAlpha" operator="arithmetic" k2="-1" k3="1"/>
<feColorMatrix type="matrix" values="0 0 0 0 1 0 0 0 0 1 0 0 0 0 1 0 0 0 0.48 0"/>
<feBlend mode="overlay" in2="effect1_innerShadow_1264_23090" result="effect2_innerShadow_1264_23090"/>
</filter>
<filter id="filter2_f_1264_23090" x="17.9593" y="114.441" width="189.295" height="146.4" filterUnits="userSpaceOnUse" color-interpolation-filters="sRGB">
<feFlood flood-opacity="0" result="BackgroundImageFix"/>
<feBlend mode="normal" in="SourceGraphic" in2="BackgroundImageFix" result="shape"/>
<feGaussianBlur stdDeviation="16.1524" result="effect1_foregroundBlur_1264_23090"/>
</filter>
<filter id="filter3_d_1264_23090" x="59.5391" y="32.2478" width="107.854" height="101.427" filterUnits="userSpaceOnUse" color-interpolation-filters="sRGB">
<feFlood flood-opacity="0" result="BackgroundImageFix"/>
<feColorMatrix in="SourceAlpha" type="matrix" values="0 0 0 0 0 0 0 0 0 0 0 0 0 0 0 0 0 0 127 0" result="hardAlpha"/>
<feOffset/>
<feGaussianBlur stdDeviation="12.1143"/>
<feComposite in2="hardAlpha" operator="out"/>
<feColorMatrix type="matrix" values="0 0 0 0 0.823529 0 0 0 0 0 0 0 0 0 0.27451 0 0 0 0.35 0"/>
<feBlend mode="normal" in2="BackgroundImageFix" result="effect1_dropShadow_1264_23090"/>
<feBlend mode="normal" in="SourceGraphic" in2="effect1_dropShadow_1264_23090" result="shape"/>
</filter>
<filter id="filter4_f_1264_23090" x="29.3057" y="9.8581" width="68.5853" height="64.8404" filterUnits="userSpaceOnUse" color-interpolation-filters="sRGB">
<feFlood flood-opacity="0" result="BackgroundImageFix"/>
<feBlend mode="normal" in="SourceGraphic" in2="BackgroundImageFix" result="shape"/>
<feGaussianBlur stdDeviation="10.0952" result="effect1_foregroundBlur_1264_23090"/>
</filter>
<linearGradient id="paint0_linear_1264_23090" x1="112.608" y1="258.263" x2="106.048" y2="391.176" gradientUnits="userSpaceOnUse">
<stop stop-color="white"/>
<stop offset="1" stop-color="#EDEDED"/>
</linearGradient>
<linearGradient id="paint1_linear_1264_23090" x1="112.43" y1="242.33" x2="112.43" y2="258.623" gradientUnits="userSpaceOnUse">
<stop stop-color="#CA0043"/>
<stop offset="0.65" stop-color="#D20046"/>
</linearGradient>
<linearGradient id="paint2_linear_1264_23090" x1="112.151" y1="253.255" x2="112.151" y2="260.766" gradientUnits="userSpaceOnUse">
<stop stop-color="#9F0035"/>
<stop offset="1" stop-color="#6C0024"/>
</linearGradient>
<radialGradient id="paint3_radial_1264_23090" cx="0" cy="0" r="1" gradientTransform="matrix(120.849 213.704 213.63 -120.821 97.8148 47.2905)" gradientUnits="userSpaceOnUse">
<stop offset="0.253496" stop-color="#FF5890"/>
<stop offset="0.731106" stop-color="#D20046"/>
</radialGradient>
<linearGradient id="paint4_linear_1264_23090" x1="112.607" y1="167.011" x2="112.607" y2="319.692" gradientUnits="userSpaceOnUse">
<stop stop-color="#FFC8DA"/>
<stop offset="1" stop-color="#FFC8DA" stop-opacity="0"/>
</linearGradient>
<linearGradient id="paint5_linear_1264_23090" x1="112.608" y1="241.422" x2="112.608" y2="246.429" gradientUnits="userSpaceOnUse">
<stop stop-color="white"/>
<stop offset="1" stop-color="#EDEDED"/>
</linearGradient>
<linearGradient id="paint6_linear_1264_23090" x1="116.003" y1="112.183" x2="116.23" y2="90.6167" gradientUnits="userSpaceOnUse">
<stop stop-color="#F5F5F5"/>
<stop offset="1" stop-color="#FFE7EF"/>
</linearGradient>
<linearGradient id="paint7_linear_1264_23090" x1="95.1265" y1="56.4763" x2="95.1265" y2="84.5278" gradientUnits="userSpaceOnUse">
<stop stop-color="#FFE7EF"/>
<stop offset="1" stop-color="#F7F7F7"/>
</linearGradient>
<linearGradient id="paint8_linear_1264_23090" x1="129.979" y1="56.4763" x2="129.979" y2="84.5278" gradientUnits="userSpaceOnUse">
<stop stop-color="#FFE7EF"/>
<stop offset="1" stop-color="#F7F7F7"/>
</linearGradient>
</defs>
</svg>
