<svg width="338" height="607" viewBox="0 0 338 607" fill="none" xmlns="http://www.w3.org/2000/svg">
<g filter="url(#filter0_d_1264_23068)">
<mask id="path-1-outside-1_1264_23068" maskUnits="userSpaceOnUse" x="4.50012" y="5.5" width="324" height="591" fill="black">
<rect fill="white" x="4.50012" y="5.5" width="324" height="591"/>
<path d="M166.501 6.5C255.96 6.52291 329.055 80.1712 326.433 164.499C322.934 277.187 208.905 344.52 175.565 361.833C176.619 362.318 177.324 363.391 177.324 364.613C177.324 366.84 174.944 368.738 172.724 368.567C172.514 368.551 172.296 368.538 172.069 368.523L172.652 373.306C172.903 373.95 173.342 374.505 173.912 374.896L181.065 379.795C182.965 379.993 184.448 381.6 184.448 383.553C184.448 385.64 182.756 387.331 180.669 387.331H171.279C175.521 426.353 163.88 454.069 156.416 481.185C152.36 495.92 149.486 510.537 150.653 527.047C151.82 543.54 157.039 566.97 169.51 589.601C170.426 591.263 169.822 593.355 168.16 594.271C166.499 595.188 164.41 594.583 163.493 592.921C150.628 569.575 145.047 545.184 143.799 527.532C142.552 509.897 145.647 494.414 149.791 479.359C157.502 451.346 168.664 425.005 164.364 387.331H152.499C150.413 387.331 148.721 385.639 148.721 383.553C148.721 383.533 148.721 383.512 148.722 383.492C148.723 383.281 148.745 383.07 148.786 382.86C149.034 381.524 149.983 380.437 151.238 379.992L158.463 374.854C158.976 374.489 159.378 373.99 159.627 373.411L160.431 368.567C158.215 368.728 155.845 366.835 155.845 364.613C155.845 363.426 156.511 362.378 157.516 361.875C124.277 344.627 10.0702 277.276 6.56848 164.499C3.94594 80.1712 77.0419 6.52294 166.501 6.5Z"/>
</mask>
<path d="M166.501 6.5L166.501 5.5L166.501 5.5L166.501 6.5ZM326.433 164.499L325.433 164.468V164.468L326.433 164.499ZM175.565 361.833L175.104 360.946C174.765 361.122 174.556 361.475 174.565 361.857C174.574 362.239 174.8 362.582 175.147 362.742L175.565 361.833ZM177.324 364.613H178.324V364.613L177.324 364.613ZM172.724 368.567L172.8 367.57V367.57L172.724 368.567ZM172.069 368.523L172.134 367.526C171.837 367.506 171.547 367.62 171.343 367.837C171.138 368.053 171.041 368.349 171.077 368.644L172.069 368.523ZM172.652 373.306L171.66 373.427C171.67 373.509 171.69 373.59 171.72 373.668L172.652 373.306ZM173.912 374.896L173.347 375.72L173.347 375.721L173.912 374.896ZM181.065 379.795L180.499 380.62C180.637 380.714 180.795 380.772 180.961 380.79L181.065 379.795ZM184.448 383.553L185.448 383.553V383.553L184.448 383.553ZM180.669 387.331V388.331H180.669L180.669 387.331ZM171.279 387.331V386.331C170.995 386.331 170.725 386.452 170.535 386.663C170.345 386.875 170.255 387.157 170.285 387.439L171.279 387.331ZM156.416 481.185L155.452 480.919V480.919L156.416 481.185ZM150.653 527.047L149.656 527.117V527.117L150.653 527.047ZM169.51 589.601L170.386 589.118L170.386 589.118L169.51 589.601ZM168.16 594.271L168.643 595.147L168.643 595.147L168.16 594.271ZM163.493 592.921L162.617 593.404L162.618 593.404L163.493 592.921ZM143.799 527.532L142.801 527.603V527.603L143.799 527.532ZM149.791 479.359L148.827 479.094V479.094L149.791 479.359ZM164.364 387.331L165.358 387.218C165.3 386.713 164.873 386.331 164.364 386.331V387.331ZM152.499 387.331L152.499 388.331H152.499V387.331ZM148.721 383.553L147.721 383.553V383.553L148.721 383.553ZM148.722 383.492L149.722 383.508L149.722 383.499L148.722 383.492ZM148.786 382.86L149.768 383.053L149.77 383.043L148.786 382.86ZM151.238 379.992L151.572 380.935C151.66 380.904 151.742 380.861 151.818 380.807L151.238 379.992ZM158.463 374.854L159.043 375.669L159.043 375.669L158.463 374.854ZM159.627 373.411L160.546 373.806C160.578 373.732 160.6 373.654 160.614 373.575L159.627 373.411ZM160.431 368.567L161.417 368.731C161.467 368.429 161.376 368.12 161.17 367.893C160.963 367.667 160.664 367.548 160.358 367.57L160.431 368.567ZM155.845 364.613L154.845 364.613V364.613H155.845ZM157.516 361.875L157.963 362.769C158.3 362.601 158.513 362.258 158.516 361.882C158.518 361.506 158.31 361.161 157.976 360.987L157.516 361.875ZM6.56848 164.499L7.568 164.468L7.568 164.468L6.56848 164.499ZM166.501 6.5L166.501 7.5C255.432 7.52277 328.037 80.7395 325.433 164.468L326.433 164.499L327.432 164.53C330.073 79.6028 256.489 5.52304 166.501 5.5L166.501 6.5ZM326.433 164.499L325.433 164.468C323.695 220.463 294.495 265.241 261.482 298.224C228.472 331.206 191.729 352.313 175.104 360.946L175.565 361.833L176.025 362.72C192.741 354.041 229.683 332.824 262.896 299.639C296.108 266.456 325.672 221.223 327.432 164.53L326.433 164.499ZM175.565 361.833L175.147 362.742C175.845 363.062 176.324 363.78 176.324 364.613L177.324 364.613L178.324 364.613C178.324 363.002 177.393 361.573 175.982 360.924L175.565 361.833ZM177.324 364.613H176.324C176.324 365.362 175.919 366.132 175.214 366.723C174.509 367.314 173.61 367.633 172.8 367.57L172.724 368.567L172.647 369.564C174.057 369.673 175.459 369.128 176.499 368.256C177.54 367.383 178.324 366.091 178.324 364.613H177.324ZM172.724 368.567L172.8 367.57C172.583 367.554 172.355 367.54 172.134 367.526L172.069 368.523L172.005 369.521C172.238 369.536 172.446 369.549 172.647 369.564L172.724 368.567ZM172.069 368.523L171.077 368.644L171.66 373.427L172.652 373.306L173.645 373.185L173.062 368.402L172.069 368.523ZM172.652 373.306L171.72 373.668C172.044 374.499 172.61 375.215 173.347 375.72L173.912 374.896L174.478 374.071C174.074 373.794 173.762 373.401 173.585 372.943L172.652 373.306ZM173.912 374.896L173.347 375.721L180.499 380.62L181.065 379.795L181.63 378.97L174.477 374.07L173.912 374.896ZM181.065 379.795L180.961 380.79C182.358 380.935 183.448 382.117 183.448 383.553L184.448 383.553L185.448 383.553C185.448 381.082 183.573 379.05 181.168 378.8L181.065 379.795ZM184.448 383.553L183.448 383.553C183.448 385.087 182.204 386.331 180.669 386.331L180.669 387.331L180.669 388.331C183.308 388.331 185.448 386.192 185.448 383.553L184.448 383.553ZM180.669 387.331V386.331H171.279V387.331V388.331H180.669V387.331ZM171.279 387.331L170.285 387.439C174.501 426.219 162.947 453.688 155.452 480.919L156.416 481.185L157.38 481.45C164.812 454.451 176.542 426.487 172.274 387.223L171.279 387.331ZM156.416 481.185L155.452 480.919C151.383 495.701 148.477 510.444 149.656 527.117L150.653 527.047L151.651 526.976C150.495 510.63 153.337 496.139 157.38 481.45L156.416 481.185ZM150.653 527.047L149.656 527.117C150.831 543.735 156.084 567.31 168.634 590.083L169.51 589.601L170.386 589.118C157.994 566.631 152.809 543.345 151.651 526.976L150.653 527.047ZM169.51 589.601L168.634 590.083C169.284 591.263 168.855 592.746 167.677 593.396L168.16 594.271L168.643 595.147C170.789 593.963 171.568 591.264 170.386 589.118L169.51 589.601ZM168.16 594.271L167.677 593.396C166.5 594.045 165.019 593.617 164.369 592.438L163.493 592.921L162.618 593.404C163.8 595.549 166.498 596.331 168.643 595.147L168.16 594.271ZM163.493 592.921L164.369 592.438C151.582 569.234 146.036 544.987 144.796 527.462L143.799 527.532L142.801 527.603C144.059 545.382 149.674 569.915 162.617 593.404L163.493 592.921ZM143.799 527.532L144.796 527.462C143.561 509.99 146.624 494.633 150.755 479.625L149.791 479.359L148.827 479.094C144.67 494.195 141.543 509.804 142.801 527.603L143.799 527.532ZM149.791 479.359L150.755 479.625C158.433 451.73 169.685 425.137 165.358 387.218L164.364 387.331L163.371 387.444C167.642 424.872 156.57 450.963 148.827 479.094L149.791 479.359ZM164.364 387.331V386.331H152.499V387.331V388.331H164.364V387.331ZM152.499 387.331L152.499 386.331C150.965 386.331 149.721 385.087 149.721 383.553L148.721 383.553L147.721 383.553C147.721 386.192 149.86 388.331 152.499 388.331L152.499 387.331ZM148.721 383.553L149.721 383.553C149.721 383.553 149.721 383.551 149.721 383.543C149.721 383.538 149.721 383.535 149.721 383.528C149.721 383.523 149.722 383.515 149.722 383.508L148.722 383.492L147.722 383.477C147.722 383.484 147.722 383.487 147.721 383.502C147.721 383.514 147.721 383.532 147.721 383.553L148.721 383.553ZM148.722 383.492L149.722 383.499C149.723 383.352 149.738 383.203 149.768 383.053L148.786 382.86L147.805 382.668C147.752 382.936 147.724 383.21 147.722 383.485L148.722 383.492ZM148.786 382.86L149.77 383.043C149.951 382.063 150.649 381.262 151.572 380.935L151.238 379.992L150.904 379.05C149.317 379.612 148.117 380.986 147.803 382.678L148.786 382.86ZM151.238 379.992L151.818 380.807L159.043 375.669L158.463 374.854L157.883 374.04L150.659 379.177L151.238 379.992ZM158.463 374.854L159.043 375.669C159.706 375.197 160.225 374.552 160.546 373.806L159.627 373.411L158.708 373.016C158.532 373.427 158.246 373.781 157.883 374.04L158.463 374.854ZM159.627 373.411L160.614 373.575L161.417 368.731L160.431 368.567L159.444 368.404L158.641 373.247L159.627 373.411ZM160.431 368.567L160.358 367.57C159.549 367.629 158.653 367.309 157.95 366.718C157.249 366.129 156.845 365.36 156.845 364.613H155.845H154.845C154.845 366.088 155.626 367.377 156.663 368.249C157.7 369.121 159.097 369.667 160.503 369.565L160.431 368.567ZM155.845 364.613L156.845 364.613C156.845 363.804 157.298 363.103 157.963 362.769L157.516 361.875L157.068 360.981C155.724 361.654 154.845 363.048 154.845 364.613L155.845 364.613ZM157.516 361.875L157.976 360.987C141.402 352.387 104.64 331.293 71.5971 298.303C38.5528 265.312 9.308 220.507 7.568 164.468L6.56848 164.499L5.56896 164.53C7.33065 221.268 36.9399 266.527 70.184 299.718C103.43 332.91 140.39 354.115 157.055 362.763L157.516 361.875ZM6.56848 164.499L7.568 164.468C4.9641 80.7396 77.5705 7.5228 166.501 7.5L166.501 6.5L166.501 5.5C76.5133 5.52307 2.92778 79.6028 5.56896 164.53L6.56848 164.499Z" fill="black" mask="url(#path-1-outside-1_1264_23068)"/>
<path d="M169.857 377.213C177.515 421.675 164.51 451.783 156.417 481.184C152.361 495.919 149.487 510.536 150.654 527.045C151.821 543.538 157.04 566.969 169.511 589.599C170.427 591.262 169.823 593.353 168.161 594.27C166.5 595.187 164.41 594.582 163.494 592.919C150.628 569.573 145.048 545.183 143.8 527.531C142.553 509.895 145.648 494.413 149.792 479.358C158.099 449.179 170.415 420.939 163.084 378.381L169.857 377.213Z" fill="url(#paint0_linear_1264_23068)"/>
<path d="M161.111 364.474C162.325 361.648 170.477 361.719 171.592 364.585L172.653 373.305C172.903 373.949 173.343 374.503 173.913 374.894L182.414 380.718C185.199 382.626 183.849 386.987 180.472 386.987H152.163C148.818 386.987 147.446 382.692 150.172 380.753L158.464 374.853C158.977 374.487 159.38 373.988 159.628 373.41L161.111 364.474Z" fill="url(#paint1_linear_1264_23068)"/>
<rect x="148.722" y="379.772" width="35.7268" height="7.5576" rx="3.7788" fill="url(#paint2_linear_1264_23068)"/>
<g filter="url(#filter1_ii_1264_23068)">
<path d="M166.501 6.5C255.96 6.52284 329.056 80.171 326.433 164.499C322.346 296.108 167.496 365.855 166.501 366.302C165.49 365.848 10.656 296.101 6.56979 164.499C3.94713 80.1711 77.0423 6.52294 166.501 6.5Z" fill="url(#paint3_radial_1264_23068)"/>
</g>
<g style="mix-blend-mode:overlay" filter="url(#filter2_f_1264_23068)">
<path d="M166.585 218.113C232.984 218.12 262.544 243.58 260.597 269.965C258.252 301.81 203.752 329.323 178.824 340.223C170.801 343.732 162.369 343.732 154.346 340.224C129.418 329.324 74.9185 301.81 72.573 269.965C70.6264 243.58 100.187 218.12 166.585 218.113Z" fill="url(#paint4_linear_1264_23068)" fill-opacity="0.15"/>
</g>
<path d="M155.846 364.613C155.846 363.072 156.965 361.763 158.495 361.58C160.64 361.322 163.76 361.02 166.585 361.02C169.41 361.02 172.53 361.322 174.676 361.58C176.205 361.763 177.325 363.072 177.325 364.613C177.325 366.84 174.944 368.737 172.724 368.567C171.183 368.448 169.175 368.363 166.585 368.363C163.996 368.363 161.987 368.448 160.446 368.567C158.226 368.737 155.846 366.839 155.846 364.613Z" fill="url(#paint5_linear_1264_23068)"/>
<g filter="url(#filter3_d_1264_23068)">
<path d="M151.996 116.485C152.734 110.602 153.537 92.1292 151.276 88.6696C147.854 83.4441 136.534 84.1237 133.167 87.8284C129.806 91.5275 131.781 114.463 135.89 118.591C139.999 122.719 151.259 122.368 151.996 116.485Z" fill="url(#paint6_linear_1264_23068)"/>
<path d="M200.777 116.485C201.514 110.602 202.317 92.1292 200.056 88.6696C196.635 83.4441 185.314 84.1237 181.948 87.8284C178.587 91.5275 180.562 114.463 184.671 118.591C188.78 122.719 200.04 122.368 200.777 116.485Z" fill="url(#paint7_linear_1264_23068)"/>
<path d="M179.124 171.217C179.459 171.146 179.818 171.068 180.204 170.985C180.591 170.899 181.001 170.785 181.434 170.676C183.166 170.221 185.267 169.577 187.531 168.565C189.79 167.565 192.211 166.212 194.526 164.482C196.84 162.76 199.037 160.661 200.886 158.355C202.747 156.056 204.269 153.569 205.413 151.153C206.56 148.732 207.372 146.394 207.901 144.323C208.161 143.288 208.346 142.319 208.5 141.436C208.618 140.554 208.705 139.757 208.748 139.059C208.784 137.67 208.677 136.686 208.398 136.223C207.242 134.36 204.648 133.253 202.191 133.077C200.965 132.983 199.77 133.108 198.808 133.461C198.327 133.638 197.905 133.873 197.566 134.167C197.227 134.466 196.97 134.823 196.793 135.25C196.45 136.101 196.028 138.325 195.157 141.075C195.046 141.417 194.936 141.773 194.817 142.134C194.687 142.487 194.549 142.848 194.411 143.221C194.344 143.405 194.273 143.594 194.202 143.782C194.123 143.966 194.045 144.151 193.966 144.339C193.8 144.708 193.658 145.104 193.473 145.473C192.783 146.995 191.911 148.505 190.914 149.929C188.926 152.78 186.296 155.177 183.706 156.707C181.131 158.26 178.714 159.072 177.401 159.378C176.088 159.688 173.824 160.092 171.04 160.081C168.268 160.116 165 159.7 161.833 158.904C158.671 158.08 155.615 156.884 153.17 155.597C150.702 154.342 148.841 153.039 147.741 152.27C146.64 151.498 145.229 150.246 143.928 148.713C142.63 147.179 141.416 145.402 140.596 143.676C139.744 141.958 139.216 140.342 138.869 139.086C138.794 138.769 138.687 138.482 138.612 138.216C138.541 137.949 138.462 137.706 138.372 137.49C138.226 137.058 138.056 136.741 137.839 136.564C137.24 136.031 136.258 135.611 135.15 135.27C134.026 134.936 132.713 134.693 131.396 134.607C130.079 134.52 128.754 134.603 127.603 134.913C126.456 135.219 125.47 135.76 124.867 136.521C124.583 136.898 124.37 137.572 124.279 138.482C124.247 138.933 124.24 139.447 124.255 140.008C124.283 140.569 124.366 141.169 124.456 141.817C124.859 144.398 126.045 147.493 127.777 150.352C129.523 153.204 131.783 155.809 134.015 157.829C136.238 159.873 138.384 161.402 139.87 162.473C141.353 163.552 143.821 165.184 146.944 166.749C148.509 167.518 150.229 168.291 152.054 168.969C153.884 169.644 155.812 170.248 157.772 170.746C161.695 171.723 165.749 172.217 169.266 172.245C172.783 172.28 175.733 171.892 177.46 171.546C177.894 171.46 178.45 171.37 179.116 171.217H179.124Z" fill="url(#paint8_linear_1264_23068)"/>
</g>
<g opacity="0.6" filter="url(#filter4_f_1264_23068)">
<path d="M92.3131 44.1842C96.2904 42.9655 102.24 42.5234 106.493 44.2776C110.228 45.8176 113.667 49.4075 113.879 54.5926C114.092 59.7778 112.033 63.5258 107.798 65.5286C103.646 67.4923 101.939 67.9076 95.3265 72.9567C91.0358 76.233 88.6939 81.5479 80.0131 79.622C71.7774 77.7948 69.1831 67.6354 73.1382 59.8007C77.4836 51.1934 87.1121 45.7779 92.3131 44.1842Z" fill="#C8E6FF"/>
</g>
</g>
<defs>
<filter id="filter0_d_1264_23068" x="0" y="0" width="338.001" height="606.199" filterUnits="userSpaceOnUse" color-interpolation-filters="sRGB">
<feFlood flood-opacity="0" result="BackgroundImageFix"/>
<feColorMatrix in="SourceAlpha" type="matrix" values="0 0 0 0 0 0 0 0 0 0 0 0 0 0 0 0 0 0 127 0" result="hardAlpha"/>
<feOffset dx="2.5" dy="2.5"/>
<feGaussianBlur stdDeviation="4"/>
<feComposite in2="hardAlpha" operator="out"/>
<feColorMatrix type="matrix" values="0 0 0 0 0 0 0 0 0 0 0 0 0 0 0 0 0 0 0.12 0"/>
<feBlend mode="normal" in2="BackgroundImageFix" result="effect1_dropShadow_1264_23068"/>
<feBlend mode="normal" in="SourceGraphic" in2="effect1_dropShadow_1264_23068" result="shape"/>
</filter>
<filter id="filter1_ii_1264_23068" x="-16.4987" y="-29.5" width="363" height="411.802" filterUnits="userSpaceOnUse" color-interpolation-filters="sRGB">
<feFlood flood-opacity="0" result="BackgroundImageFix"/>
<feBlend mode="normal" in="SourceGraphic" in2="BackgroundImageFix" result="shape"/>
<feColorMatrix in="SourceAlpha" type="matrix" values="0 0 0 0 0 0 0 0 0 0 0 0 0 0 0 0 0 0 127 0" result="hardAlpha"/>
<feOffset dx="-23" dy="-36"/>
<feGaussianBlur stdDeviation="28.5"/>
<feComposite in2="hardAlpha" operator="arithmetic" k2="-1" k3="1"/>
<feColorMatrix type="matrix" values="0 0 0 0 0 0 0 0 0 0 0 0 0 0 0 0 0 0 0.14 0"/>
<feBlend mode="normal" in2="shape" result="effect1_innerShadow_1264_23068"/>
<feColorMatrix in="SourceAlpha" type="matrix" values="0 0 0 0 0 0 0 0 0 0 0 0 0 0 0 0 0 0 127 0" result="hardAlpha"/>
<feOffset dx="20" dy="16"/>
<feGaussianBlur stdDeviation="27"/>
<feComposite in2="hardAlpha" operator="arithmetic" k2="-1" k3="1"/>
<feColorMatrix type="matrix" values="0 0 0 0 1 0 0 0 0 1 0 0 0 0 1 0 0 0 0.48 0"/>
<feBlend mode="overlay" in2="effect1_innerShadow_1264_23068" result="effect2_innerShadow_1264_23068"/>
</filter>
<filter id="filter2_f_1264_23068" x="40.4829" y="186.113" width="252.205" height="188.742" filterUnits="userSpaceOnUse" color-interpolation-filters="sRGB">
<feFlood flood-opacity="0" result="BackgroundImageFix"/>
<feBlend mode="normal" in="SourceGraphic" in2="BackgroundImageFix" result="shape"/>
<feGaussianBlur stdDeviation="16" result="effect1_foregroundBlur_1264_23068"/>
</filter>
<filter id="filter3_d_1264_23068" x="100.247" y="60.8999" width="132.508" height="135.347" filterUnits="userSpaceOnUse" color-interpolation-filters="sRGB">
<feFlood flood-opacity="0" result="BackgroundImageFix"/>
<feColorMatrix in="SourceAlpha" type="matrix" values="0 0 0 0 0 0 0 0 0 0 0 0 0 0 0 0 0 0 127 0" result="hardAlpha"/>
<feOffset/>
<feGaussianBlur stdDeviation="12"/>
<feComposite in2="hardAlpha" operator="out"/>
<feColorMatrix type="matrix" values="0 0 0 0 0 0 0 0 0 0.333333 0 0 0 0 0.823529 0 0 0 0.35 0"/>
<feBlend mode="normal" in2="BackgroundImageFix" result="effect1_dropShadow_1264_23068"/>
<feBlend mode="normal" in="SourceGraphic" in2="effect1_dropShadow_1264_23068" result="shape"/>
</filter>
<filter id="filter4_f_1264_23068" x="51.3211" y="23.1123" width="82.5732" height="76.9191" filterUnits="userSpaceOnUse" color-interpolation-filters="sRGB">
<feFlood flood-opacity="0" result="BackgroundImageFix"/>
<feBlend mode="normal" in="SourceGraphic" in2="BackgroundImageFix" result="shape"/>
<feGaussianBlur stdDeviation="10" result="effect1_foregroundBlur_1264_23068"/>
</filter>
<linearGradient id="paint0_linear_1264_23068" x1="166.585" y1="386.81" x2="156.664" y2="587.627" gradientUnits="userSpaceOnUse">
<stop stop-color="white"/>
<stop offset="1" stop-color="#EDEDED"/>
</linearGradient>
<linearGradient id="paint1_linear_1264_23068" x1="166.318" y1="362.394" x2="166.318" y2="386.987" gradientUnits="userSpaceOnUse">
<stop stop-color="#005BCA"/>
<stop offset="0.65" stop-color="#0055D2"/>
</linearGradient>
<linearGradient id="paint2_linear_1264_23068" x1="165.898" y1="378.882" x2="165.898" y2="390.219" gradientUnits="userSpaceOnUse">
<stop stop-color="#00409F"/>
<stop offset="1" stop-color="#002C6C"/>
</linearGradient>
<radialGradient id="paint3_radial_1264_23068" cx="0" cy="0" r="1" gradientTransform="matrix(182.413 322.572 322.46 -182.371 144.256 67.9914)" gradientUnits="userSpaceOnUse">
<stop offset="0.253496" stop-color="#58B3FF"/>
<stop offset="0.731106" stop-color="#0055D2"/>
</radialGradient>
<linearGradient id="paint4_linear_1264_23068" x1="166.585" y1="248.702" x2="166.585" y2="479.162" gradientUnits="userSpaceOnUse">
<stop stop-color="#C8E6FF"/>
<stop offset="1" stop-color="#C8E6FF" stop-opacity="0"/>
</linearGradient>
<linearGradient id="paint5_linear_1264_23068" x1="166.585" y1="361.02" x2="166.585" y2="368.577" gradientUnits="userSpaceOnUse">
<stop stop-color="white"/>
<stop offset="1" stop-color="#EDEDED"/>
</linearGradient>
<linearGradient id="paint6_linear_1264_23068" x1="142.111" y1="84.8999" x2="142.111" y2="121.349" gradientUnits="userSpaceOnUse">
<stop stop-color="#E7F4FF"/>
<stop offset="1" stop-color="#F7F7F7"/>
</linearGradient>
<linearGradient id="paint7_linear_1264_23068" x1="190.892" y1="84.8999" x2="190.892" y2="121.349" gradientUnits="userSpaceOnUse">
<stop stop-color="#E7F4FF"/>
<stop offset="1" stop-color="#F7F7F7"/>
</linearGradient>
<linearGradient id="paint8_linear_1264_23068" x1="166.501" y1="133.047" x2="166.501" y2="172.247" gradientUnits="userSpaceOnUse">
<stop stop-color="#E7F4FF"/>
<stop offset="1" stop-color="#F7F7F7"/>
</linearGradient>
</defs>
</svg>
