<svg width="656" height="1176" viewBox="0 0 656 1176" fill="none" xmlns="http://www.w3.org/2000/svg">
<g filter="url(#filter0_d_1043_7896)">
<mask id="path-1-outside-1_1043_7896" maskUnits="userSpaceOnUse" x="14.9141" y="15.9141" width="611" height="1130" fill="black">
<rect fill="white" x="14.9141" y="15.9141" width="611" height="1130"/>
<path d="M320.728 16.9141C490.595 16.9575 629.391 156.804 624.411 316.928C617.767 530.901 401.249 658.756 337.939 691.631C339.941 692.552 341.277 694.594 341.277 696.913C341.277 701.141 336.757 704.744 332.542 704.42C331.242 704.32 329.766 704.234 328.097 704.168L329.223 713.415C329.698 714.639 330.531 715.692 331.614 716.435L345.195 725.736C348.805 726.112 351.62 729.163 351.62 732.872C351.62 736.835 348.407 740.048 344.444 740.048H329.068C339.396 818.493 316.132 873.27 301.377 926.823C293.595 955.069 288.08 983.088 290.32 1014.74C292.558 1046.35 302.571 1091.26 326.5 1134.64C328.258 1137.83 327.099 1141.84 323.911 1143.6C320.723 1145.35 316.713 1144.2 314.955 1141.01C290.269 1096.26 279.563 1049.5 277.168 1015.67C274.775 981.861 280.714 952.183 288.665 923.324C303.924 867.94 326.233 815.964 315.766 740.048H290.955C286.993 740.047 283.78 736.834 283.779 732.872C283.779 732.834 283.782 732.796 283.782 732.758C283.785 732.356 283.826 731.954 283.904 731.557C284.375 729.02 286.178 726.956 288.562 726.111L302.279 716.355C303.253 715.662 304.018 714.714 304.49 713.615L306.088 703.979C303.037 702.906 300.492 700.085 300.492 696.913C300.492 694.658 301.755 692.664 303.665 691.709C240.548 658.958 23.6932 531.07 17.0439 316.928C12.064 156.804 150.86 16.9576 320.728 16.9141Z"/>
</mask>
<path d="M320.728 16.9141L320.728 15.9141L320.727 15.9141L320.728 16.9141ZM624.411 316.928L623.412 316.897V316.897L624.411 316.928ZM337.939 691.631L337.479 690.743L337.521 692.539L337.939 691.631ZM341.277 696.913L342.277 696.913V696.913H341.277ZM332.542 704.42L332.465 705.417H332.465L332.542 704.42ZM328.097 704.168L328.136 703.169L327.104 704.289L328.097 704.168ZM329.223 713.415L328.23 713.536L328.291 713.777L329.223 713.415ZM331.614 716.435L331.049 717.259L331.049 717.26L331.614 716.435ZM345.195 725.736L344.63 726.561L345.092 726.731L345.195 725.736ZM351.62 732.872L352.62 732.872V732.872L351.62 732.872ZM344.444 740.048V741.048V741.048V740.048ZM329.068 740.048V739.048L328.077 740.178L329.068 740.048ZM301.377 926.823L300.413 926.558V926.558L301.377 926.823ZM290.32 1014.74L289.323 1014.81V1014.81L290.32 1014.74ZM326.5 1134.64L327.376 1134.16V1134.16L326.5 1134.64ZM323.911 1143.6L324.394 1144.47H324.394L323.911 1143.6ZM314.955 1141.01L314.079 1141.49H314.079L314.955 1141.01ZM277.168 1015.67L276.17 1015.74V1015.74L277.168 1015.67ZM288.665 923.324L287.701 923.059V923.059L288.665 923.324ZM315.766 740.048L316.756 739.911L315.766 739.048V740.048ZM290.955 740.048L290.955 741.048H290.955V740.048ZM283.779 732.872L282.779 732.872V732.872L283.779 732.872ZM283.782 732.758L284.782 732.773L284.782 732.765L283.782 732.758ZM283.904 731.557L284.886 731.749L284.888 731.739L283.904 731.557ZM288.562 726.111L288.895 727.054L289.141 726.926L288.562 726.111ZM302.279 716.355L302.859 717.17L302.859 717.17L302.279 716.355ZM304.49 713.615L305.409 714.01L305.477 713.779L304.49 713.615ZM306.088 703.979L307.074 704.143L306.42 703.036L306.088 703.979ZM300.492 696.913H299.492V696.913L300.492 696.913ZM303.665 691.709L304.112 692.603L304.126 690.821L303.665 691.709ZM17.0439 316.928L18.0435 316.897L18.0435 316.897L17.0439 316.928ZM320.728 16.9141L320.727 17.9141C490.067 17.9574 628.373 157.372 623.412 316.897L624.411 316.928L625.411 316.959C630.409 156.235 491.124 15.9577 320.728 15.9141L320.728 16.9141ZM624.411 316.928L623.412 316.897C620.1 423.534 564.492 508.764 501.718 571.484C438.945 634.202 369.088 674.329 337.479 690.743L337.939 691.631L338.4 692.518C370.1 676.057 440.156 635.819 503.132 572.898C566.105 509.979 622.078 424.294 625.411 316.959L624.411 316.928ZM337.939 691.631L337.521 692.539C339.165 693.296 340.277 694.982 340.277 696.913H341.277H342.277C342.277 694.206 340.716 691.807 338.357 690.722L337.939 691.631ZM341.277 696.913L340.277 696.913C340.277 698.662 339.337 700.359 337.848 701.607C336.359 702.855 334.426 703.562 332.619 703.423L332.542 704.42L332.465 705.417C334.873 705.602 337.308 704.669 339.133 703.14C340.958 701.61 342.277 699.391 342.277 696.913L341.277 696.913ZM332.542 704.42L332.619 703.423C331.305 703.322 329.816 703.236 328.136 703.169L328.097 704.168L328.057 705.167C329.716 705.233 331.179 705.318 332.465 705.417L332.542 704.42ZM328.097 704.168L327.104 704.289L328.23 713.536L329.223 713.415L330.215 713.294L329.089 704.047L328.097 704.168ZM329.223 713.415L328.291 713.777C328.839 715.188 329.799 716.403 331.049 717.259L331.614 716.435L332.18 715.61C331.263 714.982 330.558 714.09 330.155 713.053L329.223 713.415ZM331.614 716.435L331.049 717.26L344.63 726.561L345.195 725.736L345.76 724.911L332.179 715.61L331.614 716.435ZM345.195 725.736L345.092 726.731C348.197 727.054 350.62 729.681 350.62 732.872L351.62 732.872L352.62 732.872C352.62 728.646 349.412 725.169 345.299 724.742L345.195 725.736ZM351.62 732.872L350.62 732.872C350.62 736.282 347.855 739.048 344.444 739.048V740.048V741.048C348.959 741.048 352.62 737.387 352.62 732.872L351.62 732.872ZM344.444 740.048V739.048H329.068V740.048V741.048H344.444V740.048ZM329.068 740.048L328.077 740.178C338.371 818.368 315.2 872.889 300.413 926.558L301.377 926.823L302.341 927.089C317.064 873.65 340.421 818.618 330.06 739.917L329.068 740.048ZM301.377 926.823L300.413 926.558C292.618 954.85 287.071 982.995 289.323 1014.81L290.32 1014.74L291.318 1014.66C289.089 983.181 294.572 955.288 302.341 927.089L301.377 926.823ZM290.32 1014.74L289.323 1014.81C291.57 1046.55 301.617 1091.6 325.624 1135.13L326.5 1134.64L327.376 1134.16C303.526 1090.92 293.547 1046.16 291.318 1014.66L290.32 1014.74ZM326.5 1134.64L325.624 1135.13C327.116 1137.83 326.133 1141.23 323.428 1142.72L323.911 1143.6L324.394 1144.47C328.066 1142.45 329.401 1137.83 327.376 1134.16L326.5 1134.64ZM323.911 1143.6L323.428 1142.72C320.724 1144.21 317.322 1143.23 315.831 1140.53L314.955 1141.01L314.079 1141.49C316.104 1145.16 320.722 1146.5 324.394 1144.47L323.911 1143.6ZM314.955 1141.01L315.831 1140.53C291.223 1095.92 280.552 1049.31 278.165 1015.6L277.168 1015.67L276.17 1015.74C278.575 1049.7 289.315 1096.6 314.079 1141.49L314.955 1141.01ZM277.168 1015.67L278.165 1015.6C275.784 981.954 281.691 952.402 289.629 923.59L288.665 923.324L287.701 923.059C279.737 951.964 273.766 981.768 276.17 1015.74L277.168 1015.67ZM288.665 923.324L289.629 923.59C304.856 868.323 327.259 816.086 316.756 739.911L315.766 740.048L314.775 740.184C325.206 815.842 302.993 867.557 287.701 923.059L288.665 923.324ZM315.766 740.048V739.048H290.955V740.048V741.048H315.766V740.048ZM290.955 740.048L290.955 739.048C287.545 739.048 284.78 736.282 284.779 732.872L283.779 732.872L282.779 732.872C282.78 737.387 286.44 741.047 290.955 741.048L290.955 740.048ZM283.779 732.872L284.779 732.872C284.779 732.873 284.779 732.872 284.779 732.868C284.779 732.863 284.78 732.858 284.78 732.849C284.78 732.836 284.782 732.804 284.782 732.773L283.782 732.758L282.782 732.742C282.782 732.749 282.782 732.756 282.781 732.78C282.78 732.8 282.779 732.834 282.779 732.872L283.779 732.872ZM283.782 732.758L284.782 732.765C284.785 732.427 284.819 732.087 284.886 731.749L283.904 731.557L282.923 731.364C282.833 731.822 282.786 732.286 282.782 732.751L283.782 732.758ZM283.904 731.557L284.888 731.739C285.292 729.559 286.843 727.781 288.895 727.054L288.562 726.111L288.228 725.169C285.512 726.13 283.458 728.481 282.921 731.374L283.904 731.557ZM288.562 726.111L289.141 726.926L302.859 717.17L302.279 716.355L301.7 715.541L287.982 725.296L288.562 726.111ZM302.279 716.355L302.859 717.17C303.983 716.371 304.865 715.276 305.409 714.01L304.49 713.615L303.572 713.22C303.172 714.151 302.524 714.954 301.7 715.541L302.279 716.355ZM304.49 713.615L305.477 713.779L307.074 704.143L306.088 703.979L305.101 703.816L303.504 713.452L304.49 713.615ZM306.088 703.979L306.42 703.036C303.651 702.062 301.492 699.548 301.492 696.913L300.492 696.913L299.492 696.913C299.492 700.622 302.422 703.749 305.756 704.923L306.088 703.979ZM300.492 696.913H301.492C301.492 695.035 302.543 693.388 304.112 692.603L303.665 691.709L303.218 690.815C300.968 691.94 299.492 694.281 299.492 696.913H300.492ZM303.665 691.709L304.126 690.821C272.612 674.469 202.719 634.365 139.886 571.632C77.0511 508.898 21.3572 423.619 18.0435 316.897L17.0439 316.928L16.0444 316.959C19.3799 424.379 75.4382 510.114 138.473 573.048C201.508 635.982 271.601 676.198 303.204 692.597L303.665 691.709ZM17.0439 316.928L18.0435 316.897C13.0821 157.372 151.388 17.9575 320.728 17.9141L320.728 16.9141L320.727 15.9141C150.331 15.9577 11.0458 156.235 16.0444 316.959L17.0439 316.928Z" fill="black" mask="url(#path-1-outside-1_1043_7896)"/>
<path d="M327.165 727.523C341.858 812.751 316.905 870.465 301.377 926.824C293.595 955.07 288.08 983.088 290.32 1014.74C292.558 1046.35 302.572 1091.26 326.5 1134.64C328.259 1137.83 327.1 1141.84 323.912 1143.6C320.723 1145.35 316.714 1144.2 314.956 1141.01C290.27 1096.26 279.563 1049.5 277.168 1015.67C274.775 981.861 280.715 952.183 288.666 923.324C304.604 865.474 328.235 811.342 314.17 729.762L327.165 727.523Z" fill="url(#paint0_linear_1043_7896)"/>
<path d="M307.304 696.645C309.609 691.28 325.089 691.414 327.205 696.857L329.22 713.414C329.696 714.638 330.53 715.69 331.613 716.433L347.754 727.49C353.044 731.114 350.479 739.395 344.068 739.395H290.314C283.962 739.395 281.357 731.239 286.532 727.557L302.277 716.353C303.252 715.66 304.017 714.712 304.489 713.613L307.304 696.645Z" fill="url(#paint1_linear_1043_7896)"/>
<rect x="283.778" y="725.696" width="67.8392" height="14.3506" rx="7.17531" fill="url(#paint2_linear_1043_7896)"/>
<g filter="url(#filter1_ii_1043_7896)">
<path d="M320.727 16.9141C490.595 16.9574 629.39 156.803 624.41 316.927C616.651 566.831 322.615 699.27 320.727 700.118C318.807 699.256 24.8026 566.818 17.0435 316.927C12.0635 156.803 150.859 16.9576 320.727 16.9141Z" fill="url(#paint3_radial_1043_7896)"/>
</g>
<g style="mix-blend-mode:overlay" filter="url(#filter2_f_1043_7896)">
<path d="M320.885 418.73C446.964 418.744 503.095 467.088 499.398 517.189C495.292 572.937 407.014 621.691 356.165 645.184C333.164 655.811 308.606 655.812 285.604 645.185C234.755 621.693 146.478 572.937 142.372 517.189C138.675 467.088 194.806 418.744 320.885 418.73Z" fill="url(#paint4_linear_1043_7896)" fill-opacity="0.15"/>
</g>
<path d="M300.492 696.914C300.492 693.988 302.617 691.503 305.522 691.154C309.596 690.665 315.52 690.091 320.884 690.091C326.249 690.091 332.173 690.665 336.247 691.154C339.151 691.503 341.277 693.988 341.277 696.914C341.277 701.142 336.757 704.745 332.542 704.421C329.615 704.196 325.802 704.035 320.884 704.035C315.967 704.035 312.153 704.196 309.227 704.421C305.012 704.745 300.492 701.142 300.492 696.914Z" fill="url(#paint5_linear_1043_7896)"/>
<g filter="url(#filter3_d_1043_7896)">
<path d="M368.585 266.462C370.447 266.237 372.324 266.283 374.143 266.57C374.155 266.571 374.169 266.574 374.181 266.576C375.809 266.815 377.372 267.272 378.829 267.866L379.451 268.13L379.521 268.163L380.598 268.68L380.646 268.703L380.692 268.727C381.112 268.95 381.508 269.187 381.835 269.383L381.843 269.388L381.853 269.395L382.393 269.724L382.435 269.752L382.726 269.945L383.301 270.324C386.367 272.336 389.264 274.252 391.838 275.99C396.58 279.182 400.419 281.88 402.167 283.396L402.489 283.684L402.492 283.687C406.57 287.48 405.572 292.784 403.277 296.435C400.981 300.084 396.758 303.295 392.199 303.52C391.255 303.567 390.27 303.306 389.448 303.025C388.559 302.722 387.559 302.285 386.489 301.761C384.346 300.711 381.729 299.213 378.827 297.431C376.52 296.017 374.005 294.398 371.367 292.656C370.232 293.976 369.102 295.287 367.999 296.567L367.995 296.572C367.298 297.378 366.613 298.167 365.93 298.955L365.418 299.543L365.406 299.557L365.392 299.571L364.946 300.072L364.916 300.105L364.395 300.664L364.396 300.665C363.557 301.595 362.639 302.389 361.792 303.079L361.787 303.074C358.117 306.044 353.746 307.715 349.6 308.279L349.601 308.28C345.386 308.868 341.31 308.318 337.789 307.023C334.269 305.75 331.322 303.763 329.092 301.603L329.066 301.578C328.193 300.709 327.128 299.497 326.695 298.93L325.626 297.589C325.322 297.209 325.041 296.861 324.785 296.547C323.148 298.504 321.467 300.512 319.792 302.515L319.788 302.521L319.39 302.992L319.387 302.997L319.141 303.287L319.12 303.311L319.099 303.335L318.7 303.784L318.677 303.809C318.189 304.344 317.562 305.048 316.823 305.688L316.825 305.689C316.2 306.257 315.493 306.86 314.69 307.411L314.691 307.412L313.704 308.098L313.643 308.143L313.578 308.182C313.186 308.422 312.782 308.647 312.461 308.829L312.449 308.836L312.44 308.841C309.295 310.589 305.814 311.576 302.365 311.784C298.904 312 295.471 311.423 292.386 310.208C289.309 308.997 286.557 307.159 284.4 304.976L284.39 304.963L284.38 304.953C280.382 300.815 277.01 297.326 274.926 295.169C274.52 294.749 274.068 294.294 273.579 293.811C271.901 295.241 270.199 296.678 268.519 298.07L268.517 298.072C264.594 301.318 260.718 304.38 257.424 306.627C255.781 307.748 254.224 308.707 252.839 309.387C251.557 310.017 250.042 310.606 248.614 310.551C246.491 310.469 244.432 309.568 242.679 308.351C240.902 307.117 239.271 305.446 237.982 303.555C235.475 299.877 233.877 294.725 236.074 290.063C236.567 289.015 237.537 287.964 238.489 287.047C239.519 286.057 240.833 284.942 242.322 283.757C245.305 281.383 249.148 278.602 253.171 275.763L253.172 275.759C254.167 275.059 255.196 274.334 256.222 273.618L256.225 273.615L257.761 272.545L258.413 272.084L259.251 271.519C259.894 271.077 260.646 270.689 261.061 270.456L261.084 270.442L261.109 270.428C266.121 267.754 271.865 267.026 276.938 267.98L277.413 268.073C282.301 269.075 286.524 271.565 289.502 274.552L289.991 275.037L290.038 275.083L290.083 275.131L290.331 275.404L290.343 275.417L290.355 275.431L290.811 275.934L290.823 275.947L290.834 275.958C291.133 276.293 291.422 276.605 291.731 276.943L292.592 277.863C292.864 278.152 293.125 278.426 293.376 278.684L295.211 280.596L297.46 282.981L297.469 282.99C298.274 283.855 299.148 284.789 300.075 285.779C300.455 286.181 300.84 286.598 301.223 287.011L302.907 285.096C304.056 283.784 305.206 282.47 306.349 281.166C306.918 280.513 307.487 279.862 308.057 279.217L308.078 279.194L308.712 278.494L308.763 278.438L309.528 277.641L309.778 277.391C310.358 276.828 310.991 276.331 311.401 275.99L311.431 275.965L311.462 275.942C314.107 273.875 317.18 272.516 320.255 271.891C323.329 271.266 326.41 271.347 329.226 271.99C332.055 272.633 334.611 273.843 336.733 275.361L337.419 275.859L337.52 275.928L337.611 276.009C337.709 276.093 337.808 276.176 337.916 276.267C338.021 276.356 338.137 276.454 338.252 276.553L338.272 276.571L338.29 276.586C338.538 276.809 339.17 277.333 339.647 277.861C339.658 277.873 339.671 277.885 339.683 277.898C340.053 278.299 340.404 278.696 340.731 279.069L340.749 279.09L340.764 279.109L340.886 279.254L340.917 279.29L340.948 279.329L341.015 279.416L341.156 279.595L341.166 279.608L341.436 279.959C342.152 280.879 342.815 281.724 343.413 282.48L345.001 284.478L345.066 284.562C345.078 284.576 345.188 284.696 345.494 284.802C345.544 284.815 345.675 284.838 345.851 284.817C346.017 284.797 346.153 284.746 346.249 284.691C346.28 284.666 346.317 284.637 346.356 284.608C346.364 284.601 346.374 284.593 346.384 284.586C346.406 284.564 346.432 284.539 346.461 284.512C346.509 284.453 346.582 284.363 346.677 284.262C346.786 284.123 346.898 283.984 347.005 283.849C347.144 283.673 347.279 283.502 347.41 283.333L347.419 283.32C348.539 281.902 349.693 280.435 350.867 278.94C352.041 277.446 353.238 275.923 354.448 274.391L354.456 274.38L354.568 274.24L354.603 274.197L354.762 274.006L354.774 273.994L354.784 273.981L355.181 273.516L355.208 273.487L355.234 273.459C355.346 273.335 355.785 272.814 356.166 272.448L356.648 271.987C357.135 271.53 357.667 271.064 358.252 270.626L358.819 270.204C360.149 269.247 361.607 268.439 363.153 267.833C364.892 267.127 366.727 266.664 368.585 266.462Z" fill="url(#paint6_linear_1043_7896)"/>
<path d="M242.153 225.434C243.099 231.498 252.525 243.931 256.579 242.657C260.632 241.384 281.409 222.098 286.499 218.367C287.979 217.282 290.738 215.45 295.188 212.376C299.363 209.484 300.439 203.707 297.599 199.467C297.251 198.949 296.855 198.473 296.426 198.045L294.953 196.599C289.177 190.937 279.67 181.734 276.183 178.8C271.255 174.659 260.972 160.763 257.347 161.536C251.87 162.703 242.476 175.316 241.384 180.764C240.3 186.213 255.859 194.315 260.745 198.432C262.072 199.574 264.305 201.489 266.87 203.691C256.959 210.363 241.457 220.939 242.161 225.434H242.153Z" fill="url(#paint7_linear_1043_7896)"/>
<path d="M399.299 225.434C398.352 231.498 388.927 243.931 384.873 242.657C380.82 241.384 360.042 222.098 354.953 218.367C353.472 217.282 350.714 215.45 346.264 212.376C342.089 209.484 341.013 203.707 343.852 199.467C344.2 198.949 344.597 198.473 345.026 198.045L346.498 196.599C352.275 190.937 361.782 181.734 365.269 178.8C370.196 174.659 380.48 160.763 384.104 161.536C389.582 162.703 398.975 175.316 400.068 180.764C401.152 186.213 385.593 194.315 380.706 198.432C379.379 199.574 377.146 201.489 374.581 203.691C384.493 210.363 399.995 220.939 399.291 225.434H399.299Z" fill="url(#paint8_linear_1043_7896)"/>
</g>
<g opacity="0.6" filter="url(#filter4_f_1043_7896)">
<path d="M178.377 91.2911C186.009 88.9527 197.424 88.1044 205.585 91.4703C212.75 94.425 219.349 101.313 219.757 111.262C220.164 121.211 216.215 128.402 208.089 132.245C200.121 136.013 196.847 136.809 184.159 146.497C175.926 152.784 171.433 162.982 154.777 159.286C138.975 155.781 133.997 136.287 141.586 121.255C149.924 104.74 168.398 94.349 178.377 91.2911Z" fill="#FFC8DA"/>
</g>
</g>
<defs>
<filter id="filter0_d_1043_7896" x="-2.18795" y="4.24385e-05" width="660.295" height="1175.8" filterUnits="userSpaceOnUse" color-interpolation-filters="sRGB">
<feFlood flood-opacity="0" result="BackgroundImageFix"/>
<feColorMatrix in="SourceAlpha" type="matrix" values="0 0 0 0 0 0 0 0 0 0 0 0 0 0 0 0 0 0 127 0" result="hardAlpha"/>
<feOffset dx="7.23365" dy="7.23365"/>
<feGaussianBlur stdDeviation="11.5738"/>
<feComposite in2="hardAlpha" operator="out"/>
<feColorMatrix type="matrix" values="0 0 0 0 0 0 0 0 0 0 0 0 0 0 0 0 0 0 0.12 0"/>
<feBlend mode="normal" in2="BackgroundImageFix" result="effect1_dropShadow_1043_7896"/>
<feBlend mode="normal" in="SourceGraphic" in2="effect1_dropShadow_1043_7896" result="shape"/>
</filter>
<filter id="filter1_ii_1043_7896" x="-49.636" y="-87.2504" width="732.045" height="833.664" filterUnits="userSpaceOnUse" color-interpolation-filters="sRGB">
<feFlood flood-opacity="0" result="BackgroundImageFix"/>
<feBlend mode="normal" in="SourceGraphic" in2="BackgroundImageFix" result="shape"/>
<feColorMatrix in="SourceAlpha" type="matrix" values="0 0 0 0 0 0 0 0 0 0 0 0 0 0 0 0 0 0 127 0" result="hardAlpha"/>
<feOffset dx="-66.5496" dy="-104.165"/>
<feGaussianBlur stdDeviation="82.4636"/>
<feComposite in2="hardAlpha" operator="arithmetic" k2="-1" k3="1"/>
<feColorMatrix type="matrix" values="0 0 0 0 0 0 0 0 0 0 0 0 0 0 0 0 0 0 0.14 0"/>
<feBlend mode="normal" in2="shape" result="effect1_innerShadow_1043_7896"/>
<feColorMatrix in="SourceAlpha" type="matrix" values="0 0 0 0 0 0 0 0 0 0 0 0 0 0 0 0 0 0 127 0" result="hardAlpha"/>
<feOffset dx="57.8692" dy="46.2953"/>
<feGaussianBlur stdDeviation="78.1234"/>
<feComposite in2="hardAlpha" operator="arithmetic" k2="-1" k3="1"/>
<feColorMatrix type="matrix" values="0 0 0 0 1 0 0 0 0 1 0 0 0 0 1 0 0 0 0.48 0"/>
<feBlend mode="overlay" in2="effect1_innerShadow_1043_7896" result="effect2_innerShadow_1043_7896"/>
</filter>
<filter id="filter2_f_1043_7896" x="49.61" y="326.14" width="542.55" height="419.605" filterUnits="userSpaceOnUse" color-interpolation-filters="sRGB">
<feFlood flood-opacity="0" result="BackgroundImageFix"/>
<feBlend mode="normal" in="SourceGraphic" in2="BackgroundImageFix" result="shape"/>
<feGaussianBlur stdDeviation="46.2953" result="effect1_foregroundBlur_1043_7896"/>
</filter>
<filter id="filter3_d_1043_7896" x="165.592" y="92.0619" width="309.126" height="289.209" filterUnits="userSpaceOnUse" color-interpolation-filters="sRGB">
<feFlood flood-opacity="0" result="BackgroundImageFix"/>
<feColorMatrix in="SourceAlpha" type="matrix" values="0 0 0 0 0 0 0 0 0 0 0 0 0 0 0 0 0 0 127 0" result="hardAlpha"/>
<feOffset/>
<feGaussianBlur stdDeviation="34.7215"/>
<feComposite in2="hardAlpha" operator="out"/>
<feColorMatrix type="matrix" values="0 0 0 0 0.823529 0 0 0 0 0 0 0 0 0 0.27451 0 0 0 0.35 0"/>
<feBlend mode="normal" in2="BackgroundImageFix" result="effect1_dropShadow_1043_7896"/>
<feBlend mode="normal" in="SourceGraphic" in2="effect1_dropShadow_1043_7896" result="shape"/>
</filter>
<filter id="filter4_f_1043_7896" x="80.2299" y="31.3652" width="197.425" height="186.576" filterUnits="userSpaceOnUse" color-interpolation-filters="sRGB">
<feFlood flood-opacity="0" result="BackgroundImageFix"/>
<feBlend mode="normal" in="SourceGraphic" in2="BackgroundImageFix" result="shape"/>
<feGaussianBlur stdDeviation="28.9346" result="effect1_foregroundBlur_1043_7896"/>
</filter>
<linearGradient id="paint0_linear_1043_7896" x1="320.887" y1="745.92" x2="301.888" y2="1130.87" gradientUnits="userSpaceOnUse">
<stop stop-color="white"/>
<stop offset="1" stop-color="#EDEDED"/>
</linearGradient>
<linearGradient id="paint1_linear_1043_7896" x1="317.191" y1="692.697" x2="317.191" y2="739.395" gradientUnits="userSpaceOnUse">
<stop stop-color="#CA0043"/>
<stop offset="0.65" stop-color="#D20046"/>
</linearGradient>
<linearGradient id="paint2_linear_1043_7896" x1="316.393" y1="724.008" x2="316.393" y2="745.533" gradientUnits="userSpaceOnUse">
<stop stop-color="#9F0035"/>
<stop offset="1" stop-color="#6C0024"/>
</linearGradient>
<radialGradient id="paint3_radial_1043_7896" cx="0" cy="0" r="1" gradientTransform="matrix(346.372 612.51 612.298 -346.292 278.486 133.676)" gradientUnits="userSpaceOnUse">
<stop offset="0.253496" stop-color="#FF5890"/>
<stop offset="0.731106" stop-color="#D20046"/>
</radialGradient>
<linearGradient id="paint4_linear_1043_7896" x1="320.885" y1="476.814" x2="320.885" y2="914.42" gradientUnits="userSpaceOnUse">
<stop stop-color="#FFC8DA"/>
<stop offset="1" stop-color="#FFC8DA" stop-opacity="0"/>
</linearGradient>
<linearGradient id="paint5_linear_1043_7896" x1="320.884" y1="690.091" x2="320.884" y2="704.441" gradientUnits="userSpaceOnUse">
<stop stop-color="white"/>
<stop offset="1" stop-color="#EDEDED"/>
</linearGradient>
<linearGradient id="paint6_linear_1043_7896" x1="327.428" y1="319.673" x2="328.079" y2="257.861" gradientUnits="userSpaceOnUse">
<stop stop-color="#F5F5F5"/>
<stop offset="1" stop-color="#FFE7EF"/>
</linearGradient>
<linearGradient id="paint7_linear_1043_7896" x1="270.258" y1="161.505" x2="270.258" y2="242.748" gradientUnits="userSpaceOnUse">
<stop stop-color="#FFE7EF"/>
<stop offset="1" stop-color="#F7F7F7"/>
</linearGradient>
<linearGradient id="paint8_linear_1043_7896" x1="371.194" y1="161.505" x2="371.194" y2="242.748" gradientUnits="userSpaceOnUse">
<stop stop-color="#FFE7EF"/>
<stop offset="1" stop-color="#F7F7F7"/>
</linearGradient>
</defs>
</svg>
