<svg width="663" height="860" viewBox="0 0 663 860" fill="none" xmlns="http://www.w3.org/2000/svg">
<g filter="url(#filter0_d_1039_1335)">
<mask id="path-1-outside-1_1039_1335" maskUnits="userSpaceOnUse" x="15.0814" y="16.0811" width="617" height="1130" fill="black">
<rect fill="white" x="15.0814" y="16.0811" width="617" height="1130"/>
<path d="M324.081 17.0811C495.731 17.1251 635.982 158.437 630.95 320.241C624.236 536.456 405.454 665.651 341.477 698.874C343.498 699.805 344.849 701.868 344.849 704.211C344.849 708.483 340.28 712.124 336.021 711.797C335.62 711.766 335.202 711.736 334.767 711.708L335.885 720.889C336.366 722.125 337.207 723.19 338.301 723.94L352.025 733.34C355.672 733.719 358.517 736.802 358.518 740.55C358.518 744.554 355.271 747.8 351.267 747.801H333.327C341.247 822.228 319.007 875.185 304.732 926.997C296.95 955.243 291.435 983.262 293.675 1014.91C295.913 1046.52 305.926 1091.44 329.855 1134.82C331.613 1138 330.454 1142.01 327.266 1143.77C324.078 1145.53 320.069 1144.37 318.311 1141.18C293.625 1096.43 282.918 1049.68 280.523 1015.84C278.13 982.034 284.07 952.356 292.021 923.497C306.767 869.976 328.095 819.637 320.067 747.801H297.216C293.212 747.8 289.965 744.554 289.965 740.55C289.965 740.512 289.968 740.474 289.968 740.436C289.971 740.03 290.013 739.623 290.092 739.222C290.567 736.658 292.389 734.572 294.797 733.719L308.659 723.86C309.643 723.16 310.416 722.202 310.893 721.092L312.434 711.798C308.183 712.107 303.635 708.474 303.635 704.211C303.635 701.934 304.911 699.921 306.838 698.955C243.058 665.859 23.931 536.629 17.2123 320.241C12.1803 158.437 152.432 17.1251 324.081 17.0811Z"/>
</mask>
<path d="M324.081 17.0811C495.731 17.1251 635.982 158.437 630.95 320.241C624.236 536.456 405.454 665.651 341.477 698.874C343.498 699.805 344.849 701.868 344.849 704.211C344.849 708.483 340.28 712.124 336.021 711.797C335.62 711.766 335.202 711.736 334.767 711.708L335.885 720.889C336.366 722.125 337.207 723.19 338.301 723.94L352.025 733.34C355.672 733.719 358.517 736.802 358.518 740.55C358.518 744.554 355.271 747.8 351.267 747.801H333.327C341.247 822.228 319.007 875.185 304.732 926.997C296.95 955.243 291.435 983.262 293.675 1014.91C295.913 1046.52 305.926 1091.44 329.855 1134.82C331.613 1138 330.454 1142.01 327.266 1143.77C324.078 1145.53 320.069 1144.37 318.311 1141.18C293.625 1096.43 282.918 1049.68 280.523 1015.84C278.13 982.034 284.07 952.356 292.021 923.497C306.767 869.976 328.095 819.637 320.067 747.801H297.216C293.212 747.8 289.965 744.554 289.965 740.55C289.965 740.512 289.968 740.474 289.968 740.436C289.971 740.03 290.013 739.623 290.092 739.222C290.567 736.658 292.389 734.572 294.797 733.719L308.659 723.86C309.643 723.16 310.416 722.202 310.893 721.092L312.434 711.798C308.183 712.107 303.635 708.474 303.635 704.211C303.635 701.934 304.911 699.921 306.838 698.955C243.058 665.859 23.931 536.629 17.2123 320.241C12.1803 158.437 152.432 17.1251 324.081 17.0811Z" fill="#C8E6FF"/>
<path d="M324.081 17.0811L324.082 16.0811L324.081 16.0811L324.081 17.0811ZM630.95 320.241L629.95 320.21V320.21L630.95 320.241ZM341.477 698.874L341.016 697.987L341.059 699.782L341.477 698.874ZM344.849 704.211H345.849V704.211H344.849ZM336.021 711.797L336.098 710.8V710.8L336.021 711.797ZM334.767 711.708L334.832 710.71L333.774 711.829L334.767 711.708ZM335.885 720.889L334.892 721.01L334.953 721.251L335.885 720.889ZM338.301 723.94L337.736 724.765L337.736 724.765L338.301 723.94ZM352.025 733.34L351.46 734.165L351.921 734.334L352.025 733.34ZM358.518 740.55H359.518V740.55L358.518 740.55ZM351.267 747.801V748.801H351.267L351.267 747.801ZM333.327 747.801V746.801L332.332 747.907L333.327 747.801ZM304.732 926.997L303.768 926.731V926.731L304.732 926.997ZM293.675 1014.91L292.678 1014.98V1014.98L293.675 1014.91ZM329.855 1134.82L330.73 1134.33H330.73L329.855 1134.82ZM327.266 1143.77L327.749 1144.65H327.749L327.266 1143.77ZM318.311 1141.18L317.435 1141.66V1141.66L318.311 1141.18ZM280.523 1015.84L279.525 1015.91V1015.91L280.523 1015.84ZM292.021 923.497L291.057 923.231V923.231L292.021 923.497ZM320.067 747.801L321.061 747.69L320.067 746.801V747.801ZM297.216 747.801L297.216 748.801H297.216V747.801ZM289.965 740.55L288.965 740.55V740.55H289.965ZM289.968 740.436L290.968 740.451L290.968 740.443L289.968 740.436ZM290.092 739.222L291.073 739.414L291.075 739.404L290.092 739.222ZM294.797 733.719L295.131 734.661L295.377 734.534L294.797 733.719ZM308.659 723.86L309.238 724.675L309.238 724.675L308.659 723.86ZM310.893 721.092L311.812 721.487L311.879 721.255L310.893 721.092ZM312.434 711.798L313.421 711.961L312.361 710.8L312.434 711.798ZM303.635 704.211H302.635V704.211H303.635ZM306.838 698.955L307.286 699.849L307.299 698.067L306.838 698.955ZM17.2123 320.241L18.2118 320.21L18.2118 320.21L17.2123 320.241ZM324.081 17.0811L324.081 18.0811C495.202 18.1249 634.963 159.006 629.95 320.21L630.95 320.241L631.949 320.272C637 157.869 496.259 16.1252 324.082 16.0811L324.081 17.0811ZM630.95 320.241L629.95 320.21C626.604 427.969 570.412 514.093 506.98 577.472C443.55 640.849 372.96 681.399 341.016 697.987L341.477 698.874L341.938 699.761C373.972 683.127 444.761 642.467 508.394 578.887C572.026 515.308 628.582 428.728 631.949 320.272L630.95 320.241ZM341.477 698.874L341.059 699.782C342.723 700.549 343.849 702.256 343.849 704.211H344.849H345.849C345.849 701.48 344.274 699.061 341.895 697.966L341.477 698.874ZM344.849 704.211H343.849C343.849 705.983 342.896 707.7 341.39 708.962C339.883 710.225 337.927 710.94 336.098 710.8L336.021 711.797L335.944 712.794C338.374 712.981 340.832 712.039 342.675 710.495C344.517 708.951 345.849 706.711 345.849 704.211H344.849ZM336.021 711.797L336.098 710.8C335.692 710.769 335.271 710.739 334.832 710.71L334.767 711.708L334.702 712.706C335.133 712.734 335.547 712.763 335.944 712.794L336.021 711.797ZM334.767 711.708L333.774 711.829L334.892 721.01L335.885 720.889L336.878 720.768L335.76 711.587L334.767 711.708ZM335.885 720.889L334.953 721.251C335.506 722.674 336.474 723.901 337.736 724.765L338.301 723.94L338.866 723.116C337.939 722.48 337.225 721.577 336.817 720.526L335.885 720.889ZM338.301 723.94L337.736 724.765L351.46 734.165L352.025 733.34L352.59 732.515L338.866 723.115L338.301 723.94ZM352.025 733.34L351.921 734.334C355.065 734.661 357.518 737.32 357.518 740.55L358.518 740.55L359.518 740.55C359.517 736.284 356.28 732.777 352.128 732.345L352.025 733.34ZM358.518 740.55H357.518C357.518 744.002 354.719 746.801 351.267 746.801L351.267 747.801L351.267 748.801C355.823 748.8 359.518 745.106 359.518 740.55H358.518ZM351.267 747.801V746.801H333.327V747.801V748.801H351.267V747.801ZM333.327 747.801L332.332 747.907C340.227 822.093 318.075 874.803 303.768 926.731L304.732 926.997L305.696 927.263C319.939 875.567 342.267 822.364 334.321 747.695L333.327 747.801ZM304.732 926.997L303.768 926.731C295.973 955.024 290.426 983.169 292.678 1014.98L293.675 1014.91L294.673 1014.84C292.444 983.355 297.926 955.462 305.696 927.263L304.732 926.997ZM293.675 1014.91L292.678 1014.98C294.924 1046.72 304.972 1091.78 328.979 1135.3L329.855 1134.82L330.73 1134.33C306.881 1091.1 296.902 1046.33 294.673 1014.84L293.675 1014.91ZM329.855 1134.82L328.979 1135.3C330.471 1138 329.488 1141.4 326.783 1142.89L327.266 1143.77L327.749 1144.65C331.421 1142.62 332.755 1138.01 330.73 1134.33L329.855 1134.82ZM327.266 1143.77L326.783 1142.89C324.079 1144.39 320.678 1143.4 319.187 1140.7L318.311 1141.18L317.435 1141.66C319.46 1145.34 324.077 1146.67 327.749 1144.65L327.266 1143.77ZM318.311 1141.18L319.187 1140.7C294.579 1096.09 283.907 1049.48 281.52 1015.77L280.523 1015.84L279.525 1015.91C281.93 1049.87 292.671 1096.77 317.435 1141.66L318.311 1141.18ZM280.523 1015.84L281.52 1015.77C279.139 982.127 285.047 952.575 292.985 923.763L292.021 923.497L291.057 923.231C283.093 952.136 277.121 981.941 279.525 1015.91L280.523 1015.84ZM292.021 923.497L292.985 923.763C307.698 870.36 329.116 819.771 321.061 747.69L320.067 747.801L319.073 747.912C327.074 819.504 305.835 869.592 291.057 923.231L292.021 923.497ZM320.067 747.801V746.801H297.216V747.801V748.801H320.067V747.801ZM297.216 747.801L297.216 746.801C293.764 746.8 290.965 744.002 290.965 740.55H289.965H288.965C288.965 745.106 292.66 748.8 297.216 748.801L297.216 747.801ZM289.965 740.55L290.965 740.55C290.965 740.55 290.965 740.549 290.965 740.545C290.965 740.541 290.966 740.536 290.966 740.527C290.966 740.514 290.968 740.482 290.968 740.451L289.968 740.436L288.968 740.42C288.968 740.427 288.968 740.433 288.967 740.458C288.966 740.478 288.965 740.512 288.965 740.55L289.965 740.55ZM289.968 740.436L290.968 740.443C290.971 740.101 291.006 739.757 291.073 739.414L290.092 739.222L289.111 739.029C289.02 739.49 288.972 739.958 288.968 740.428L289.968 740.436ZM290.092 739.222L291.075 739.404C291.485 737.197 293.054 735.397 295.131 734.661L294.797 733.719L294.463 732.776C291.723 733.747 289.65 736.12 289.109 739.039L290.092 739.222ZM294.797 733.719L295.377 734.534L309.238 724.675L308.659 723.86L308.079 723.045L294.218 732.904L294.797 733.719ZM308.659 723.86L309.238 724.675C310.372 723.868 311.262 722.765 311.812 721.487L310.893 721.092L309.974 720.697C309.569 721.639 308.914 722.452 308.079 723.046L308.659 723.86ZM310.893 721.092L311.879 721.255L313.421 711.961L312.434 711.798L311.447 711.634L309.906 720.928L310.893 721.092ZM312.434 711.798L312.361 710.8C310.534 710.933 308.585 710.215 307.084 708.953C305.583 707.692 304.635 705.979 304.635 704.211H303.635H302.635C302.635 706.706 303.961 708.94 305.797 710.484C307.632 712.027 310.082 712.971 312.506 712.795L312.434 711.798ZM303.635 704.211H304.635C304.635 702.311 305.698 700.645 307.286 699.849L306.838 698.955L306.39 698.061C304.123 699.197 302.635 701.557 302.635 704.211H303.635ZM306.838 698.955L307.299 698.067C275.454 681.543 204.827 641.017 141.334 577.625C77.8396 514.232 21.5603 428.055 18.2118 320.21L17.2123 320.241L16.2128 320.272C19.583 428.815 76.2266 515.447 139.921 579.04C203.616 642.634 274.442 683.271 306.378 699.843L306.838 698.955ZM17.2123 320.241L18.2118 320.21C13.1985 159.006 152.961 18.1249 324.082 18.0811L324.081 17.0811L324.081 16.0811C151.904 16.1252 11.1621 157.869 16.2128 320.272L17.2123 320.241Z" fill="black" mask="url(#path-1-outside-1_1039_1335)"/>
<path d="M330.52 727.695C345.213 812.923 320.26 870.637 304.732 926.995C296.95 955.242 291.435 983.26 293.675 1014.91C295.913 1046.52 305.926 1091.44 329.855 1134.82C331.613 1138 330.454 1142.01 327.266 1143.77C324.078 1145.53 320.069 1144.37 318.311 1141.18C293.625 1096.43 282.918 1049.67 280.523 1015.84C278.13 982.032 284.069 952.354 292.021 923.496C307.959 865.646 331.59 811.514 317.525 729.933L330.52 727.695Z" fill="url(#paint0_linear_1039_1335)"/>
<path d="M313.74 703.943C316.069 698.522 331.711 698.657 333.849 704.157L335.885 720.888C336.366 722.125 337.209 723.188 338.304 723.938L354.614 735.112C359.959 738.773 357.367 747.141 350.889 747.141H296.571C290.153 747.141 287.52 738.9 292.75 735.179L308.66 723.858C309.645 723.157 310.418 722.199 310.895 721.089L313.74 703.943Z" fill="url(#paint1_linear_1039_1335)"/>
<rect x="289.967" y="733.299" width="68.5508" height="14.5011" rx="7.25057" fill="url(#paint2_linear_1039_1335)"/>
<g filter="url(#filter1_ii_1039_1335)">
<path d="M324.082 17.0811C495.732 17.1249 635.983 158.437 630.951 320.241C623.11 572.767 325.99 706.594 324.082 707.451C322.142 706.58 25.0538 572.753 17.2134 320.241C12.1812 158.437 152.433 17.1251 324.082 17.0811Z" fill="url(#paint3_radial_1039_1335)"/>
</g>
<g style="mix-blend-mode:overlay" filter="url(#filter2_f_1039_1335)">
<path d="M324.243 423.112C451.644 423.126 508.364 471.977 504.629 522.604C500.479 578.936 411.275 628.202 359.893 651.941C336.65 662.679 311.834 662.681 288.591 651.943C237.209 628.204 148.006 578.936 143.857 522.604C140.122 471.977 196.841 423.126 324.243 423.112Z" fill="url(#paint4_linear_1039_1335)" fill-opacity="0.15"/>
</g>
<path d="M303.636 704.211C303.636 701.255 305.784 698.743 308.719 698.391C312.836 697.897 318.822 697.316 324.243 697.316C329.663 697.316 335.649 697.897 339.766 698.391C342.701 698.743 344.849 701.255 344.849 704.211C344.849 708.483 340.282 712.124 336.022 711.797C333.065 711.57 329.211 711.406 324.243 711.406C319.274 711.406 315.42 711.57 312.463 711.797C308.204 712.124 303.636 708.483 303.636 704.211Z" fill="url(#paint5_linear_1039_1335)"/>
<g filter="url(#filter3_d_1039_1335)">
<path d="M375.666 269.243C377.548 269.016 379.444 269.063 381.282 269.353C381.295 269.354 381.309 269.357 381.321 269.359C382.966 269.601 384.545 270.062 386.017 270.662L386.646 270.929L386.717 270.963L387.805 271.486L387.853 271.509L387.9 271.533C388.324 271.758 388.724 271.997 389.055 272.196L389.063 272.201L389.073 272.207L389.619 272.54L389.661 272.568L389.956 272.763L390.536 273.146C393.634 275.179 396.562 277.115 399.163 278.872C403.955 282.097 407.834 284.824 409.6 286.356L409.925 286.646L409.929 286.65C414.05 290.482 413.041 295.842 410.721 299.531C408.402 303.219 404.134 306.463 399.528 306.69C398.574 306.738 397.578 306.475 396.747 306.191C395.85 305.884 394.839 305.442 393.758 304.913C391.593 303.852 388.948 302.338 386.016 300.538C383.684 299.109 381.143 297.473 378.477 295.712C377.33 297.047 376.189 298.371 375.074 299.665L375.07 299.67C374.365 300.484 373.674 301.282 372.983 302.078L372.466 302.672L372.454 302.686L372.44 302.7L371.989 303.206L371.958 303.24L371.432 303.805L371.433 303.806C370.586 304.745 369.658 305.548 368.802 306.245L368.797 306.24C365.088 309.242 360.671 310.929 356.482 311.499L356.483 311.501C352.224 312.094 348.105 311.539 344.547 310.231C340.99 308.944 338.012 306.936 335.758 304.754L335.733 304.728C334.851 303.85 333.774 302.625 333.337 302.052L332.257 300.697C331.949 300.314 331.665 299.961 331.406 299.644C329.752 301.622 328.053 303.651 326.361 305.674L326.357 305.681L325.955 306.157L325.951 306.162L325.704 306.455L325.682 306.48L325.661 306.504L325.258 306.957L325.235 306.983C324.742 307.523 324.108 308.234 323.361 308.881L323.363 308.882C322.731 309.456 322.018 310.065 321.205 310.622L321.207 310.624L320.209 311.317L320.147 311.362L320.082 311.402C319.686 311.644 319.277 311.871 318.953 312.055L318.941 312.062L318.932 312.067C315.754 313.833 312.236 314.831 308.752 315.041C305.254 315.26 301.785 314.676 298.667 313.449C295.559 312.225 292.777 310.367 290.598 308.162L290.588 308.149L290.577 308.139C286.538 303.957 283.13 300.432 281.025 298.252C280.614 297.828 280.157 297.368 279.663 296.879C277.968 298.325 276.248 299.777 274.55 301.184L274.549 301.185C270.584 304.466 266.667 307.56 263.339 309.83C261.679 310.963 260.105 311.932 258.706 312.619C257.411 313.256 255.879 313.851 254.436 313.795C252.291 313.712 250.21 312.802 248.439 311.573C246.644 310.326 244.995 308.636 243.693 306.726C241.16 303.01 239.545 297.803 241.764 293.092C242.264 292.033 243.244 290.971 244.206 290.045C245.246 289.044 246.574 287.918 248.079 286.721C251.093 284.322 254.976 281.511 259.041 278.642L259.043 278.638C260.048 277.931 261.088 277.198 262.125 276.474L262.127 276.472L263.68 275.391L264.338 274.924L265.185 274.354C265.835 273.907 266.595 273.515 267.015 273.279L267.038 273.265L267.062 273.251C272.128 270.549 277.931 269.814 283.057 270.778L283.538 270.872C288.477 271.884 292.744 274.4 295.754 277.418L296.248 277.909L296.296 277.955L296.34 278.004L296.591 278.28L296.604 278.293L296.615 278.307L297.076 278.815L297.088 278.828L297.099 278.84C297.402 279.178 297.693 279.493 298.006 279.835L298.875 280.765C299.151 281.056 299.414 281.333 299.668 281.594L301.522 283.526L303.795 285.936L303.804 285.945C304.618 286.819 305.501 287.763 306.438 288.764C306.821 289.17 307.21 289.591 307.597 290.008L309.299 288.073C310.46 286.747 311.622 285.42 312.777 284.102C313.352 283.442 313.927 282.784 314.503 282.132L314.524 282.109L315.165 281.402L315.216 281.345L315.989 280.54L316.242 280.287C316.828 279.718 317.467 279.216 317.882 278.872L317.913 278.846L317.944 278.823C320.616 276.735 323.721 275.361 326.829 274.729C329.935 274.098 333.048 274.18 335.895 274.829C338.753 275.479 341.336 276.702 343.48 278.236L344.173 278.74L344.275 278.809L344.367 278.891C344.466 278.976 344.566 279.059 344.675 279.152C344.782 279.242 344.899 279.341 345.014 279.441L345.035 279.459L345.053 279.474C345.303 279.699 345.942 280.229 346.424 280.762C346.436 280.775 346.449 280.787 346.46 280.799C346.834 281.205 347.189 281.606 347.52 281.983L347.538 282.004L347.553 282.023L347.677 282.17L347.707 282.207L347.739 282.245L347.806 282.334L347.949 282.515L347.959 282.528L348.233 282.882C348.956 283.812 349.626 284.665 350.229 285.43L351.835 287.449L351.9 287.533C351.912 287.547 352.024 287.669 352.333 287.776C352.383 287.789 352.516 287.813 352.694 287.792C352.862 287.772 352.999 287.72 353.096 287.664C353.127 287.639 353.165 287.609 353.203 287.58C353.212 287.573 353.222 287.565 353.232 287.558C353.254 287.536 353.281 287.511 353.31 287.483C353.359 287.423 353.432 287.333 353.528 287.23C353.639 287.09 353.752 286.95 353.86 286.813C354 286.635 354.136 286.462 354.269 286.292L354.278 286.279C355.41 284.846 356.575 283.363 357.762 281.852C358.948 280.343 360.158 278.804 361.381 277.256L361.389 277.245L361.502 277.104L361.538 277.06L361.698 276.867L361.71 276.855L361.72 276.842L362.122 276.372L362.149 276.342L362.174 276.314C362.288 276.189 362.731 275.663 363.117 275.293L363.604 274.827C364.095 274.365 364.633 273.894 365.224 273.452L365.797 273.025C367.141 272.058 368.615 271.241 370.177 270.629C371.935 269.915 373.788 269.448 375.666 269.243Z" fill="url(#paint6_linear_1039_1335)"/>
<path d="M245.508 225.607C246.454 231.672 255.88 244.104 259.934 242.831C263.987 241.557 284.764 222.271 289.853 218.54C291.334 217.456 294.093 215.623 298.543 212.55C302.718 209.657 303.794 203.881 300.954 199.64C300.606 199.123 300.21 198.646 299.781 198.219L298.308 196.773C292.532 191.111 283.025 181.907 279.538 178.974C274.61 174.832 264.327 160.937 260.702 161.709C255.225 162.876 245.831 175.49 244.739 180.938C243.655 186.386 259.213 194.488 264.1 198.605C265.427 199.747 267.66 201.662 270.225 203.864C260.314 210.537 244.812 221.112 245.516 225.607H245.508Z" fill="url(#paint7_linear_1039_1335)"/>
<path d="M402.656 225.607C401.71 231.672 392.284 244.104 388.23 242.831C384.177 241.557 363.4 222.271 358.31 218.54C356.83 217.456 354.071 215.623 349.621 212.55C345.446 209.657 344.37 203.881 347.21 199.64C347.558 199.123 347.954 198.646 348.383 198.219L349.856 196.773C355.632 191.111 365.139 181.907 368.626 178.974C373.554 174.832 383.837 160.937 387.462 161.709C392.939 162.876 402.333 175.49 403.425 180.938C404.509 186.386 388.951 194.488 384.064 198.605C382.737 199.747 380.504 201.662 377.939 203.864C387.85 210.537 403.352 221.112 402.648 225.607H402.656Z" fill="url(#paint8_linear_1039_1335)"/>
</g>
<g opacity="0.6" filter="url(#filter4_f_1039_1335)">
<path d="M181.732 87.1962C189.363 84.8577 200.778 84.0095 208.94 87.3754C216.104 90.3302 222.704 97.2185 223.111 107.168C223.519 117.117 219.569 124.308 211.443 128.151C203.476 131.919 200.201 132.716 187.513 142.404C179.28 148.691 174.787 158.889 158.131 155.194C142.329 151.688 137.351 132.194 144.94 117.161C153.278 100.645 171.752 90.2542 181.732 87.1962Z" fill="#FFC8DA"/>
</g>
</g>
<defs>
<filter id="filter0_d_1039_1335" x="-2.09808e-05" y="0.000101089" width="662.781" height="1176.78" filterUnits="userSpaceOnUse" color-interpolation-filters="sRGB">
<feFlood flood-opacity="0" result="BackgroundImageFix"/>
<feColorMatrix in="SourceAlpha" type="matrix" values="0 0 0 0 0 0 0 0 0 0 0 0 0 0 0 0 0 0 127 0" result="hardAlpha"/>
<feOffset dx="7.30952" dy="7.30952"/>
<feGaussianBlur stdDeviation="11.6952"/>
<feComposite in2="hardAlpha" operator="out"/>
<feColorMatrix type="matrix" values="0 0 0 0 0 0 0 0 0 0 0 0 0 0 0 0 0 0 0.12 0"/>
<feBlend mode="normal" in2="BackgroundImageFix" result="effect1_dropShadow_1039_1335"/>
<feBlend mode="normal" in="SourceGraphic" in2="effect1_dropShadow_1039_1335" result="shape"/>
</filter>
<filter id="filter1_ii_1039_1335" x="-50.1655" y="-88.1761" width="739.724" height="842.408" filterUnits="userSpaceOnUse" color-interpolation-filters="sRGB">
<feFlood flood-opacity="0" result="BackgroundImageFix"/>
<feBlend mode="normal" in="SourceGraphic" in2="BackgroundImageFix" result="shape"/>
<feColorMatrix in="SourceAlpha" type="matrix" values="0 0 0 0 0 0 0 0 0 0 0 0 0 0 0 0 0 0 127 0" result="hardAlpha"/>
<feOffset dx="-67.2476" dy="-105.257"/>
<feGaussianBlur stdDeviation="83.3286"/>
<feComposite in2="hardAlpha" operator="arithmetic" k2="-1" k3="1"/>
<feColorMatrix type="matrix" values="0 0 0 0 0 0 0 0 0 0 0 0 0 0 0 0 0 0 0.14 0"/>
<feBlend mode="normal" in2="shape" result="effect1_innerShadow_1039_1335"/>
<feColorMatrix in="SourceAlpha" type="matrix" values="0 0 0 0 0 0 0 0 0 0 0 0 0 0 0 0 0 0 127 0" result="hardAlpha"/>
<feOffset dx="58.4762" dy="46.781"/>
<feGaussianBlur stdDeviation="78.9429"/>
<feComposite in2="hardAlpha" operator="arithmetic" k2="-1" k3="1"/>
<feColorMatrix type="matrix" values="0 0 0 0 1 0 0 0 0 1 0 0 0 0 1 0 0 0 0.48 0"/>
<feBlend mode="overlay" in2="effect1_innerShadow_1039_1335" result="effect2_innerShadow_1039_1335"/>
</filter>
<filter id="filter2_f_1039_1335" x="50.122" y="329.55" width="548.241" height="424.007" filterUnits="userSpaceOnUse" color-interpolation-filters="sRGB">
<feFlood flood-opacity="0" result="BackgroundImageFix"/>
<feBlend mode="normal" in="SourceGraphic" in2="BackgroundImageFix" result="shape"/>
<feGaussianBlur stdDeviation="46.781" result="effect1_foregroundBlur_1039_1335"/>
</filter>
<filter id="filter3_d_1039_1335" x="170.544" y="91.5068" width="312.369" height="293.751" filterUnits="userSpaceOnUse" color-interpolation-filters="sRGB">
<feFlood flood-opacity="0" result="BackgroundImageFix"/>
<feColorMatrix in="SourceAlpha" type="matrix" values="0 0 0 0 0 0 0 0 0 0 0 0 0 0 0 0 0 0 127 0" result="hardAlpha"/>
<feOffset/>
<feGaussianBlur stdDeviation="35.0857"/>
<feComposite in2="hardAlpha" operator="out"/>
<feColorMatrix type="matrix" values="0 0 0 0 0.823529 0 0 0 0 0 0 0 0 0 0.27451 0 0 0 0.35 0"/>
<feBlend mode="normal" in2="BackgroundImageFix" result="effect1_dropShadow_1039_1335"/>
<feBlend mode="normal" in="SourceGraphic" in2="effect1_dropShadow_1039_1335" result="shape"/>
</filter>
<filter id="filter4_f_1039_1335" x="82.9774" y="26.663" width="198.639" height="187.792" filterUnits="userSpaceOnUse" color-interpolation-filters="sRGB">
<feFlood flood-opacity="0" result="BackgroundImageFix"/>
<feBlend mode="normal" in="SourceGraphic" in2="BackgroundImageFix" result="shape"/>
<feGaussianBlur stdDeviation="29.2381" result="effect1_foregroundBlur_1039_1335"/>
</filter>
<linearGradient id="paint0_linear_1039_1335" x1="324.242" y1="746.092" x2="305.243" y2="1131.04" gradientUnits="userSpaceOnUse">
<stop stop-color="white"/>
<stop offset="1" stop-color="#EDEDED"/>
</linearGradient>
<linearGradient id="paint1_linear_1039_1335" x1="323.73" y1="699.954" x2="323.73" y2="747.141" gradientUnits="userSpaceOnUse">
<stop stop-color="#CA0043"/>
<stop offset="0.65" stop-color="#D20046"/>
</linearGradient>
<linearGradient id="paint2_linear_1039_1335" x1="322.924" y1="731.592" x2="322.924" y2="753.344" gradientUnits="userSpaceOnUse">
<stop stop-color="#9F0035"/>
<stop offset="1" stop-color="#6C0024"/>
</linearGradient>
<radialGradient id="paint3_radial_1039_1335" cx="0" cy="0" r="1" gradientTransform="matrix(350.005 618.935 618.721 -349.925 281.398 135.068)" gradientUnits="userSpaceOnUse">
<stop offset="0.253496" stop-color="#FF5890"/>
<stop offset="0.731106" stop-color="#D20046"/>
</radialGradient>
<linearGradient id="paint4_linear_1039_1335" x1="324.243" y1="481.805" x2="324.243" y2="924.002" gradientUnits="userSpaceOnUse">
<stop stop-color="#FFC8DA"/>
<stop offset="1" stop-color="#FFC8DA" stop-opacity="0"/>
</linearGradient>
<linearGradient id="paint5_linear_1039_1335" x1="324.243" y1="697.316" x2="324.243" y2="711.818" gradientUnits="userSpaceOnUse">
<stop stop-color="white"/>
<stop offset="1" stop-color="#EDEDED"/>
</linearGradient>
<linearGradient id="paint6_linear_1039_1335" x1="334.077" y1="323.013" x2="334.735" y2="260.552" gradientUnits="userSpaceOnUse">
<stop stop-color="#F5F5F5"/>
<stop offset="1" stop-color="#FFE7EF"/>
</linearGradient>
<linearGradient id="paint7_linear_1039_1335" x1="273.613" y1="161.678" x2="273.613" y2="242.922" gradientUnits="userSpaceOnUse">
<stop stop-color="#FFE7EF"/>
<stop offset="1" stop-color="#F7F7F7"/>
</linearGradient>
<linearGradient id="paint8_linear_1039_1335" x1="374.551" y1="161.678" x2="374.551" y2="242.922" gradientUnits="userSpaceOnUse">
<stop stop-color="#FFE7EF"/>
<stop offset="1" stop-color="#F7F7F7"/>
</linearGradient>
</defs>
</svg>
