<svg width="566" height="566" viewBox="0 0 566 566" fill="none" xmlns="http://www.w3.org/2000/svg">
<path d="M283 3C437.64 3 563 128.36 563 283C563 437.64 437.64 563 283 563C128.36 563 3 437.64 3 283C3 128.36 128.36 3 283 3ZM283 143C205.68 143 143 205.68 143 283C143 360.32 205.68 423 283 423C360.32 423 423 360.32 423 283C423 205.68 360.32 143 283 143Z" fill="#FFB8D0"/>
<path d="M283 143V140V140V143ZM283 423V426V426V423ZM274.749 0.117988C273.093 0.165413 271.789 1.54645 271.836 3.20263C271.884 4.85881 273.265 6.16295 274.921 6.11553L274.835 3.11676L274.749 0.117988ZM254.837 7.41381C256.486 7.24737 257.687 5.7761 257.521 4.12762C257.354 2.47915 255.883 1.27772 254.234 1.44415L254.536 4.42898L254.837 7.41381ZM237.902 3.5741C236.266 3.83612 235.153 5.37476 235.415 7.01077C235.677 8.64677 237.215 9.76062 238.851 9.49861L238.377 6.53636L237.902 3.5741ZM219.088 13.4088C220.701 13.028 221.699 11.4121 221.319 9.79957C220.938 8.18708 219.322 7.1886 217.709 7.56941L218.399 10.4891L219.088 13.4088ZM201.807 11.8205C200.219 12.2951 199.317 13.9667 199.792 15.5542C200.266 17.1416 201.938 18.0437 203.525 17.5691L202.666 14.6948L201.807 11.8205ZM184.454 24.0413C186.003 23.4517 186.78 21.7185 186.19 20.1701C185.601 18.6217 183.867 17.8444 182.319 18.434L183.387 21.2376L184.454 24.0413ZM167.109 24.7413C165.598 25.4205 164.923 27.1962 165.603 28.7075C166.282 30.2187 168.058 30.8932 169.569 30.214L168.339 27.4777L167.109 24.7413ZM151.516 39.1334C152.974 38.3458 153.517 36.5257 152.729 35.068C151.942 33.6103 150.121 33.0671 148.664 33.8547L150.09 36.4941L151.516 39.1334ZM134.412 42.1004C133.003 42.9715 132.566 44.8202 133.437 46.2296C134.308 47.639 136.157 48.0753 137.567 47.2042L135.989 44.6523L134.412 42.1004ZM120.828 58.4101C122.171 57.439 122.472 55.5635 121.501 54.221C120.53 52.8786 118.654 52.5775 117.312 53.5486L119.07 55.9793L120.828 58.4101ZM104.259 63.5792C102.975 64.6264 102.783 66.5162 103.83 67.8002C104.877 69.0841 106.767 69.2761 108.051 68.2289L106.155 65.9041L104.259 63.5792ZM92.9115 81.5161C94.1164 80.3789 94.1714 78.4802 93.0341 77.2752C91.8969 76.0703 89.9982 76.0154 88.7933 77.1526L90.8524 79.3343L92.9115 81.5161ZM77.1526 88.7932C76.0154 89.9982 76.0703 91.8969 77.2752 93.0341C78.4802 94.1713 80.3789 94.1164 81.5161 92.9115L79.3344 90.8524L77.1526 88.7932ZM68.2289 108.051C69.2761 106.767 69.0842 104.877 67.8002 103.83C66.5162 102.783 64.6264 102.975 63.5793 104.259L65.9041 106.155L68.2289 108.051ZM53.5486 117.312C52.5776 118.654 52.8786 120.53 54.2211 121.501C55.5635 122.472 57.439 122.171 58.4101 120.828L55.9794 119.07L53.5486 117.312ZM47.2042 137.567C48.0753 136.157 47.639 134.308 46.2296 133.437C44.8203 132.566 42.9716 133.003 42.1004 134.412L44.6523 135.989L47.2042 137.567ZM33.8547 148.664C33.0671 150.121 33.6103 151.942 35.068 152.729C36.5257 153.517 38.3459 152.974 39.1335 151.516L36.4941 150.09L33.8547 148.664ZM30.2141 169.569C30.8933 168.057 30.2187 166.282 28.7075 165.603C27.1963 164.923 25.4206 165.598 24.7414 167.109L27.4777 168.339L30.2141 169.569ZM18.434 182.319C17.8444 183.867 18.6217 185.601 20.1701 186.19C21.7185 186.78 23.4517 186.002 24.0413 184.454L21.2377 183.387L18.434 182.319ZM17.5691 203.525C18.0437 201.938 17.1416 200.266 15.5542 199.792C13.9668 199.317 12.2951 200.219 11.8205 201.807L14.6948 202.666L17.5691 203.525ZM7.56942 217.709C7.18861 219.322 8.18709 220.938 9.79959 221.318C11.4121 221.699 13.028 220.701 13.4088 219.088L10.4891 218.399L7.56942 217.709ZM9.49862 238.851C9.76063 237.215 8.64679 235.676 7.01078 235.414C5.37478 235.152 3.83613 236.266 3.57412 237.902L6.53637 238.377L9.49862 238.851ZM1.44417 254.234C1.27773 255.883 2.47916 257.354 4.12764 257.521C5.77611 257.687 7.24738 256.486 7.41382 254.837L4.42899 254.536L1.44417 254.234ZM6.11553 274.921C6.16296 273.265 4.85881 271.884 3.20263 271.836C1.54646 271.789 0.165417 273.093 0.117991 274.749L3.11676 274.835L6.11553 274.921ZM0.117988 291.251C0.165413 292.907 1.54645 294.211 3.20263 294.164C4.85881 294.116 6.16295 292.735 6.11553 291.079L3.11676 291.165L0.117988 291.251ZM7.41381 311.163C7.24737 309.514 5.7761 308.313 4.12762 308.479C2.47915 308.646 1.27772 310.117 1.44415 311.766L4.42898 311.464L7.41381 311.163ZM3.5741 328.098C3.83612 329.734 5.37476 330.847 7.01077 330.585C8.64677 330.323 9.76062 328.785 9.49861 327.149L6.53636 327.623L3.5741 328.098ZM13.4088 346.912C13.028 345.299 11.4121 344.301 9.79957 344.681C8.18708 345.062 7.1886 346.678 7.56941 348.291L10.4891 347.601L13.4088 346.912ZM11.8205 364.193C12.2951 365.781 13.9667 366.683 15.5542 366.208C17.1416 365.734 18.0437 364.062 17.5691 362.475L14.6948 363.334L11.8205 364.193ZM24.0413 381.546C23.4517 379.997 21.7185 379.22 20.1701 379.81C18.6217 380.399 17.8444 382.133 18.434 383.681L21.2376 382.613L24.0413 381.546ZM24.7413 398.891C25.4205 400.402 27.1962 401.077 28.7075 400.397C30.2187 399.718 30.8932 397.942 30.214 396.431L27.4777 397.661L24.7413 398.891ZM39.1334 414.484C38.3458 413.026 36.5257 412.483 35.068 413.271C33.6103 414.058 33.0671 415.879 33.8547 417.336L36.4941 415.91L39.1334 414.484ZM42.1004 431.588C42.9715 432.997 44.8202 433.434 46.2296 432.563C47.639 431.692 48.0753 429.843 47.2042 428.433L44.6523 430.011L42.1004 431.588ZM58.4101 445.172C57.439 443.829 55.5635 443.528 54.221 444.499C52.8786 445.47 52.5775 447.346 53.5486 448.688L55.9793 446.93L58.4101 445.172ZM63.5792 461.741C64.6264 463.025 66.5162 463.217 67.8002 462.17C69.0841 461.123 69.2761 459.233 68.2289 457.949L65.9041 459.845L63.5792 461.741ZM81.5161 473.089C80.3789 471.884 78.4802 471.829 77.2752 472.966C76.0703 474.103 76.0154 476.002 77.1526 477.207L79.3343 475.148L81.5161 473.089ZM88.7932 488.847C89.9982 489.985 91.8969 489.93 93.0341 488.725C94.1713 487.52 94.1164 485.621 92.9115 484.484L90.8524 486.666L88.7932 488.847ZM108.051 497.771C106.767 496.724 104.877 496.916 103.83 498.2C102.783 499.484 102.975 501.374 104.259 502.421L106.155 500.096L108.051 497.771ZM117.312 512.451C118.654 513.422 120.53 513.121 121.501 511.779C122.472 510.436 122.171 508.561 120.828 507.59L119.07 510.021L117.312 512.451ZM137.567 518.796C136.157 517.925 134.308 518.361 133.437 519.77C132.566 521.18 133.003 523.028 134.412 523.9L135.989 521.348L137.567 518.796ZM148.664 532.145C150.121 532.933 151.942 532.39 152.729 530.932C153.517 529.474 152.974 527.654 151.516 526.867L150.09 529.506L148.664 532.145ZM169.569 535.786C168.057 535.107 166.282 535.781 165.603 537.292C164.923 538.804 165.598 540.579 167.109 541.259L168.339 538.522L169.569 535.786ZM182.319 547.566C183.867 548.156 185.601 547.378 186.19 545.83C186.78 544.281 186.002 542.548 184.454 541.959L183.387 544.762L182.319 547.566ZM203.525 548.431C201.938 547.956 200.266 548.858 199.792 550.446C199.317 552.033 200.219 553.705 201.807 554.179L202.666 551.305L203.525 548.431ZM217.709 558.431C219.322 558.811 220.938 557.813 221.318 556.2C221.699 554.588 220.701 552.972 219.088 552.591L218.399 555.511L217.709 558.431ZM238.851 556.501C237.215 556.239 235.676 557.353 235.414 558.989C235.152 560.625 236.266 562.164 237.902 562.426L238.377 559.464L238.851 556.501ZM254.234 564.556C255.883 564.722 257.354 563.521 257.521 561.872C257.687 560.224 256.486 558.753 254.837 558.586L254.536 561.571L254.234 564.556ZM274.921 559.884C273.265 559.837 271.884 561.141 271.836 562.797C271.789 564.454 273.093 565.835 274.749 565.882L274.835 562.883L274.921 559.884ZM291.251 565.882C292.907 565.835 294.211 564.454 294.164 562.797C294.116 561.141 292.735 559.837 291.079 559.884L291.165 562.883L291.251 565.882ZM311.163 558.586C309.514 558.753 308.313 560.224 308.479 561.872C308.646 563.521 310.117 564.722 311.766 564.556L311.464 561.571L311.163 558.586ZM328.098 562.426C329.734 562.164 330.847 560.625 330.585 558.989C330.323 557.353 328.785 556.239 327.149 556.501L327.623 559.464L328.098 562.426ZM346.912 552.591C345.299 552.972 344.301 554.588 344.681 556.2C345.062 557.813 346.678 558.811 348.291 558.431L347.601 555.511L346.912 552.591ZM364.193 554.18C365.781 553.705 366.683 552.033 366.208 550.446C365.734 548.858 364.062 547.956 362.475 548.431L363.334 551.305L364.193 554.18ZM381.546 541.959C379.997 542.548 379.22 544.281 379.81 545.83C380.399 547.378 382.133 548.156 383.681 547.566L382.613 544.762L381.546 541.959ZM398.891 541.259C400.402 540.579 401.077 538.804 400.397 537.293C399.718 535.781 397.942 535.107 396.431 535.786L397.661 538.522L398.891 541.259ZM414.484 526.867C413.026 527.654 412.483 529.474 413.271 530.932C414.058 532.39 415.879 532.933 417.336 532.145L415.91 529.506L414.484 526.867ZM431.588 523.9C432.997 523.028 433.434 521.18 432.563 519.77C431.692 518.361 429.843 517.925 428.433 518.796L430.011 521.348L431.588 523.9ZM445.172 507.59C443.829 508.561 443.528 510.436 444.499 511.779C445.47 513.121 447.346 513.422 448.688 512.451L446.93 510.021L445.172 507.59ZM461.741 502.421C463.025 501.374 463.217 499.484 462.17 498.2C461.123 496.916 459.233 496.724 457.949 497.771L459.845 500.096L461.741 502.421ZM473.089 484.484C471.884 485.621 471.829 487.52 472.966 488.725C474.103 489.93 476.002 489.985 477.207 488.847L475.148 486.666L473.089 484.484ZM488.847 477.207C489.985 476.002 489.93 474.103 488.725 472.966C487.52 471.829 485.621 471.884 484.484 473.089L486.666 475.148L488.847 477.207ZM497.771 457.949C496.724 459.233 496.916 461.123 498.2 462.17C499.484 463.217 501.374 463.025 502.421 461.741L500.096 459.845L497.771 457.949ZM512.451 448.688C513.422 447.346 513.121 445.47 511.779 444.499C510.436 443.528 508.561 443.829 507.59 445.172L510.021 446.93L512.451 448.688ZM518.796 428.433C517.925 429.843 518.361 431.692 519.77 432.563C521.18 433.434 523.028 432.997 523.9 431.588L521.348 430.011L518.796 428.433ZM532.145 417.336C532.933 415.879 532.39 414.058 530.932 413.271C529.474 412.483 527.654 413.026 526.867 414.484L529.506 415.91L532.145 417.336ZM535.786 396.431C535.107 397.943 535.781 399.718 537.292 400.397C538.804 401.077 540.579 400.402 541.259 398.891L538.522 397.661L535.786 396.431ZM547.566 383.681C548.156 382.133 547.378 380.399 545.83 379.81C544.281 379.22 542.548 379.998 541.959 381.546L544.762 382.613L547.566 383.681ZM548.431 362.475C547.956 364.062 548.858 365.734 550.446 366.208C552.033 366.683 553.705 365.781 554.179 364.194L551.305 363.334L548.431 362.475ZM558.431 348.291C558.811 346.678 557.813 345.062 556.2 344.682C554.588 344.301 552.972 345.299 552.591 346.912L555.511 347.601L558.431 348.291ZM556.501 327.149C556.239 328.785 557.353 330.324 558.989 330.586C560.625 330.848 562.164 329.734 562.426 328.098L559.464 327.623L556.501 327.149ZM564.556 311.766C564.722 310.117 563.521 308.646 561.872 308.479C560.224 308.313 558.753 309.514 558.586 311.163L561.571 311.464L564.556 311.766ZM559.884 291.079C559.837 292.735 561.141 294.116 562.797 294.164C564.454 294.211 565.835 292.907 565.882 291.251L562.883 291.165L559.884 291.079ZM565.882 274.749C565.835 273.093 564.454 271.789 562.797 271.836C561.141 271.884 559.837 273.265 559.884 274.921L562.883 274.835L565.882 274.749ZM558.586 254.837C558.753 256.486 560.224 257.687 561.872 257.521C563.521 257.354 564.722 255.883 564.556 254.234L561.571 254.536L558.586 254.837ZM562.426 237.902C562.164 236.266 560.625 235.153 558.989 235.415C557.353 235.677 556.239 237.215 556.501 238.851L559.464 238.377L562.426 237.902ZM552.591 219.088C552.972 220.701 554.588 221.699 556.2 221.319C557.813 220.938 558.811 219.322 558.431 217.709L555.511 218.399L552.591 219.088ZM554.18 201.807C553.705 200.219 552.033 199.317 550.446 199.792C548.858 200.266 547.956 201.938 548.431 203.525L551.305 202.666L554.18 201.807ZM541.959 184.454C542.548 186.003 544.281 186.78 545.83 186.19C547.378 185.601 548.156 183.867 547.566 182.319L544.762 183.387L541.959 184.454ZM541.259 167.109C540.579 165.598 538.804 164.923 537.293 165.603C535.781 166.282 535.107 168.058 535.786 169.569L538.522 168.339L541.259 167.109ZM526.867 151.516C527.654 152.974 529.474 153.517 530.932 152.729C532.39 151.942 532.933 150.121 532.145 148.664L529.506 150.09L526.867 151.516ZM523.9 134.412C523.028 133.003 521.18 132.566 519.77 133.437C518.361 134.308 517.925 136.157 518.796 137.567L521.348 135.989L523.9 134.412ZM507.59 120.828C508.561 122.171 510.436 122.472 511.779 121.501C513.121 120.53 513.422 118.654 512.451 117.312L510.021 119.07L507.59 120.828ZM502.421 104.259C501.374 102.975 499.484 102.783 498.2 103.83C496.916 104.877 496.724 106.767 497.771 108.051L500.096 106.155L502.421 104.259ZM484.484 92.9115C485.621 94.1164 487.52 94.1714 488.725 93.0341C489.93 91.8969 489.985 89.9982 488.847 88.7933L486.666 90.8524L484.484 92.9115ZM477.207 77.1526C476.002 76.0154 474.103 76.0703 472.966 77.2752C471.829 78.4802 471.884 80.3789 473.089 81.5161L475.148 79.3344L477.207 77.1526ZM457.949 68.2289C459.233 69.2761 461.123 69.0842 462.17 67.8002C463.217 66.5162 463.025 64.6264 461.741 63.5793L459.845 65.9041L457.949 68.2289ZM448.688 53.5486C447.346 52.5776 445.47 52.8786 444.499 54.2211C443.528 55.5635 443.829 57.439 445.172 58.4101L446.93 55.9794L448.688 53.5486ZM428.433 47.2042C429.843 48.0753 431.692 47.639 432.563 46.2296C433.434 44.8203 432.997 42.9716 431.588 42.1004L430.011 44.6523L428.433 47.2042ZM417.336 33.8547C415.879 33.0671 414.058 33.6103 413.271 35.068C412.483 36.5257 413.026 38.3459 414.484 39.1335L415.91 36.4941L417.336 33.8547ZM396.431 30.2141C397.943 30.8933 399.718 30.2187 400.397 28.7075C401.077 27.1963 400.402 25.4206 398.891 24.7414L397.661 27.4777L396.431 30.2141ZM383.681 18.434C382.133 17.8444 380.399 18.6217 379.81 20.1701C379.22 21.7185 379.998 23.4517 381.546 24.0413L382.613 21.2377L383.681 18.434ZM362.475 17.5691C364.062 18.0437 365.734 17.1416 366.208 15.5542C366.683 13.9668 365.781 12.2951 364.194 11.8205L363.334 14.6948L362.475 17.5691ZM348.291 7.56942C346.678 7.18861 345.062 8.18709 344.682 9.79959C344.301 11.4121 345.299 13.028 346.912 13.4088L347.601 10.4891L348.291 7.56942ZM327.149 9.49862C328.785 9.76063 330.324 8.64679 330.586 7.01078C330.848 5.37478 329.734 3.83613 328.098 3.57412L327.623 6.53637L327.149 9.49862ZM311.766 1.44417C310.117 1.27773 308.646 2.47916 308.479 4.12764C308.313 5.77611 309.514 7.24738 311.163 7.41382L311.464 4.42899L311.766 1.44417ZM291.079 6.11553C292.735 6.16296 294.116 4.85881 294.164 3.20263C294.211 1.54646 292.907 0.165417 291.251 0.117991L291.165 3.11676L291.079 6.11553ZM274.682 140.238C273.028 140.333 271.764 141.751 271.859 143.405C271.954 145.059 273.372 146.323 275.026 146.228L274.854 143.233L274.682 140.238ZM255.285 148.804C256.908 148.471 257.954 146.885 257.62 145.262C257.287 143.639 255.701 142.593 254.078 142.927L254.682 145.865L255.285 148.804ZM238.004 147.224C236.432 147.744 235.579 149.442 236.1 151.015C236.621 152.587 238.318 153.44 239.891 152.919L238.948 150.071L238.004 147.224ZM221.503 160.544C222.983 159.799 223.579 157.996 222.834 156.516C222.089 155.036 220.286 154.44 218.806 155.184L220.154 157.864L221.503 160.544ZM204.411 163.513C203.027 164.425 202.645 166.285 203.556 167.669C204.468 169.052 206.329 169.435 207.712 168.523L206.061 166.018L204.411 163.513ZM191.923 180.655C193.161 179.553 193.27 177.657 192.169 176.42C191.067 175.182 189.17 175.073 187.933 176.175L189.928 178.415L191.923 180.655ZM176.175 187.933C175.073 189.17 175.182 191.067 176.42 192.169C177.657 193.27 179.553 193.161 180.655 191.923L178.415 189.928L176.175 187.933ZM168.523 207.712C169.435 206.329 169.052 204.468 167.669 203.556C166.285 202.645 164.425 203.027 163.513 204.411L166.018 206.061L168.523 207.712ZM155.184 218.806C154.44 220.286 155.036 222.089 156.516 222.834C157.996 223.579 159.799 222.983 160.544 221.503L157.864 220.154L155.184 218.806ZM152.919 239.891C153.44 238.318 152.587 236.621 151.015 236.1C149.442 235.579 147.744 236.432 147.224 238.004L150.071 238.948L152.919 239.891ZM142.927 254.078C142.593 255.701 143.639 257.287 145.262 257.62C146.885 257.954 148.471 256.908 148.804 255.285L145.865 254.682L142.927 254.078ZM146.228 275.026C146.323 273.372 145.059 271.954 143.405 271.859C141.751 271.764 140.333 273.028 140.238 274.682L143.233 274.854L146.228 275.026ZM140.238 291.318C140.333 292.972 141.751 294.236 143.405 294.141C145.059 294.046 146.323 292.628 146.228 290.974L143.233 291.146L140.238 291.318ZM148.804 310.715C148.471 309.092 146.885 308.046 145.262 308.38C143.639 308.713 142.593 310.299 142.927 311.922L145.865 311.318L148.804 310.715ZM147.224 327.996C147.744 329.568 149.442 330.421 151.015 329.9C152.587 329.379 153.44 327.682 152.919 326.109L150.071 327.052L147.224 327.996ZM160.544 344.497C159.799 343.017 157.996 342.421 156.516 343.166C155.036 343.911 154.44 345.714 155.184 347.194L157.864 345.846L160.544 344.497ZM163.513 361.589C164.425 362.973 166.285 363.355 167.669 362.444C169.052 361.532 169.435 359.671 168.523 358.288L166.018 359.939L163.513 361.589ZM180.655 374.077C179.553 372.839 177.657 372.73 176.42 373.831C175.182 374.933 175.073 376.83 176.175 378.067L178.415 376.072L180.655 374.077ZM187.933 389.825C189.17 390.927 191.067 390.818 192.169 389.58C193.27 388.343 193.161 386.447 191.923 385.345L189.928 387.585L187.933 389.825ZM207.712 397.477C206.329 396.565 204.468 396.948 203.556 398.331C202.645 399.715 203.027 401.575 204.411 402.487L206.061 399.982L207.712 397.477ZM218.806 410.815C220.286 411.56 222.089 410.964 222.834 409.484C223.579 408.004 222.983 406.201 221.503 405.456L220.154 408.136L218.806 410.815ZM239.891 413.081C238.318 412.56 236.621 413.413 236.1 414.985C235.579 416.558 236.432 418.255 238.004 418.776L238.948 415.929L239.891 413.081ZM254.078 423.073C255.701 423.407 257.287 422.361 257.62 420.738C257.954 419.115 256.908 417.529 255.285 417.196L254.682 420.135L254.078 423.073ZM275.026 419.772C273.372 419.677 271.954 420.941 271.859 422.595C271.764 424.249 273.028 425.667 274.682 425.762L274.854 422.767L275.026 419.772ZM291.318 425.762C292.972 425.667 294.236 424.249 294.141 422.595C294.046 420.941 292.628 419.677 290.974 419.772L291.146 422.767L291.318 425.762ZM310.715 417.196C309.092 417.529 308.046 419.115 308.38 420.738C308.713 422.361 310.299 423.406 311.922 423.073L311.318 420.134L310.715 417.196ZM327.996 418.776C329.568 418.255 330.421 416.558 329.9 414.985C329.379 413.412 327.682 412.56 326.109 413.081L327.052 415.929L327.996 418.776ZM344.497 405.456C343.017 406.201 342.421 408.004 343.166 409.484C343.911 410.964 345.714 411.56 347.194 410.815L345.846 408.136L344.497 405.456ZM361.589 402.487C362.973 401.575 363.355 399.715 362.443 398.331C361.532 396.948 359.671 396.565 358.288 397.477L359.939 399.982L361.589 402.487ZM374.077 385.345C372.839 386.447 372.73 388.343 373.831 389.58C374.933 390.818 376.83 390.927 378.067 389.825L376.072 387.585L374.077 385.345ZM389.825 378.067C390.927 376.83 390.818 374.933 389.58 373.831C388.343 372.729 386.447 372.839 385.345 374.077L387.585 376.072L389.825 378.067ZM397.477 358.288C396.565 359.671 396.948 361.532 398.331 362.443C399.715 363.355 401.575 362.973 402.487 361.589L399.982 359.939L397.477 358.288ZM410.815 347.194C411.56 345.714 410.964 343.911 409.484 343.166C408.004 342.421 406.201 343.017 405.456 344.497L408.136 345.846L410.815 347.194ZM413.081 326.109C412.56 327.682 413.413 329.379 414.985 329.9C416.558 330.421 418.255 329.568 418.776 327.996L415.929 327.052L413.081 326.109ZM423.073 311.922C423.407 310.299 422.361 308.713 420.738 308.38C419.115 308.046 417.529 309.092 417.196 310.715L420.135 311.318L423.073 311.922ZM419.772 290.974C419.677 292.628 420.941 294.046 422.595 294.141C424.249 294.236 425.667 292.972 425.762 291.318L422.767 291.146L419.772 290.974ZM425.762 274.682C425.667 273.028 424.249 271.764 422.595 271.859C420.941 271.954 419.677 273.372 419.772 275.026L422.767 274.854L425.762 274.682ZM417.196 255.285C417.529 256.908 419.115 257.954 420.738 257.62C422.361 257.287 423.407 255.701 423.073 254.078L420.135 254.682L417.196 255.285ZM418.776 238.004C418.255 236.432 416.558 235.579 414.985 236.1C413.413 236.621 412.56 238.318 413.081 239.891L415.929 238.948L418.776 238.004ZM405.456 221.503C406.201 222.983 408.004 223.579 409.484 222.834C410.964 222.089 411.56 220.286 410.815 218.806L408.136 220.154L405.456 221.503ZM402.487 204.411C401.575 203.027 399.715 202.645 398.331 203.557C396.948 204.468 396.565 206.329 397.477 207.712L399.982 206.061L402.487 204.411ZM385.345 191.923C386.447 193.161 388.343 193.271 389.58 192.169C390.818 191.067 390.927 189.17 389.825 187.933L387.585 189.928L385.345 191.923ZM378.067 176.175C376.83 175.073 374.933 175.182 373.831 176.42C372.73 177.657 372.839 179.553 374.077 180.655L376.072 178.415L378.067 176.175ZM358.288 168.523C359.671 169.435 361.532 169.052 362.443 167.669C363.355 166.285 362.973 164.425 361.589 163.513L359.939 166.018L358.288 168.523ZM347.194 155.185C345.714 154.44 343.911 155.036 343.166 156.516C342.421 157.996 343.017 159.799 344.497 160.544L345.846 157.864L347.194 155.185ZM326.109 152.919C327.682 153.44 329.379 152.588 329.9 151.015C330.421 149.442 329.568 147.745 327.996 147.224L327.052 150.071L326.109 152.919ZM311.922 142.927C310.299 142.593 308.713 143.639 308.38 145.262C308.046 146.885 309.092 148.471 310.715 148.804L311.318 145.866L311.922 142.927ZM290.974 146.228C292.628 146.323 294.046 145.059 294.141 143.405C294.236 141.751 292.972 140.333 291.318 140.238L291.146 143.233L290.974 146.228ZM283 3V0C280.24 0 277.49 0.039506 274.749 0.117988L274.835 3.11676L274.921 6.11553C277.605 6.03869 280.298 6 283 6V3ZM254.536 4.42898L254.234 1.44415C248.743 1.99861 243.297 2.71011 237.902 3.5741L238.377 6.53636L238.851 9.49861C244.131 8.65298 249.461 7.95655 254.837 7.41381L254.536 4.42898ZM218.399 10.4891L217.709 7.56941C212.348 8.83556 207.045 10.2542 201.807 11.8205L202.666 14.6948L203.525 17.5691C208.652 16.0363 213.841 14.6479 219.088 13.4088L218.399 10.4891ZM183.387 21.2376L182.319 18.434C177.176 20.3925 172.104 22.4966 167.109 24.7413L168.339 27.4777L169.569 30.214C174.457 28.0172 179.42 25.9579 184.454 24.0413L183.387 21.2376ZM150.09 36.4941L148.664 33.8547C143.827 36.4683 139.074 39.2186 134.412 42.1004L135.989 44.6523L137.567 47.2042C142.13 44.3834 146.782 41.6915 151.516 39.1334L150.09 36.4941ZM119.07 55.9793L117.312 53.5486C112.862 56.7676 108.509 60.1129 104.259 63.5792L106.155 65.9041L108.051 68.2289C112.211 64.8357 116.472 61.5611 120.828 58.4101L119.07 55.9793ZM90.8524 79.3343L88.7933 77.1526C84.8017 80.9197 80.9198 84.8017 77.1526 88.7932L79.3344 90.8524L81.5161 92.9115C85.2039 89.004 89.0041 85.2039 92.9115 81.5161L90.8524 79.3343ZM65.9041 106.155L63.5793 104.259C60.113 108.509 56.7677 112.861 53.5486 117.312L55.9794 119.07L58.4101 120.828C61.5611 116.472 64.8358 112.211 68.2289 108.051L65.9041 106.155ZM44.6523 135.989L42.1004 134.412C39.2186 139.074 36.4683 143.827 33.8547 148.664L36.4941 150.09L39.1335 151.516C41.6915 146.782 44.3834 142.13 47.2042 137.567L44.6523 135.989ZM27.4777 168.339L24.7414 167.109C22.4966 172.104 20.3925 177.175 18.434 182.319L21.2377 183.387L24.0413 184.454C25.9579 179.42 28.0172 174.457 30.2141 169.569L27.4777 168.339ZM14.6948 202.666L11.8205 201.807C10.2542 207.045 8.83558 212.348 7.56942 217.709L10.4891 218.399L13.4088 219.088C14.6479 213.841 16.0363 208.652 17.5691 203.525L14.6948 202.666ZM6.53637 238.377L3.57412 237.902C2.71012 243.297 1.99863 248.743 1.44417 254.234L4.42899 254.536L7.41382 254.837C7.95656 249.461 8.65299 244.131 9.49862 238.851L6.53637 238.377ZM3.11676 274.835L0.117991 274.749C0.0395069 277.49 0 280.24 0 283H3H6C6 280.298 6.03869 277.605 6.11553 274.921L3.11676 274.835ZM3 283H0C0 285.76 0.039506 288.51 0.117988 291.251L3.11676 291.165L6.11553 291.079C6.03869 288.395 6 285.702 6 283H3ZM4.42898 311.464L1.44415 311.766C1.99861 317.257 2.71011 322.703 3.5741 328.098L6.53636 327.623L9.49861 327.149C8.65298 321.869 7.95655 316.539 7.41381 311.163L4.42898 311.464ZM10.4891 347.601L7.56941 348.291C8.83556 353.652 10.2542 358.955 11.8205 364.193L14.6948 363.334L17.5691 362.475C16.0363 357.348 14.6479 352.159 13.4088 346.912L10.4891 347.601ZM21.2376 382.613L18.434 383.681C20.3925 388.824 22.4966 393.896 24.7413 398.891L27.4777 397.661L30.214 396.431C28.0172 391.543 25.9579 386.58 24.0413 381.546L21.2376 382.613ZM36.4941 415.91L33.8547 417.336C36.4683 422.173 39.2186 426.926 42.1004 431.588L44.6523 430.011L47.2042 428.433C44.3834 423.87 41.6915 419.218 39.1334 414.484L36.4941 415.91ZM55.9793 446.93L53.5486 448.688C56.7676 453.138 60.1129 457.491 63.5792 461.741L65.9041 459.845L68.2289 457.949C64.8357 453.789 61.5611 449.528 58.4101 445.172L55.9793 446.93ZM79.3343 475.148L77.1526 477.207C80.9197 481.198 84.8017 485.08 88.7932 488.847L90.8524 486.666L92.9115 484.484C89.004 480.796 85.2039 476.996 81.5161 473.089L79.3343 475.148ZM106.155 500.096L104.259 502.421C108.509 505.887 112.861 509.232 117.312 512.451L119.07 510.021L120.828 507.59C116.472 504.439 112.211 501.164 108.051 497.771L106.155 500.096ZM135.989 521.348L134.412 523.9C139.074 526.781 143.827 529.532 148.664 532.145L150.09 529.506L151.516 526.867C146.782 524.308 142.13 521.617 137.567 518.796L135.989 521.348ZM168.339 538.522L167.109 541.259C172.104 543.503 177.175 545.607 182.319 547.566L183.387 544.762L184.454 541.959C179.42 540.042 174.457 537.983 169.569 535.786L168.339 538.522ZM202.666 551.305L201.807 554.179C207.045 555.746 212.348 557.164 217.709 558.431L218.399 555.511L219.088 552.591C213.841 551.352 208.652 549.964 203.525 548.431L202.666 551.305ZM238.377 559.464L237.902 562.426C243.297 563.29 248.743 564.001 254.234 564.556L254.536 561.571L254.837 558.586C249.461 558.043 244.131 557.347 238.851 556.501L238.377 559.464ZM274.835 562.883L274.749 565.882C277.49 565.961 280.24 566 283 566V563V560C280.298 560 277.605 559.961 274.921 559.884L274.835 562.883ZM283 563V566C285.76 566 288.51 565.961 291.251 565.882L291.165 562.883L291.079 559.884C288.395 559.961 285.702 560 283 560V563ZM311.464 561.571L311.766 564.556C317.257 564.001 322.703 563.29 328.098 562.426L327.623 559.464L327.149 556.501C321.869 557.347 316.539 558.043 311.163 558.586L311.464 561.571ZM347.601 555.511L348.291 558.431C353.652 557.164 358.955 555.746 364.193 554.18L363.334 551.305L362.475 548.431C357.348 549.964 352.159 551.352 346.912 552.591L347.601 555.511ZM382.613 544.762L383.681 547.566C388.824 545.608 393.896 543.503 398.891 541.259L397.661 538.522L396.431 535.786C391.543 537.983 386.58 540.042 381.546 541.959L382.613 544.762ZM415.91 529.506L417.336 532.145C422.173 529.532 426.926 526.781 431.588 523.9L430.011 521.348L428.433 518.796C423.87 521.617 419.218 524.309 414.484 526.867L415.91 529.506ZM446.93 510.021L448.688 512.451C453.138 509.232 457.491 505.887 461.741 502.421L459.845 500.096L457.949 497.771C453.789 501.164 449.528 504.439 445.172 507.59L446.93 510.021ZM475.148 486.666L477.207 488.847C481.198 485.08 485.08 481.198 488.847 477.207L486.666 475.148L484.484 473.089C480.796 476.996 476.996 480.796 473.089 484.484L475.148 486.666ZM500.096 459.845L502.421 461.741C505.887 457.491 509.232 453.139 512.451 448.688L510.021 446.93L507.59 445.172C504.439 449.528 501.164 453.789 497.771 457.949L500.096 459.845ZM521.348 430.011L523.9 431.588C526.781 426.926 529.532 422.173 532.145 417.336L529.506 415.91L526.867 414.484C524.308 419.218 521.617 423.87 518.796 428.433L521.348 430.011ZM538.522 397.661L541.259 398.891C543.503 393.896 545.607 388.825 547.566 383.681L544.762 382.613L541.959 381.546C540.042 386.58 537.983 391.543 535.786 396.431L538.522 397.661ZM551.305 363.334L554.179 364.194C555.746 358.955 557.164 353.652 558.431 348.291L555.511 347.601L552.591 346.912C551.352 352.159 549.964 357.348 548.431 362.475L551.305 363.334ZM559.464 327.623L562.426 328.098C563.29 322.703 564.001 317.257 564.556 311.766L561.571 311.464L558.586 311.163C558.043 316.539 557.347 321.869 556.501 327.149L559.464 327.623ZM562.883 291.165L565.882 291.251C565.961 288.51 566 285.76 566 283H563H560C560 285.702 559.961 288.395 559.884 291.079L562.883 291.165ZM563 283H566C566 280.24 565.961 277.49 565.882 274.749L562.883 274.835L559.884 274.921C559.961 277.605 560 280.298 560 283H563ZM561.571 254.536L564.556 254.234C564.001 248.743 563.29 243.297 562.426 237.902L559.464 238.377L556.501 238.851C557.347 244.131 558.043 249.461 558.586 254.837L561.571 254.536ZM555.511 218.399L558.431 217.709C557.164 212.348 555.746 207.045 554.18 201.807L551.305 202.666L548.431 203.525C549.964 208.652 551.352 213.841 552.591 219.088L555.511 218.399ZM544.762 183.387L547.566 182.319C545.608 177.176 543.503 172.104 541.259 167.109L538.522 168.339L535.786 169.569C537.983 174.457 540.042 179.42 541.959 184.454L544.762 183.387ZM529.506 150.09L532.145 148.664C529.532 143.827 526.781 139.074 523.9 134.412L521.348 135.989L518.796 137.567C521.617 142.13 524.309 146.782 526.867 151.516L529.506 150.09ZM510.021 119.07L512.451 117.312C509.232 112.862 505.887 108.509 502.421 104.259L500.096 106.155L497.771 108.051C501.164 112.211 504.439 116.472 507.59 120.828L510.021 119.07ZM486.666 90.8524L488.847 88.7933C485.08 84.8017 481.198 80.9198 477.207 77.1526L475.148 79.3344L473.089 81.5161C476.996 85.2039 480.796 89.0041 484.484 92.9115L486.666 90.8524ZM459.845 65.9041L461.741 63.5793C457.491 60.113 453.139 56.7677 448.688 53.5486L446.93 55.9794L445.172 58.4101C449.528 61.5611 453.789 64.8358 457.949 68.2289L459.845 65.9041ZM430.011 44.6523L431.588 42.1004C426.926 39.2186 422.173 36.4683 417.336 33.8547L415.91 36.4941L414.484 39.1335C419.218 41.6915 423.87 44.3834 428.433 47.2042L430.011 44.6523ZM397.661 27.4777L398.891 24.7414C393.896 22.4966 388.825 20.3925 383.681 18.434L382.613 21.2377L381.546 24.0413C386.58 25.9579 391.543 28.0172 396.431 30.2141L397.661 27.4777ZM363.334 14.6948L364.194 11.8205C358.955 10.2542 353.652 8.83558 348.291 7.56942L347.601 10.4891L346.912 13.4088C352.159 14.6479 357.348 16.0363 362.475 17.5691L363.334 14.6948ZM327.623 6.53637L328.098 3.57412C322.703 2.71012 317.257 1.99863 311.766 1.44417L311.464 4.42899L311.163 7.41382C316.539 7.95656 321.869 8.65299 327.149 9.49862L327.623 6.53637ZM291.165 3.11676L291.251 0.117991C288.51 0.0395069 285.76 0 283 0V3V6C285.702 6 288.395 6.03869 291.079 6.11553L291.165 3.11676ZM283 143V140C280.208 140 277.435 140.08 274.682 140.238L274.854 143.233L275.026 146.228C277.664 146.077 280.323 146 283 146V143ZM254.682 145.865L254.078 142.927C248.6 144.052 243.235 145.491 238.004 147.224L238.948 150.071L239.891 152.919C244.9 151.26 250.038 149.882 255.285 148.804L254.682 145.865ZM220.154 157.864L218.806 155.184C213.834 157.686 209.029 160.469 204.411 163.513L206.061 166.018L207.712 168.523C212.137 165.607 216.74 162.941 221.503 160.544L220.154 157.864ZM189.928 178.415L187.933 176.175C183.79 179.864 179.864 183.79 176.175 187.933L178.415 189.928L180.655 191.923C184.191 187.953 187.953 184.191 191.923 180.655L189.928 178.415ZM166.018 206.061L163.513 204.411C160.469 209.029 157.686 213.834 155.184 218.806L157.864 220.154L160.544 221.503C162.941 216.74 165.607 212.137 168.523 207.712L166.018 206.061ZM150.071 238.948L147.224 238.004C145.491 243.235 144.052 248.6 142.927 254.078L145.865 254.682L148.804 255.285C149.882 250.038 151.26 244.9 152.919 239.891L150.071 238.948ZM143.233 274.854L140.238 274.682C140.08 277.435 140 280.208 140 283H143H146C146 280.323 146.077 277.664 146.228 275.026L143.233 274.854ZM143 283H140C140 285.792 140.08 288.565 140.238 291.318L143.233 291.146L146.228 290.974C146.077 288.336 146 285.677 146 283H143ZM145.865 311.318L142.927 311.922C144.052 317.4 145.491 322.765 147.224 327.996L150.071 327.052L152.919 326.109C151.26 321.1 149.882 315.962 148.804 310.715L145.865 311.318ZM157.864 345.846L155.184 347.194C157.686 352.166 160.469 356.971 163.513 361.589L166.018 359.939L168.523 358.288C165.607 353.863 162.941 349.26 160.544 344.497L157.864 345.846ZM178.415 376.072L176.175 378.067C179.864 382.21 183.79 386.136 187.933 389.825L189.928 387.585L191.923 385.345C187.953 381.809 184.191 378.047 180.655 374.077L178.415 376.072ZM206.061 399.982L204.411 402.487C209.029 405.531 213.834 408.314 218.806 410.815L220.154 408.136L221.503 405.456C216.74 403.059 212.137 400.393 207.712 397.477L206.061 399.982ZM238.948 415.929L238.004 418.776C243.235 420.509 248.6 421.948 254.078 423.073L254.682 420.135L255.285 417.196C250.038 416.118 244.9 414.74 239.891 413.081L238.948 415.929ZM274.854 422.767L274.682 425.762C277.435 425.92 280.208 426 283 426V423V420C280.323 420 277.664 419.923 275.026 419.772L274.854 422.767ZM283 423V426C285.792 426 288.565 425.92 291.318 425.762L291.146 422.767L290.974 419.772C288.336 419.923 285.677 420 283 420V423ZM311.318 420.134L311.922 423.073C317.4 421.948 322.765 420.509 327.996 418.776L327.052 415.929L326.109 413.081C321.1 414.74 315.962 416.118 310.715 417.196L311.318 420.134ZM345.846 408.136L347.194 410.815C352.166 408.314 356.971 405.531 361.589 402.487L359.939 399.982L358.288 397.477C353.863 400.393 349.259 403.059 344.497 405.456L345.846 408.136ZM376.072 387.585L378.067 389.825C382.21 386.136 386.136 382.21 389.825 378.067L387.585 376.072L385.345 374.077C381.809 378.046 378.046 381.809 374.077 385.345L376.072 387.585ZM399.982 359.939L402.487 361.589C405.531 356.971 408.314 352.166 410.815 347.194L408.136 345.846L405.456 344.497C403.059 349.259 400.393 353.863 397.477 358.288L399.982 359.939ZM415.929 327.052L418.776 327.996C420.509 322.765 421.948 317.4 423.073 311.922L420.135 311.318L417.196 310.715C416.118 315.962 414.74 321.1 413.081 326.109L415.929 327.052ZM422.767 291.146L425.762 291.318C425.92 288.565 426 285.792 426 283H423H420C420 285.677 419.923 288.336 419.772 290.974L422.767 291.146ZM423 283H426C426 280.208 425.92 277.435 425.762 274.682L422.767 274.854L419.772 275.026C419.923 277.664 420 280.323 420 283H423ZM420.135 254.682L423.073 254.078C421.948 248.6 420.509 243.235 418.776 238.004L415.929 238.948L413.081 239.891C414.74 244.9 416.118 250.038 417.196 255.285L420.135 254.682ZM408.136 220.154L410.815 218.806C408.314 213.834 405.531 209.029 402.487 204.411L399.982 206.061L397.477 207.712C400.393 212.137 403.059 216.741 405.456 221.503L408.136 220.154ZM387.585 189.928L389.825 187.933C386.136 183.79 382.21 179.864 378.067 176.175L376.072 178.415L374.077 180.655C378.046 184.191 381.809 187.954 385.345 191.923L387.585 189.928ZM359.939 166.018L361.589 163.513C356.971 160.469 352.166 157.686 347.194 155.185L345.846 157.864L344.497 160.544C349.259 162.941 353.863 165.607 358.288 168.523L359.939 166.018ZM327.052 150.071L327.996 147.224C322.765 145.491 317.4 144.052 311.922 142.927L311.318 145.866L310.715 148.804C315.962 149.882 321.1 151.26 326.109 152.919L327.052 150.071ZM291.146 143.233L291.318 140.238C288.565 140.08 285.792 140 283 140V143V146C285.677 146 288.336 146.077 290.974 146.228L291.146 143.233Z" fill="#FF5890"/>
</svg>
