<svg width="178" height="312" viewBox="0 0 178 312" fill="none" xmlns="http://www.w3.org/2000/svg">
<g filter="url(#filter0_d_732_8716)">
<mask id="path-1-outside-1_732_8716" maskUnits="userSpaceOnUse" x="5.50006" y="5.5" width="162" height="296" fill="black">
<rect fill="white" x="5.50006" y="5.5" width="162" height="296"/>
<path d="M86.5001 6.5C131.229 6.51142 167.777 43.3353 166.466 85.499C164.716 141.846 107.694 175.51 91.0274 184.164C91.5572 184.405 91.9122 184.944 91.9122 185.557C91.9121 186.67 90.7213 187.619 89.6114 187.533C89.5067 187.525 89.3977 187.518 89.2842 187.511L89.5762 189.902C89.7015 190.225 89.921 190.502 90.2061 190.697L93.7823 193.146C94.7325 193.245 95.4735 194.049 95.4737 195.025C95.4737 196.069 94.6275 196.915 93.584 196.915H88.9092C90.9733 216.31 85.178 230.11 81.4581 243.611C79.4301 250.972 77.9925 258.273 78.5762 266.52C79.1594 274.758 81.7695 286.462 88.0049 297.767C88.4628 298.597 88.1608 299.642 87.3301 300.1C86.4993 300.558 85.4543 300.255 84.9962 299.425C78.5635 287.763 75.7737 275.58 75.1495 266.763C74.5259 257.954 76.0736 250.219 78.1456 242.699C81.9882 228.752 87.5453 215.635 85.4532 196.915H79.4991C78.4558 196.915 77.6104 196.069 77.6104 195.025C77.6104 195.016 77.6103 195.006 77.6104 194.996C77.6112 194.89 77.6221 194.784 77.6426 194.68C77.7665 194.012 78.2415 193.467 78.8692 193.245L82.4815 190.677C82.738 190.494 82.9392 190.244 83.0635 189.955L83.4649 187.533C82.3571 187.614 81.172 186.667 81.1719 185.557C81.1719 184.962 81.5065 184.436 82.0108 184.186C65.3939 175.563 8.28515 141.89 6.53424 85.499C5.22313 43.3353 41.7707 6.51147 86.5001 6.5Z"/>
</mask>
<path d="M86.5001 6.5C131.229 6.51142 167.777 43.3353 166.466 85.499C164.716 141.846 107.694 175.51 91.0274 184.164C91.5572 184.405 91.9122 184.944 91.9122 185.557C91.9121 186.67 90.7213 187.619 89.6114 187.533C89.5067 187.525 89.3977 187.518 89.2842 187.511L89.5762 189.902C89.7015 190.225 89.921 190.502 90.2061 190.697L93.7823 193.146C94.7325 193.245 95.4735 194.049 95.4737 195.025C95.4737 196.069 94.6275 196.915 93.584 196.915H88.9092C90.9733 216.31 85.178 230.11 81.4581 243.611C79.4301 250.972 77.9925 258.273 78.5762 266.52C79.1594 274.758 81.7695 286.462 88.0049 297.767C88.4628 298.597 88.1608 299.642 87.3301 300.1C86.4993 300.558 85.4543 300.255 84.9962 299.425C78.5635 287.763 75.7737 275.58 75.1495 266.763C74.5259 257.954 76.0736 250.219 78.1456 242.699C81.9882 228.752 87.5453 215.635 85.4532 196.915H79.4991C78.4558 196.915 77.6104 196.069 77.6104 195.025C77.6104 195.016 77.6103 195.006 77.6104 194.996C77.6112 194.89 77.6221 194.784 77.6426 194.68C77.7665 194.012 78.2415 193.467 78.8692 193.245L82.4815 190.677C82.738 190.494 82.9392 190.244 83.0635 189.955L83.4649 187.533C82.3571 187.614 81.172 186.667 81.1719 185.557C81.1719 184.962 81.5065 184.436 82.0108 184.186C65.3939 175.563 8.28515 141.89 6.53424 85.499C5.22313 43.3353 41.7707 6.51147 86.5001 6.5Z" fill="#C8E6FF"/>
<path d="M86.5001 6.5L86.5003 5.5L86.4998 5.5L86.5001 6.5ZM166.466 85.499L165.466 85.4679V85.468L166.466 85.499ZM91.0274 184.164L90.5666 183.277L90.613 185.074L91.0274 184.164ZM91.9122 185.557L92.9122 185.557V185.557H91.9122ZM89.6114 187.533L89.688 186.536H89.688L89.6114 187.533ZM89.2842 187.511L89.349 186.513L88.2916 187.632L89.2842 187.511ZM89.5762 189.902L88.5836 190.024L88.6442 190.265L89.5762 189.902ZM90.2061 190.697L89.6408 191.522L89.6411 191.522L90.2061 190.697ZM93.7823 193.146L93.2172 193.972L93.6787 194.141L93.7823 193.146ZM95.4737 195.025H96.4737V195.025L95.4737 195.025ZM93.584 196.915V197.915H93.5841L93.584 196.915ZM88.9092 196.915V195.915L87.9149 197.021L88.9092 196.915ZM81.4581 243.611L80.494 243.346V243.346L81.4581 243.611ZM78.5762 266.52L77.5787 266.59V266.59L78.5762 266.52ZM88.0049 297.767L88.8807 297.284L88.8806 297.284L88.0049 297.767ZM87.3301 300.1L87.8129 300.975L87.8129 300.975L87.3301 300.1ZM84.9962 299.425L84.1205 299.908L84.1205 299.908L84.9962 299.425ZM75.1495 266.763L74.152 266.833V266.833L75.1495 266.763ZM78.1456 242.699L77.1815 242.434V242.434L78.1456 242.699ZM85.4532 196.915L86.447 196.804L85.4532 195.915V196.915ZM79.4991 196.915L79.4988 197.915H79.4991V196.915ZM77.6104 195.025L76.6104 195.024V195.025H77.6104ZM77.6104 194.996L78.6103 195.013L78.6104 195.003L77.6104 194.996ZM77.6426 194.68L78.624 194.872L78.6259 194.862L77.6426 194.68ZM78.8692 193.245L79.203 194.188L79.4487 194.06L78.8692 193.245ZM82.4815 190.677L83.061 191.492L83.0613 191.492L82.4815 190.677ZM83.0635 189.955L83.9823 190.35L84.0501 190.119L83.0635 189.955ZM83.4649 187.533L84.4514 187.697L83.3925 186.536L83.4649 187.533ZM81.1719 185.557H80.1719V185.557L81.1719 185.557ZM82.0108 184.186L82.4562 185.081L82.4714 183.298L82.0108 184.186ZM6.53424 85.499L7.53376 85.468L7.53376 85.4679L6.53424 85.499ZM86.5001 6.5L86.4998 7.5C130.701 7.51129 166.759 43.9037 165.466 85.4679L166.466 85.499L167.465 85.5301C168.795 42.7669 131.758 5.51156 86.5003 5.5L86.5001 6.5ZM166.466 85.499L165.466 85.468C164.602 113.293 150.091 135.568 133.634 152.009C117.178 168.449 98.8547 178.973 90.5666 183.277L91.0274 184.164L91.4882 185.052C99.8667 180.701 118.388 170.066 135.047 153.424C151.705 136.783 166.58 114.052 167.465 85.5301L166.466 85.499ZM91.0274 184.164L90.613 185.074C90.7846 185.152 90.9122 185.334 90.9122 185.557H91.9122H92.9122C92.9122 184.554 92.3298 183.658 91.4418 183.254L91.0274 184.164ZM91.9122 185.557L90.9122 185.557C90.9122 185.749 90.804 186.003 90.5358 186.228C90.2671 186.453 89.9431 186.556 89.688 186.536L89.6114 187.533L89.5348 188.53C90.3897 188.596 91.2159 188.267 91.8202 187.761C92.4249 187.254 92.9121 186.478 92.9122 185.557L91.9122 185.557ZM89.6114 187.533L89.688 186.536C89.5763 186.528 89.461 186.52 89.349 186.513L89.2842 187.511L89.2195 188.509C89.3344 188.516 89.4371 188.523 89.5348 188.53L89.6114 187.533ZM89.2842 187.511L88.2916 187.632L88.5836 190.024L89.5762 189.902L90.5689 189.781L90.2769 187.39L89.2842 187.511ZM89.5762 189.902L88.6442 190.265C88.8421 190.774 89.1891 191.213 89.6408 191.522L90.2061 190.697L90.7714 189.872C90.6528 189.791 90.5609 189.675 90.5083 189.54L89.5762 189.902ZM90.2061 190.697L89.6411 191.522L93.2172 193.972L93.7823 193.146L94.3473 192.321L90.7712 189.872L90.2061 190.697ZM93.7823 193.146L93.6787 194.141C94.1249 194.188 94.4736 194.567 94.4737 195.026L95.4737 195.025L96.4737 195.025C96.4734 193.531 95.3402 192.303 93.8859 192.152L93.7823 193.146ZM95.4737 195.025H94.4737C94.4737 195.517 94.0752 195.915 93.584 195.915L93.584 196.915L93.5841 197.915C95.1798 197.915 96.4737 196.621 96.4737 195.025H95.4737ZM93.584 196.915V195.915H88.9092V196.915V197.915H93.584V196.915ZM88.9092 196.915L87.9149 197.021C89.9533 216.175 84.2459 229.728 80.494 243.346L81.4581 243.611L82.4221 243.877C86.1101 230.492 91.9934 216.445 89.9036 196.809L88.9092 196.915ZM81.4581 243.611L80.494 243.346C78.4533 250.753 76.9834 258.18 77.5787 266.59L78.5762 266.52L79.5737 266.449C79.0016 258.366 80.407 251.191 82.4221 243.877L81.4581 243.611ZM78.5762 266.52L77.5787 266.59C78.1707 274.953 80.8148 286.802 87.1293 298.25L88.0049 297.767L88.8806 297.284C82.7241 286.123 80.1481 274.563 79.5737 266.449L78.5762 266.52ZM88.0049 297.767L87.1292 298.249C87.3205 298.596 87.1943 299.033 86.8474 299.224L87.3301 300.1L87.8129 300.975C89.1274 300.251 89.6051 298.598 88.8807 297.284L88.0049 297.767ZM87.3301 300.1L86.8474 299.224C86.5002 299.415 86.0632 299.289 85.8718 298.942L84.9962 299.425L84.1205 299.908C84.8454 301.222 86.4985 301.7 87.8129 300.975L87.3301 300.1ZM84.9962 299.425L85.8718 298.942C79.5173 287.422 76.7622 275.383 76.147 266.692L75.1495 266.763L74.152 266.833C74.7852 275.778 77.6097 288.104 84.1205 299.908L84.9962 299.425ZM75.1495 266.763L76.147 266.692C75.535 258.047 77.0505 250.438 79.1096 242.965L78.1456 242.699L77.1815 242.434C75.0967 250 73.5168 257.86 74.152 266.833L75.1495 266.763ZM78.1456 242.699L79.1096 242.965C82.9197 229.136 88.5664 215.768 86.447 196.804L85.4532 196.915L84.4594 197.026C86.5241 215.501 81.0567 228.368 77.1815 242.434L78.1456 242.699ZM85.4532 196.915V195.915H79.4991V196.915V197.915H85.4532V196.915ZM79.4991 196.915L79.4993 195.915C79.0086 195.915 78.6104 195.517 78.6104 195.025H77.6104H76.6104C76.6104 196.621 77.9031 197.915 79.4988 197.915L79.4991 196.915ZM77.6104 195.025L78.6104 195.026C78.6104 195.021 78.6104 195.016 78.6104 195.013C78.6104 195.011 78.6104 195.01 78.6104 195.009C78.6104 195.008 78.6104 195.007 78.6103 195.006C78.6103 195.003 78.6104 195.007 78.6103 195.013L77.6104 194.996L76.6105 194.979C76.6103 194.995 76.6103 195.008 76.6104 195.015C76.6104 195.017 76.6104 195.023 76.6104 195.023C76.6104 195.025 76.6104 195.025 76.6104 195.024L77.6104 195.025ZM77.6104 194.996L78.6104 195.003C78.6107 194.962 78.615 194.918 78.6239 194.872L77.6426 194.68L76.6614 194.487C76.6292 194.651 76.6117 194.819 76.6104 194.989L77.6104 194.996ZM77.6426 194.68L78.6259 194.862C78.6837 194.55 78.9072 194.293 79.203 194.188L78.8692 193.245L78.5354 192.302C77.5758 192.642 76.8493 193.473 76.6594 194.497L77.6426 194.68ZM78.8692 193.245L79.4487 194.06L83.061 191.492L82.4815 190.677L81.902 189.862L78.2897 192.43L78.8692 193.245ZM82.4815 190.677L83.0613 191.492C83.4678 191.202 83.7859 190.807 83.9823 190.35L83.0635 189.955L82.1448 189.56C82.0925 189.682 82.0081 189.786 81.9017 189.862L82.4815 190.677ZM83.0635 189.955L84.0501 190.119L84.4514 187.697L83.4649 187.533L82.4784 187.37L82.077 189.792L83.0635 189.955ZM83.4649 187.533L83.3925 186.536C83.137 186.554 82.8137 186.451 82.5464 186.226C82.2796 186.002 82.172 185.748 82.1719 185.557L81.1719 185.557L80.1719 185.557C80.172 186.476 80.657 187.251 81.2597 187.757C81.8619 188.263 82.685 188.592 83.5373 188.531L83.4649 187.533ZM81.1719 185.557H82.1719C82.1719 185.34 82.2923 185.162 82.4562 185.081L82.0108 184.186L81.5654 183.29C80.7206 183.711 80.1719 184.583 80.1719 185.557H81.1719ZM82.0108 184.186L82.4714 183.298C74.2081 179.01 55.8761 168.492 39.4043 152.048C22.9311 135.602 8.39837 113.314 7.53376 85.468L6.53424 85.499L5.53472 85.5301C6.42102 114.074 21.3182 136.818 37.9913 153.463C54.6658 170.109 73.1966 180.739 81.5502 185.073L82.0108 184.186ZM6.53424 85.499L7.53376 85.4679C6.24129 43.9037 42.2993 7.51134 86.5003 7.5L86.5001 6.5L86.4998 5.5C41.2421 5.51161 4.20497 42.767 5.53472 85.5301L6.53424 85.499Z" fill="black" mask="url(#path-1-outside-1_732_8716)"/>
<path d="M88.1779 191.641C92.0068 213.85 85.5043 228.89 81.458 243.576C79.43 250.936 77.9929 258.238 78.5767 266.485C79.1598 274.723 81.7692 286.427 88.0047 297.731C88.4629 298.561 88.1609 299.606 87.3301 300.064C86.4993 300.522 85.4545 300.22 84.9964 299.39C78.5636 287.728 75.7735 275.544 75.1493 266.727C74.5258 257.918 76.0736 250.184 78.1455 242.664C82.299 227.589 88.4567 213.483 84.7917 192.224L88.1779 191.641Z" fill="url(#paint0_linear_732_8716)"/>
<path d="M83.8049 185.451C84.4119 184.039 88.4881 184.074 89.0452 185.507L89.5758 189.867C89.701 190.189 89.9207 190.466 90.206 190.662L94.4562 193.573C95.849 194.528 95.1737 196.708 93.4855 196.708H79.3311C77.6585 196.708 76.9725 194.561 78.3353 193.591L82.4813 190.641C82.7378 190.458 82.9393 190.209 83.0636 189.919L83.8049 185.451Z" fill="url(#paint1_linear_732_8716)"/>
<rect x="77.6101" y="193.101" width="17.8634" height="3.7788" rx="1.8894" fill="url(#paint2_linear_732_8716)"/>
<g filter="url(#filter1_ii_732_8716)">
<path d="M86.5001 6.46466C131.23 6.47608 167.777 43.3002 166.466 85.464C164.423 151.269 86.9974 186.142 86.5001 186.366C85.9945 186.139 8.57739 151.265 6.53428 85.464C5.22295 43.3002 41.7706 6.47613 86.5001 6.46466Z" fill="url(#paint3_radial_732_8716)"/>
</g>
<g style="mix-blend-mode:overlay" filter="url(#filter2_f_732_8716)">
<path d="M86.5419 112.271C119.741 112.275 134.521 125.004 133.548 138.197C132.375 154.12 105.125 167.876 92.6615 173.326C88.6498 175.081 84.4337 175.081 80.4221 173.327C67.9583 167.877 40.7086 154.12 39.5358 138.197C38.5625 125.004 53.3427 112.275 86.5419 112.271Z" fill="url(#paint4_linear_732_8716)" fill-opacity="0.15"/>
</g>
<path d="M81.1722 185.521C81.1722 184.751 81.732 184.096 82.4968 184.005C83.5696 183.876 85.1295 183.725 86.542 183.725C87.9546 183.725 89.5145 183.876 90.5873 184.005C91.3521 184.096 91.9118 184.751 91.9118 185.521C91.9118 186.634 90.7216 187.583 89.6116 187.498C88.8411 187.439 87.8369 187.396 86.542 187.396C85.2472 187.396 84.243 187.439 83.4725 187.498C82.3625 187.583 81.1722 186.634 81.1722 185.521Z" fill="url(#paint5_linear_732_8716)"/>
<g filter="url(#filter3_d_732_8716)">
<path d="M79.2477 61.404C79.6163 58.4654 80.0178 49.2378 78.8874 47.5097C77.1767 44.8994 71.5164 45.2389 69.8332 47.0895C68.1527 48.9372 69.1401 60.3939 71.1946 62.4559C73.2492 64.518 78.8792 64.3427 79.2477 61.404Z" fill="url(#paint6_linear_732_8716)"/>
<path d="M103.638 61.404C104.006 58.4654 104.408 49.2378 103.278 47.5097C101.567 44.8994 95.9065 45.2389 94.2233 47.0895C92.5428 48.9372 93.5302 60.3939 95.5847 62.4559C97.6392 64.518 103.269 64.3427 103.638 61.404Z" fill="url(#paint7_linear_732_8716)"/>
<path d="M92.8114 88.7431C92.9789 88.7078 93.1584 88.6686 93.3516 88.6275C93.5448 88.5844 93.7498 88.5275 93.9667 88.4727C94.8322 88.2454 95.8831 87.924 97.0147 87.4185C98.1444 86.9188 99.355 86.2428 100.512 85.3787C101.67 84.5186 102.768 83.4703 103.692 82.3181C104.623 81.1699 105.384 79.9276 105.956 78.7206C106.529 77.5116 106.936 76.3438 107.2 75.3093C107.33 74.792 107.423 74.308 107.499 73.8671C107.559 73.4263 107.602 73.0285 107.624 72.6797C107.641 71.9861 107.588 71.4943 107.448 71.263C106.871 70.3323 105.573 69.7798 104.345 69.6916C103.732 69.6446 103.134 69.7073 102.653 69.8836C102.413 69.9718 102.202 70.0894 102.032 70.2363C101.863 70.3852 101.735 70.5635 101.646 70.7771C101.474 71.2023 101.263 72.3133 100.828 73.6869C100.773 73.8573 100.717 74.0356 100.658 74.2159C100.593 74.3922 100.524 74.5725 100.455 74.7587C100.422 74.8508 100.386 74.9448 100.351 75.0389C100.311 75.131 100.272 75.223 100.232 75.3171C100.15 75.5013 100.079 75.6992 99.9859 75.8834C99.6409 76.6436 99.2051 77.398 98.7063 78.1093C97.7127 79.5338 96.3976 80.731 95.1023 81.4952C93.8149 82.2711 92.6063 82.6767 91.9498 82.8295C91.2933 82.9843 90.1616 83.1861 88.7697 83.1803C87.3837 83.1979 85.7492 82.9902 84.1661 82.5924C82.5849 82.181 81.0569 81.5833 79.8346 80.9406C78.6004 80.3136 77.6698 79.6631 77.1197 79.2791C76.5697 78.893 75.8638 78.268 75.2132 77.5019C74.5646 76.7357 73.9573 75.8481 73.5473 74.986C73.1214 74.1277 72.8572 73.3204 72.6837 72.6934C72.6463 72.5347 72.593 72.3917 72.5556 72.2584C72.5201 72.1252 72.4806 72.0037 72.4353 71.8959C72.3623 71.6804 72.2776 71.5217 72.1691 71.4335C71.8695 71.167 71.3785 70.9574 70.8245 70.7869C70.2626 70.6204 69.6061 70.4989 68.9476 70.4558C68.2891 70.4127 67.6267 70.4538 67.051 70.6086C66.4772 70.7614 65.9844 71.0318 65.6827 71.412C65.5407 71.6001 65.4343 71.9371 65.3889 72.3917C65.3732 72.617 65.3692 72.8737 65.3771 73.1539C65.3909 73.4341 65.4323 73.7339 65.4777 74.0572C65.6788 75.3465 66.2722 76.8925 67.1377 78.3209C68.0111 79.7454 69.1408 81.0465 70.2567 82.0556C71.3687 83.0764 72.4412 83.8406 73.1845 84.3755C73.9258 84.9144 75.16 85.7295 76.7215 86.5113C77.5042 86.8953 78.3638 87.2813 79.2766 87.6203C80.1914 87.9573 81.1555 88.2591 82.1354 88.5079C84.0971 88.9958 86.1238 89.2427 87.8825 89.2564C89.6411 89.2741 91.1158 89.0801 91.9794 88.9077C92.1962 88.8646 92.4742 88.8195 92.8074 88.7431H92.8114Z" fill="url(#paint8_linear_732_8716)"/>
</g>
<g opacity="0.6" filter="url(#filter4_f_732_8716)">
<path d="M49.4058 24.7355C51.3944 24.1261 54.369 23.9051 56.4958 24.7822C58.3628 25.5522 60.0825 27.3472 60.1887 29.9398C60.2949 32.5324 59.2657 34.4064 57.1482 35.4078C55.072 36.3897 54.2186 36.5974 50.9124 39.122C48.767 40.7601 47.5961 43.4177 43.2558 42.4547C39.138 41.5411 37.8409 36.4613 39.8184 32.5439C41.9911 28.2402 46.8053 25.5324 49.4058 24.7355Z" fill="#C8E6FF"/>
</g>
</g>
<defs>
<filter id="filter0_d_732_8716" x="0" y="0" width="178" height="311.965" filterUnits="userSpaceOnUse" color-interpolation-filters="sRGB">
<feFlood flood-opacity="0" result="BackgroundImageFix"/>
<feColorMatrix in="SourceAlpha" type="matrix" values="0 0 0 0 0 0 0 0 0 0 0 0 0 0 0 0 0 0 127 0" result="hardAlpha"/>
<feOffset dx="2.5" dy="2.5"/>
<feGaussianBlur stdDeviation="4"/>
<feComposite in2="hardAlpha" operator="out"/>
<feColorMatrix type="matrix" values="0 0 0 0 0 0 0 0 0 0 0 0 0 0 0 0 0 0 0.12 0"/>
<feBlend mode="normal" in2="BackgroundImageFix" result="effect1_dropShadow_732_8716"/>
<feBlend mode="normal" in="SourceGraphic" in2="effect1_dropShadow_732_8716" result="shape"/>
</filter>
<filter id="filter1_ii_732_8716" x="-4.99994" y="-11.5353" width="181.5" height="205.901" filterUnits="userSpaceOnUse" color-interpolation-filters="sRGB">
<feFlood flood-opacity="0" result="BackgroundImageFix"/>
<feBlend mode="normal" in="SourceGraphic" in2="BackgroundImageFix" result="shape"/>
<feColorMatrix in="SourceAlpha" type="matrix" values="0 0 0 0 0 0 0 0 0 0 0 0 0 0 0 0 0 0 127 0" result="hardAlpha"/>
<feOffset dx="-11.5" dy="-18"/>
<feGaussianBlur stdDeviation="14.25"/>
<feComposite in2="hardAlpha" operator="arithmetic" k2="-1" k3="1"/>
<feColorMatrix type="matrix" values="0 0 0 0 0 0 0 0 0 0 0 0 0 0 0 0 0 0 0.14 0"/>
<feBlend mode="normal" in2="shape" result="effect1_innerShadow_732_8716"/>
<feColorMatrix in="SourceAlpha" type="matrix" values="0 0 0 0 0 0 0 0 0 0 0 0 0 0 0 0 0 0 127 0" result="hardAlpha"/>
<feOffset dx="10" dy="8"/>
<feGaussianBlur stdDeviation="13.5"/>
<feComposite in2="hardAlpha" operator="arithmetic" k2="-1" k3="1"/>
<feColorMatrix type="matrix" values="0 0 0 0 1 0 0 0 0 1 0 0 0 0 1 0 0 0 0.48 0"/>
<feBlend mode="overlay" in2="effect1_innerShadow_732_8716" result="effect2_innerShadow_732_8716"/>
</filter>
<filter id="filter2_f_732_8716" x="23.4908" y="96.2711" width="126.102" height="94.3711" filterUnits="userSpaceOnUse" color-interpolation-filters="sRGB">
<feFlood flood-opacity="0" result="BackgroundImageFix"/>
<feBlend mode="normal" in="SourceGraphic" in2="BackgroundImageFix" result="shape"/>
<feGaussianBlur stdDeviation="8" result="effect1_foregroundBlur_732_8716"/>
</filter>
<filter id="filter3_d_732_8716" x="53.3732" y="33.6266" width="66.2538" height="67.6309" filterUnits="userSpaceOnUse" color-interpolation-filters="sRGB">
<feFlood flood-opacity="0" result="BackgroundImageFix"/>
<feColorMatrix in="SourceAlpha" type="matrix" values="0 0 0 0 0 0 0 0 0 0 0 0 0 0 0 0 0 0 127 0" result="hardAlpha"/>
<feOffset/>
<feGaussianBlur stdDeviation="6"/>
<feComposite in2="hardAlpha" operator="out"/>
<feColorMatrix type="matrix" values="0 0 0 0 0 0 0 0 0 0.333333 0 0 0 0 0.823529 0 0 0 0.35 0"/>
<feBlend mode="normal" in2="BackgroundImageFix" result="effect1_dropShadow_732_8716"/>
<feBlend mode="normal" in="SourceGraphic" in2="effect1_dropShadow_732_8716" result="shape"/>
</filter>
<filter id="filter4_f_732_8716" x="28.9099" y="14.1995" width="41.2863" height="38.4599" filterUnits="userSpaceOnUse" color-interpolation-filters="sRGB">
<feFlood flood-opacity="0" result="BackgroundImageFix"/>
<feBlend mode="normal" in="SourceGraphic" in2="BackgroundImageFix" result="shape"/>
<feGaussianBlur stdDeviation="5" result="effect1_foregroundBlur_732_8716"/>
</filter>
<linearGradient id="paint0_linear_732_8716" x1="86.542" y1="196.435" x2="81.5912" y2="296.746" gradientUnits="userSpaceOnUse">
<stop stop-color="white"/>
<stop offset="1" stop-color="#EDEDED"/>
</linearGradient>
<linearGradient id="paint1_linear_732_8716" x1="86.4082" y1="184.412" x2="86.4082" y2="196.708" gradientUnits="userSpaceOnUse">
<stop stop-color="#005BCA"/>
<stop offset="0.65" stop-color="#0055D2"/>
</linearGradient>
<linearGradient id="paint2_linear_732_8716" x1="86.1983" y1="192.656" x2="86.1983" y2="198.324" gradientUnits="userSpaceOnUse">
<stop stop-color="#00409F"/>
<stop offset="1" stop-color="#002C6C"/>
</linearGradient>
<radialGradient id="paint3_radial_732_8716" cx="0" cy="0" r="1" gradientTransform="matrix(91.2064 161.286 161.23 -91.1855 75.3772 37.2103)" gradientUnits="userSpaceOnUse">
<stop offset="0.253496" stop-color="#58B3FF"/>
<stop offset="0.731106" stop-color="#0055D2"/>
</radialGradient>
<linearGradient id="paint4_linear_732_8716" x1="86.5419" y1="127.566" x2="86.5419" y2="242.796" gradientUnits="userSpaceOnUse">
<stop stop-color="#C8E6FF"/>
<stop offset="1" stop-color="#C8E6FF" stop-opacity="0"/>
</linearGradient>
<linearGradient id="paint5_linear_732_8716" x1="86.542" y1="183.725" x2="86.542" y2="187.503" gradientUnits="userSpaceOnUse">
<stop stop-color="white"/>
<stop offset="1" stop-color="#EDEDED"/>
</linearGradient>
<linearGradient id="paint6_linear_732_8716" x1="74.3051" y1="45.6266" x2="74.3051" y2="63.8336" gradientUnits="userSpaceOnUse">
<stop stop-color="#E7F4FF"/>
<stop offset="1" stop-color="#F7F7F7"/>
</linearGradient>
<linearGradient id="paint7_linear_732_8716" x1="98.6952" y1="45.6266" x2="98.6952" y2="63.8336" gradientUnits="userSpaceOnUse">
<stop stop-color="#E7F4FF"/>
<stop offset="1" stop-color="#F7F7F7"/>
</linearGradient>
<linearGradient id="paint8_linear_732_8716" x1="86.5001" y1="69.6765" x2="86.5001" y2="89.2576" gradientUnits="userSpaceOnUse">
<stop stop-color="#E7F4FF"/>
<stop offset="1" stop-color="#F7F7F7"/>
</linearGradient>
</defs>
</svg>
