<svg width="196" height="196" viewBox="0 0 196 196" fill="none" xmlns="http://www.w3.org/2000/svg">
<g filter="url(#filter0_d_1498_3616)">
<circle cx="95.5" cy="95.5" r="90" fill="#D4E5FB"/>
<circle cx="95.5" cy="95.5" r="78" fill="#A9CDFD"/>
<circle cx="95.5" cy="95.5" r="66" fill="#006AFE"/>
<path d="M78.5156 92.3828C78.375 91.0352 77.3086 90.25 75.5859 90.25C73.8047 90.25 72.8086 91.0703 72.7969 92.1953C72.7852 93.4258 74.0508 93.9766 75.5156 94.3047L77.0391 94.6797C79.9453 95.3477 82.1133 96.8242 82.125 99.6484C82.1133 102.754 79.6992 104.746 75.5625 104.734C71.4609 104.746 68.8477 102.848 68.7422 99.2031H72.1641C72.2812 100.914 73.6406 101.781 75.5156 101.781C77.3672 101.781 78.5625 100.914 78.5625 99.6484C78.5625 98.4883 77.5078 97.9492 75.6562 97.4922L73.8047 97.0469C70.9453 96.3438 69.1875 94.9141 69.1875 92.4297C69.1758 89.3477 71.8945 87.2969 75.6094 87.2969C79.3711 87.2969 81.8438 89.3828 81.8906 92.3828H78.5156ZM91.0547 91.7734V94.375H88.6641V100.586C88.6523 101.605 89.1562 101.852 89.8594 101.875C90.2109 101.875 90.8203 101.84 91.2422 101.805V104.547C90.8672 104.605 90.2461 104.676 89.3906 104.664C86.8828 104.676 85.1719 103.551 85.1953 101.078V94.375H83.4375V91.7734H85.1953V88.7266H88.6641V91.7734H91.0547ZM92.625 100.938C92.6367 98.1016 94.9102 97.1758 97.3594 97.0234C98.2734 96.9648 99.9844 96.8828 100.523 96.8594V95.8281C100.512 94.7617 99.7852 94.1523 98.4844 94.1406C97.3008 94.1523 96.5625 94.6797 96.375 95.5469H93.0703C93.2812 93.3438 95.2031 91.6094 98.5781 91.6094C101.355 91.6094 103.98 92.8516 103.969 95.9219V104.5H100.688V102.742H100.594C99.9727 103.914 98.7539 104.746 96.8672 104.734C94.4297 104.746 92.6367 103.457 92.625 100.938ZM95.9531 100.844C95.9531 101.816 96.7383 102.332 97.8516 102.344C99.4336 102.332 100.535 101.301 100.523 99.9531V99.0273C99.9961 99.0508 98.5078 99.1328 97.9219 99.1797C96.7148 99.2852 95.9531 99.8594 95.9531 100.844ZM106.617 104.5V91.7734H109.969V93.9766H110.109C110.566 92.418 111.75 91.5859 113.18 91.5859C113.531 91.5859 113.977 91.6328 114.281 91.7031V94.7969C113.953 94.6914 113.285 94.6094 112.805 94.6094C111.234 94.6094 110.074 95.6992 110.086 97.2578V104.5H106.617ZM123.305 91.7734V94.375H120.914V100.586C120.902 101.605 121.406 101.852 122.109 101.875C122.461 101.875 123.07 101.84 123.492 101.805V104.547C123.117 104.605 122.496 104.676 121.641 104.664C119.133 104.676 117.422 103.551 117.445 101.078V94.375H115.688V91.7734H117.445V88.7266H120.914V91.7734H123.305Z" fill="white"/>
</g>
<defs>
<filter id="filter0_d_1498_3616" x="0" y="0" width="196" height="196" filterUnits="userSpaceOnUse" color-interpolation-filters="sRGB">
<feFlood flood-opacity="0" result="BackgroundImageFix"/>
<feColorMatrix in="SourceAlpha" type="matrix" values="0 0 0 0 0 0 0 0 0 0 0 0 0 0 0 0 0 0 127 0" result="hardAlpha"/>
<feOffset dx="2.5" dy="2.5"/>
<feGaussianBlur stdDeviation="4"/>
<feComposite in2="hardAlpha" operator="out"/>
<feColorMatrix type="matrix" values="0 0 0 0 0 0 0 0 0 0 0 0 0 0 0 0 0 0 0.12 0"/>
<feBlend mode="normal" in2="BackgroundImageFix" result="effect1_dropShadow_1498_3616"/>
<feBlend mode="normal" in="SourceGraphic" in2="effect1_dropShadow_1498_3616" result="shape"/>
</filter>
</defs>
</svg>
