<svg width="400" height="600" viewBox="0 0 400 600" fill="none" xmlns="http://www.w3.org/2000/svg">
<path d="M148.944 380L124.686 558.265C123.265 568.705 131.381 578 141.917 578C149.258 578 155.808 573.391 158.286 566.482L200.251 449.503L242.804 566.846C245.232 573.541 251.592 578 258.714 578C268.934 578 276.822 569.011 275.494 558.877L252.056 380" stroke="black" stroke-width="20" stroke-linecap="round" stroke-linejoin="round"/>
<rect width="70" height="70" rx="35" transform="matrix(-1 0 0 1 235 214)" stroke="black" stroke-width="20"/>
<path d="M330 278C300 322 252 332 200 332C148 332 100 322 70 278" stroke="black" stroke-width="20" stroke-linecap="round" stroke-linejoin="round"/>
<path d="M330 57C302.044 57.0081 279.202 80.8382 280.021 110.838C281.298 157.658 329.689 184.841 330 185C330.316 184.838 378.702 157.656 379.979 110.838C380.798 80.8382 357.956 57.0082 330 57Z" stroke="black" stroke-width="20" stroke-linecap="round" stroke-linejoin="round"/>
<path d="M330 187L330 244" stroke="black" stroke-width="20" stroke-linecap="round" stroke-linejoin="round"/>
</svg>
