<svg width="240" height="240" viewBox="0 0 240 240" fill="none" xmlns="http://www.w3.org/2000/svg">
<path d="M61.9285 51.5896C34.2959 69.5821 16.0201 100.743 16.0201 136.178C16.0201 191.881 61.1816 237.043 116.885 237.043C145.788 237.043 171.841 224.888 190.237 205.41C174.425 215.703 155.557 221.686 135.281 221.686C79.5776 221.686 34.4161 176.524 34.4161 120.821C34.4161 94.0128 44.8802 69.6594 61.9285 51.5896Z" fill="#75C7F6"/>
<path d="M193.358 35.4568C210.149 53.6646 220.4 77.9764 220.4 104.697C220.4 161.12 174.655 206.866 118.232 206.866C97.3369 206.866 77.9205 200.588 61.7387 189.832C80.4073 210.074 107.154 222.761 136.865 222.761C193.289 222.761 239.034 177.015 239.034 120.592C239.034 85.0543 220.887 53.7602 193.358 35.4568Z" fill="#006AFE"/>
<path d="M120.378 2.95703C90.8303 2.95703 64.2322 15.6093 45.7066 35.7908C61.8087 25.0187 81.1622 18.7314 101.999 18.7314C157.964 18.7314 203.338 64.1052 203.338 120.07C203.338 146.487 193.23 170.541 176.671 188.575C203.829 170.394 221.717 139.441 221.717 104.296C221.717 48.3309 176.343 2.95703 120.378 2.95703Z" fill="#75C7F6"/>
<path d="M101.949 18.1924C46.1806 18.1924 0.966064 63.4069 0.966064 119.175C0.966064 149.255 14.1239 176.258 34.9908 194.762C23.1737 178.226 16.2123 157.978 16.2123 136.106C16.2123 80.3376 61.4268 35.1231 117.195 35.1231C142.883 35.1231 166.329 44.7229 184.153 60.5192C165.839 34.8997 135.845 18.1924 101.949 18.1924Z" fill="#006AFE"/>
</svg>
