<svg width="450" height="59" viewBox="0 0 450 59" fill="none" xmlns="http://www.w3.org/2000/svg">
<path d="M207.038 21.1569C206.727 19.7662 206.021 18.6869 204.921 17.9189C203.842 17.1302 202.41 16.7358 200.625 16.7358C199.379 16.7358 198.258 16.9434 197.262 17.3585C196.266 17.7529 195.488 18.2925 194.927 18.9775C194.387 19.6624 194.128 20.4304 194.149 21.2814C194.107 22.2985 194.512 23.1598 195.363 23.8655C196.235 24.5713 197.594 25.142 199.442 25.5779L204.797 26.8233C207.91 27.5082 210.224 28.6083 211.74 30.1235C213.255 31.618 214.033 33.569 214.075 35.9767C214.054 38.0108 213.483 39.827 212.362 41.4252C211.262 43.0027 209.674 44.2377 207.599 45.1302C205.523 46.0019 203.074 46.4378 200.251 46.4378C196.224 46.4378 193.028 45.5764 190.662 43.8537C188.296 42.1309 186.905 39.6921 186.49 36.5372H193.277C193.837 39.5675 196.141 41.0827 200.189 41.0827C202.347 41.0827 204.06 40.678 205.326 39.8685C206.613 39.0383 207.267 37.9071 207.287 36.4749C207.246 35.3748 206.8 34.4615 205.949 33.7351C205.118 33.0086 203.821 32.4482 202.057 32.0538L196.764 30.933C193.713 30.2481 191.399 29.1168 189.821 27.5394C188.264 25.9619 187.486 24.0005 187.486 21.655C187.486 19.6624 188.026 17.8982 189.105 16.3622C190.205 14.8263 191.741 13.6328 193.713 12.7818C195.685 11.9308 197.968 11.5053 200.562 11.5053C203.032 11.5053 205.191 11.91 207.038 12.7195C208.906 13.5082 210.38 14.6291 211.459 16.082C212.559 17.5349 213.224 19.2266 213.452 21.1569H207.038Z" fill="#2C2C2C"/>
<path d="M170.8 11.9412H177.4V45.7529H170.924V39.8996H170.551C169.741 41.7885 168.465 43.314 166.721 44.4764C164.978 45.618 162.892 46.1888 160.463 46.1888C158.263 46.1888 156.323 45.701 154.641 44.7254C152.96 43.7499 151.652 42.3074 150.718 40.3978C149.784 38.4882 149.317 36.1635 149.317 33.4237V11.9412H155.98V32.6143C155.98 34.1294 156.271 35.4578 156.852 36.5994C157.433 37.741 158.232 38.6231 159.249 39.2458C160.287 39.8478 161.48 40.1487 162.83 40.1487C164.116 40.1487 165.372 39.8374 166.597 39.2147C167.821 38.5713 168.828 37.6165 169.617 36.3504C170.406 35.0635 170.8 33.5068 170.8 31.6802V11.9412Z" fill="#2C2C2C"/>
<path d="M140.293 17.234H133.381V35.79C133.381 37.5127 133.734 38.6958 134.439 39.3393C135.166 39.962 136.162 40.2941 137.428 40.3356C138.009 40.3356 138.923 40.2941 140.168 40.211C140.293 40.1695 140.5 40.1488 140.791 40.1488V45.9397C139.545 46.1058 138.155 46.1888 136.619 46.1888C134.813 46.1888 133.163 45.8567 131.668 45.1925C130.174 44.5283 128.98 43.5216 128.088 42.1725C127.195 40.8026 126.76 39.1317 126.78 37.1599V17.234H121.799V11.9412H126.78V3.84631H133.381V11.9412H140.293V17.234Z" fill="#2C2C2C"/>
<path d="M92.2223 45.7529H85.5596V11.9412H91.9732V17.483H92.3468C93.1771 15.615 94.4328 14.1517 96.1141 13.0931C97.7953 12.0346 99.8605 11.5053 102.31 11.5053C104.655 11.5053 106.689 11.993 108.412 12.9686C110.135 13.9234 111.463 15.3555 112.397 17.2651C113.352 19.1747 113.829 21.5097 113.829 24.2703V45.7529H107.229V25.0798C107.229 22.6306 106.596 20.7106 105.33 19.32C104.064 17.9293 102.31 17.234 100.068 17.234C98.5529 17.234 97.1934 17.5661 95.9895 18.2303C94.8064 18.8945 93.8828 19.87 93.2186 21.1569C92.5544 22.423 92.2223 23.9382 92.2223 25.7025V45.7529Z" fill="#2C2C2C"/>
<path d="M52.6837 58.4556C51.1893 58.4556 50.0062 58.3933 49.1344 58.2688V52.7269C50.1307 52.81 51.127 52.8515 52.1233 52.8515C52.9743 52.8515 53.68 52.7684 54.2404 52.6024C54.8009 52.4363 55.3509 52.0316 55.8906 51.3882C56.451 50.7447 56.9802 49.7588 57.4784 48.4304L58.2879 46.1888L45.8965 11.9412H52.9951L61.5258 38.1561H61.8994L70.4302 11.9412H77.5911L63.643 50.2362C62.6674 52.9552 61.2768 54.9997 59.471 56.3696C57.686 57.7603 55.4235 58.4556 52.6837 58.4556Z" fill="#2C2C2C"/>
<path d="M20.4317 37.3466H20.9299L33.4458 0.670502H40.8557L24.6037 45.7528H16.6956L0.505859 0.670502H7.91579L20.4317 37.3466Z" fill="#2C2C2C"/>
<path d="M449.203 23.2117C449.203 27.9026 448.331 32.0019 446.587 35.5097C444.844 38.9967 442.426 41.6847 439.333 43.5735C436.261 45.4415 432.785 46.3755 428.903 46.3755C424.98 46.3755 421.473 45.4415 418.38 43.5735C415.308 41.6847 412.9 38.9967 411.157 35.5097C409.413 32.0019 408.542 27.9026 408.542 23.2117C408.542 18.5001 409.413 14.4007 411.157 10.9137C412.9 7.40593 415.308 4.71801 418.38 2.84996C421.473 0.981907 424.98 0.0478821 428.903 0.0478821C432.785 0.0478821 436.261 0.981907 439.333 2.84996C442.426 4.71801 444.844 7.40593 446.587 10.9137C448.331 14.4007 449.203 18.5001 449.203 23.2117ZM442.415 23.2117C442.415 19.6417 441.834 16.5905 440.672 14.0583C439.51 11.526 437.901 9.60607 435.846 8.29844C433.812 6.9908 431.498 6.33699 428.903 6.33699C426.288 6.33699 423.953 6.9908 421.898 8.29844C419.843 9.60607 418.235 11.526 417.072 14.0583C415.91 16.5905 415.329 19.6417 415.329 23.2117C415.329 26.7818 415.91 29.8329 417.072 32.3652C418.235 34.8974 419.843 36.8173 421.898 38.125C423.953 39.4326 426.288 40.0864 428.903 40.0864C431.498 40.0864 433.812 39.4326 435.846 38.125C437.901 36.8173 439.51 34.8974 440.672 32.3652C441.834 29.8122 442.415 26.761 442.415 23.2117Z" fill="#2C2C2C"/>
<path d="M398.27 45.7529H391.981L369.128 12.813H368.755V45.7529H361.905V0.670624H368.257L391.109 33.6728H391.545V0.670624H398.27V45.7529Z" fill="#2C2C2C"/>
<path d="M322.679 0.670624H350.949V6.58612H329.528V20.2229H349.454V26.0761H329.528V39.8374H351.198V45.7529H322.679V0.670624Z" fill="#2C2C2C"/>
<path d="M284.51 0.670624H312.469V6.58612H291.36V20.2229H310.476V26.0761H291.36V45.7529H284.51V0.670624Z" fill="#2C2C2C"/>
<path d="M242.657 0.830231L248.511 15.171H248.741L254.595 0.830231H258.021V19.3377H255.336V5.96835H255.158L249.738 19.3121H247.514L242.069 5.94279H241.916V19.3377H239.232V0.830231H242.657Z" fill="#2C2C2C"/>
<path d="M220.72 0.830231H235.061V3.2587H229.309V19.3377H226.497V3.2587H220.72V0.830231Z" fill="#2C2C2C"/>
</svg>
