<svg width="40" height="40" viewBox="0 0 40 40" fill="none" xmlns="http://www.w3.org/2000/svg">
<rect width="40" height="40" rx="4" fill="#F7F7F7"/>
<rect width="2.98667" height="4.10667" rx="1.49333" transform="matrix(-1 0 0 1 18.0267 7.39999)" stroke="#006AFE" stroke-width="1.25"/>
<path d="M12.3333 22.3333C12.3333 22.3333 12.6367 17.3539 12.7067 16.3436C12.7767 15.3333 13.4286 14.1433 14.1342 13.63C14.7372 13.1913 15.5924 12.9067 16.5332 12.9067C17.474 12.9067 18.2972 13.21 18.9322 13.63C19.6654 14.1149 20.29 15.3567 20.36 16.3436C20.43 17.3305 20.7333 22.3333 20.7333 22.3333" stroke="#006AFE" stroke-width="1.25" stroke-linecap="round" stroke-linejoin="round"/>
<path d="M14.3867 22.1933L15.4297 32.9733H17.637L18.68 22.1933" stroke="#006AFE" stroke-width="1.25" stroke-linecap="round" stroke-linejoin="round"/>
<rect width="2.8" height="3.82667" rx="1.4" transform="matrix(-1 0 0 1 24.4867 9.15335)" stroke="#006AFE" stroke-width="1.25"/>
<path d="M27.0067 23.2467C27.0067 23.2467 26.7241 18.5906 26.6588 17.6721C26.5936 16.7536 26.0116 15.5979 25.3284 15.1466C24.7367 14.7557 23.9697 14.4734 23.093 14.4734C22.6609 14.4734 22.2482 14.5377 21.8734 14.6519" stroke="#006AFE" stroke-width="1.25" stroke-linecap="round" stroke-linejoin="round"/>
<path d="M21.08 23.1733L22.055 32.9733H24.1184L25.0934 23.1733" stroke="#006AFE" stroke-width="1.25" stroke-linecap="round" stroke-linejoin="round"/>
</svg>
