<svg width="320" height="504" viewBox="0 0 320 504" fill="none" xmlns="http://www.w3.org/2000/svg">
<g clip-path="url(#clip0_1955_13143)">
<g filter="url(#filter0_d_1955_13143)">
<mask id="path-1-outside-1_1955_13143" maskUnits="userSpaceOnUse" x="12.3577" y="10.2012" width="295" height="539" fill="black">
<rect fill="white" x="12.3577" y="10.2012" width="295" height="539"/>
<path fill-rule="evenodd" clip-rule="evenodd" d="M159.999 12.2012C241.43 12.222 307.965 79.2606 305.578 156.021C302.393 258.594 198.601 319.885 168.251 335.646C169.21 336.087 169.852 337.064 169.852 338.176C169.852 340.202 167.685 341.931 165.664 341.775C165.474 341.761 165.276 341.749 165.069 341.735L165.6 346.088C165.828 346.675 166.226 347.18 166.745 347.536L173.256 351.995C174.986 352.175 176.336 353.637 176.336 355.415C176.336 357.315 174.796 358.855 172.897 358.855H164.35C168.21 394.375 157.614 419.604 150.82 444.286C147.129 457.699 144.512 471.004 145.574 486.032C146.636 501.045 151.387 522.372 162.738 542.972C163.572 544.485 163.023 546.389 161.511 547.224C159.998 548.058 158.096 547.508 157.262 545.994C145.551 524.743 140.471 502.542 139.335 486.474C138.2 470.421 141.018 456.328 144.79 442.624C151.809 417.125 161.968 393.148 158.055 358.855H147.255C145.355 358.855 143.815 357.315 143.815 355.415C143.815 355.397 143.816 355.379 143.816 355.361C143.818 355.169 143.838 354.976 143.875 354.785C144.101 353.569 144.965 352.579 146.108 352.175L152.683 347.498C153.15 347.166 153.517 346.711 153.743 346.185L154.474 341.775C152.457 341.922 150.3 340.198 150.3 338.176C150.3 337.095 150.906 336.142 151.82 335.684C121.564 319.984 17.6074 258.676 14.42 156.021C12.033 79.2608 78.5685 12.2222 159.999 12.2012Z"/>
</mask>
<path d="M159.999 12.2012L159.999 11.1755L159.999 11.1755L159.999 12.2012ZM305.578 156.021L304.553 155.989V155.989L305.578 156.021ZM168.251 335.646L167.778 334.735C167.431 334.916 167.216 335.278 167.226 335.67C167.235 336.062 167.467 336.414 167.822 336.577L168.251 335.646ZM169.852 338.176H170.877V338.176L169.852 338.176ZM165.664 341.775L165.586 342.798H165.586L165.664 341.775ZM165.069 341.735L165.136 340.712C164.831 340.692 164.534 340.809 164.324 341.031C164.114 341.253 164.014 341.556 164.051 341.859L165.069 341.735ZM165.6 346.088L164.582 346.212C164.592 346.297 164.613 346.38 164.644 346.459L165.6 346.088ZM166.745 347.536L166.165 348.382L166.166 348.382L166.745 347.536ZM173.256 351.995L172.676 352.841C172.817 352.938 172.98 352.998 173.15 353.015L173.256 351.995ZM176.336 355.415H177.362V355.415L176.336 355.415ZM172.897 358.855V359.881H172.897L172.897 358.855ZM164.35 358.855V357.83C164.058 357.83 163.781 357.954 163.586 358.171C163.392 358.387 163.299 358.677 163.33 358.966L164.35 358.855ZM150.82 444.286L149.832 444.014V444.014L150.82 444.286ZM145.574 486.032L144.551 486.105V486.105L145.574 486.032ZM162.738 542.972L161.84 543.467V543.467L162.738 542.972ZM161.511 547.224L162.006 548.122L162.006 548.122L161.511 547.224ZM157.262 545.994L156.364 546.489L156.364 546.489L157.262 545.994ZM139.335 486.474L138.312 486.546V486.546L139.335 486.474ZM144.79 442.624L143.801 442.352V442.352L144.79 442.624ZM158.055 358.855L159.074 358.739C159.015 358.221 158.576 357.83 158.055 357.83V358.855ZM147.255 358.855L147.255 359.881H147.255V358.855ZM143.815 355.415L142.789 355.414V355.415H143.815ZM143.816 355.361L144.842 355.378L144.842 355.369L143.816 355.361ZM143.875 354.785L144.882 354.983L144.884 354.972L143.875 354.785ZM146.108 352.175L146.45 353.142C146.54 353.11 146.624 353.066 146.702 353.011L146.108 352.175ZM152.683 347.498L153.277 348.334L153.277 348.334L152.683 347.498ZM153.743 346.185L154.686 346.59C154.718 346.514 154.742 346.434 154.755 346.352L153.743 346.185ZM154.474 341.775L155.486 341.943C155.537 341.633 155.443 341.316 155.231 341.084C155.02 340.852 154.713 340.73 154.4 340.752L154.474 341.775ZM150.3 338.176L149.274 338.176V338.176H150.3ZM151.82 335.684L152.28 336.601C152.624 336.428 152.843 336.077 152.846 335.691C152.849 335.305 152.635 334.951 152.293 334.773L151.82 335.684ZM14.42 156.021L15.4452 155.989L15.4452 155.989L14.42 156.021ZM159.999 12.2012L159.999 13.2268C240.888 13.2475 306.921 79.8436 304.553 155.989L305.578 156.021L306.603 156.052C309.01 78.6777 241.972 11.1965 159.999 11.1755L159.999 12.2012ZM305.578 156.021L304.553 155.989C302.972 206.918 276.414 247.65 246.376 277.663C216.34 307.673 182.907 326.879 167.778 334.735L168.251 335.646L168.724 336.556C183.945 328.652 217.582 309.332 247.826 279.114C278.069 248.897 305 207.697 306.603 156.052L305.578 156.021ZM168.251 335.646L167.822 336.577C168.416 336.85 168.826 337.463 168.826 338.176L169.852 338.176L170.877 338.176C170.877 336.665 170.004 335.323 168.68 334.714L168.251 335.646ZM169.852 338.176H168.826C168.826 338.816 168.478 339.487 167.857 340.008C167.235 340.53 166.445 340.807 165.743 340.753L165.664 341.775L165.586 342.798C166.904 342.899 168.208 342.39 169.175 341.58C170.141 340.769 170.877 339.563 170.877 338.176H169.852ZM165.664 341.775L165.743 340.753C165.544 340.738 165.336 340.725 165.136 340.712L165.069 341.735L165.003 342.759C165.215 342.773 165.403 342.784 165.586 342.798L165.664 341.775ZM165.069 341.735L164.051 341.859L164.582 346.212L165.6 346.088L166.618 345.964L166.088 341.611L165.069 341.735ZM165.6 346.088L164.644 346.459C164.946 347.236 165.474 347.908 166.165 348.382L166.745 347.536L167.325 346.69C166.978 346.452 166.71 346.113 166.556 345.716L165.6 346.088ZM166.745 347.536L166.166 348.382L172.676 352.841L173.256 351.995L173.835 351.149L167.325 346.69L166.745 347.536ZM173.256 351.995L173.15 353.015C174.363 353.141 175.31 354.168 175.31 355.415L176.336 355.415L177.362 355.415C177.361 353.106 175.609 351.209 173.362 350.975L173.256 351.995ZM176.336 355.415H175.31C175.31 356.748 174.229 357.83 172.896 357.83L172.897 358.855L172.897 359.881C175.363 359.881 177.362 357.881 177.362 355.415H176.336ZM172.897 358.855V357.83H164.35V358.855V359.881H172.897V358.855ZM164.35 358.855L163.33 358.966C167.164 394.238 156.658 419.213 149.832 444.014L150.82 444.286L151.809 444.558C158.57 419.996 169.257 394.513 165.369 358.745L164.35 358.855ZM150.82 444.286L149.832 444.014C146.127 457.474 143.477 470.909 144.551 486.105L145.574 486.032L146.597 485.96C145.547 471.1 148.13 457.924 151.809 444.558L150.82 444.286ZM145.574 486.032L144.551 486.105C145.622 501.245 150.407 522.72 161.84 543.467L162.738 542.972L163.637 542.477C152.366 522.024 147.65 500.845 146.597 485.96L145.574 486.032ZM162.738 542.972L161.84 543.467C162.401 544.485 162.031 545.765 161.015 546.326L161.511 547.224L162.006 548.122C164.015 547.013 164.744 544.485 163.637 542.477L162.738 542.972ZM161.511 547.224L161.015 546.326C159.999 546.886 158.721 546.517 158.16 545.499L157.262 545.994L156.364 546.489C157.471 548.499 159.997 549.23 162.006 548.122L161.511 547.224ZM157.262 545.994L158.16 545.499C146.529 524.393 141.485 502.339 140.358 486.401L139.335 486.474L138.312 486.546C139.457 502.744 144.572 525.092 156.364 546.489L157.262 545.994ZM139.335 486.474L140.358 486.401C139.235 470.516 142.02 456.552 145.779 442.896L144.79 442.624L143.801 442.352C140.016 456.103 137.165 470.325 138.312 486.546L139.335 486.474ZM144.79 442.624L145.779 442.896C152.764 417.518 163.016 393.283 159.074 358.739L158.055 358.855L157.036 358.972C160.92 393.012 150.853 416.732 143.801 442.352L144.79 442.624ZM158.055 358.855V357.83H147.255V358.855V359.881H158.055V358.855ZM147.255 358.855L147.255 357.83C145.922 357.83 144.84 356.748 144.84 355.415H143.815H142.789C142.789 357.881 144.789 359.881 147.255 359.881L147.255 358.855ZM143.815 355.415L144.84 355.416C144.84 355.427 144.84 355.435 144.84 355.439C144.84 355.442 144.84 355.444 144.84 355.44C144.84 355.438 144.84 355.428 144.841 355.419C144.841 355.409 144.842 355.395 144.842 355.378L143.816 355.361L142.791 355.345C142.791 355.337 142.791 355.331 142.791 355.33C142.791 355.329 142.791 355.329 142.791 355.331C142.791 355.333 142.791 355.333 142.791 355.337C142.791 355.342 142.79 355.352 142.79 355.365C142.789 355.377 142.789 355.394 142.789 355.414L143.815 355.415ZM143.816 355.361L144.842 355.369C144.843 355.241 144.856 355.112 144.881 354.983L143.875 354.785L142.869 354.587C142.819 354.84 142.793 355.096 142.791 355.354L143.816 355.361ZM143.875 354.785L144.884 354.972C145.041 354.122 145.647 353.426 146.45 353.142L146.108 352.175L145.765 351.208C144.282 351.733 143.16 353.016 142.867 354.598L143.875 354.785ZM146.108 352.175L146.702 353.011L153.277 348.334L152.683 347.498L152.088 346.662L145.513 351.339L146.108 352.175ZM152.683 347.498L153.277 348.334C153.897 347.893 154.385 347.289 154.686 346.59L153.743 346.185L152.801 345.78C152.649 346.133 152.402 346.439 152.088 346.662L152.683 347.498ZM153.743 346.185L154.755 346.352L155.486 341.943L154.474 341.775L153.462 341.608L152.731 346.017L153.743 346.185ZM154.474 341.775L154.4 340.752C153.697 340.803 152.91 340.525 152.291 340.004C151.671 339.483 151.326 338.814 151.326 338.176H150.3H149.274C149.274 339.56 150.007 340.764 150.97 341.574C151.933 342.383 153.233 342.894 154.548 342.798L154.474 341.775ZM150.3 338.176L151.326 338.176C151.326 337.483 151.713 336.885 152.28 336.601L151.82 335.684L151.361 334.767C150.099 335.399 149.274 336.708 149.274 338.176L150.3 338.176ZM151.82 335.684L152.293 334.773C137.211 326.947 103.76 307.752 73.6941 277.735C43.6269 247.716 17.0278 206.958 15.4452 155.989L14.42 156.021L13.3949 156.052C14.9997 207.738 41.9726 248.963 72.2448 279.186C102.518 309.411 136.174 328.72 151.348 336.594L151.82 335.684ZM14.42 156.021L15.4452 155.989C13.0773 79.8437 79.1107 13.2477 159.999 13.2268L159.999 12.2012L159.999 11.1755C78.0264 11.1967 10.9887 78.6778 13.3949 156.052L14.42 156.021Z" fill="black" mask="url(#path-1-outside-1_1955_13143)"/>
<path d="M163.055 349.645C170.025 390.116 158.187 417.522 150.821 444.285C147.129 457.698 144.513 471.003 145.575 486.031C146.637 501.044 151.388 522.371 162.739 542.971C163.573 544.484 163.024 546.388 161.511 547.223C159.999 548.057 158.097 547.507 157.263 545.993C145.552 524.742 140.472 502.541 139.336 486.473C138.201 470.42 141.019 456.327 144.791 442.623C152.352 415.152 163.562 389.447 156.89 350.708L163.055 349.645Z" fill="url(#paint0_linear_1955_13143)"/>
<path d="M155.094 338.049C156.199 335.477 163.619 335.541 164.634 338.15L165.6 346.088C165.828 346.674 166.227 347.179 166.747 347.534L174.484 352.835C177.02 354.572 175.791 358.542 172.717 358.542H146.949C143.904 358.542 142.655 354.632 145.136 352.867L152.684 347.496C153.151 347.164 153.518 346.71 153.744 346.183L155.094 338.049Z" fill="url(#paint1_linear_1955_13143)"/>
<rect x="143.816" y="351.975" width="32.5206" height="6.87935" rx="3.43968" fill="url(#paint2_linear_1955_13143)"/>
<g filter="url(#filter1_ii_1955_13143)">
<path d="M160 12.2012C241.431 12.222 307.966 79.2607 305.579 156.021C301.859 275.819 160.905 339.307 160 339.713C159.08 339.3 18.1408 275.812 14.4213 156.021C12.034 79.2607 78.5694 12.222 160 12.2012Z" fill="url(#paint3_radial_1955_13143)"/>
</g>
<g style="mix-blend-mode:overlay" filter="url(#filter2_f_1955_13143)">
<path d="M160.076 204.823C220.516 204.83 247.424 228.005 245.652 252.022C243.517 281.009 193.908 306.053 171.217 315.975C163.914 319.169 156.239 319.169 148.935 315.976C126.245 306.054 76.6363 281.01 74.5012 252.022C72.7293 228.005 99.6369 204.83 160.076 204.823Z" fill="url(#paint4_linear_1955_13143)" fill-opacity="0.15"/>
</g>
<path d="M150.301 338.175C150.301 336.773 151.32 335.581 152.712 335.414C154.665 335.18 157.505 334.904 160.076 334.904C162.648 334.904 165.488 335.18 167.441 335.414C168.833 335.581 169.852 336.773 169.852 338.175C169.852 340.202 167.685 341.929 165.665 341.774C164.262 341.666 162.434 341.589 160.076 341.589C157.719 341.589 155.891 341.666 154.488 341.774C152.468 341.929 150.301 340.202 150.301 338.175Z" fill="url(#paint5_linear_1955_13143)"/>
<g filter="url(#filter3_d_1955_13143)">
<path d="M146.797 112.316C147.468 106.961 148.199 90.1459 146.141 86.9968C143.027 82.2403 132.722 82.8589 129.658 86.2311C126.598 89.5983 128.396 110.476 132.136 114.233C135.877 117.991 146.126 117.671 146.797 112.316Z" fill="url(#paint6_linear_1955_13143)"/>
<path d="M191.2 112.316C191.871 106.961 192.602 90.1459 190.544 86.9968C187.43 82.2403 177.125 82.8589 174.061 86.2311C171.001 89.5983 172.799 110.476 176.539 114.233C180.279 117.991 190.529 117.671 191.2 112.316Z" fill="url(#paint7_linear_1955_13143)"/>
<path d="M171.49 162.135C171.795 162.071 172.122 162 172.473 161.925C172.825 161.846 173.198 161.743 173.593 161.643C175.169 161.228 177.082 160.643 179.142 159.722C181.199 158.811 183.403 157.579 185.51 156.005C187.617 154.437 189.616 152.527 191.299 150.427C192.993 148.335 194.379 146.071 195.42 143.872C196.464 141.668 197.203 139.54 197.684 137.655C197.921 136.712 198.09 135.83 198.23 135.027C198.338 134.224 198.417 133.499 198.456 132.863C198.488 131.599 198.391 130.703 198.137 130.282C197.085 128.586 194.723 127.579 192.487 127.418C191.371 127.332 190.283 127.447 189.408 127.768C188.97 127.929 188.586 128.143 188.277 128.411C187.968 128.682 187.735 129.007 187.573 129.396C187.261 130.171 186.877 132.196 186.084 134.699C185.983 135.009 185.883 135.334 185.775 135.663C185.657 135.984 185.531 136.313 185.406 136.652C185.345 136.82 185.28 136.991 185.215 137.162C185.144 137.33 185.072 137.498 185 137.669C184.849 138.005 184.72 138.366 184.551 138.701C183.923 140.087 183.13 141.461 182.222 142.757C180.413 145.353 178.019 147.535 175.661 148.928C173.317 150.341 171.117 151.081 169.922 151.359C168.726 151.641 166.666 152.009 164.132 151.998C161.609 152.03 158.633 151.652 155.751 150.927C152.873 150.177 150.091 149.088 147.866 147.917C145.619 146.774 143.925 145.589 142.923 144.889C141.922 144.186 140.637 143.047 139.452 141.651C138.272 140.254 137.166 138.637 136.419 137.066C135.644 135.502 135.163 134.031 134.847 132.888C134.779 132.599 134.682 132.338 134.614 132.096C134.549 131.853 134.478 131.631 134.395 131.435C134.262 131.042 134.108 130.753 133.911 130.592C133.365 130.107 132.471 129.725 131.463 129.414C130.44 129.111 129.245 128.889 128.046 128.811C126.847 128.732 125.641 128.807 124.593 129.089C123.548 129.368 122.651 129.86 122.102 130.553C121.844 130.896 121.65 131.51 121.567 132.338C121.538 132.749 121.531 133.217 121.546 133.727C121.571 134.238 121.646 134.784 121.729 135.373C122.095 137.723 123.175 140.54 124.751 143.143C126.341 145.739 128.397 148.11 130.429 149.949C132.453 151.809 134.406 153.202 135.759 154.176C137.109 155.158 139.355 156.644 142.198 158.068C143.623 158.768 145.188 159.472 146.85 160.089C148.515 160.703 150.27 161.253 152.054 161.707C155.626 162.596 159.315 163.046 162.517 163.071C165.718 163.103 168.403 162.749 169.975 162.435C170.37 162.357 170.876 162.275 171.483 162.135H171.49Z" fill="url(#paint8_linear_1955_13143)"/>
</g>
<g opacity="0.6" filter="url(#filter4_f_1955_13143)">
<path d="M92.4699 46.5033C96.0902 45.3939 101.506 44.9915 105.378 46.5883C108.777 47.9901 111.907 51.2578 112.101 55.9776C112.294 60.6974 110.42 64.1091 106.565 65.9322C102.785 67.7196 101.232 68.0976 95.2128 72.6936C91.3071 75.6759 89.1754 80.5139 81.2737 78.7607C73.7771 77.0975 71.4156 67.8498 75.0158 60.7183C78.9712 52.8835 87.7356 47.9539 92.4699 46.5033Z" fill="#C8E6FF"/>
</g>
</g>
</g>
<defs>
<filter id="filter0_d_1955_13143" x="8.32565" y="6.16888" width="307.898" height="552.027" filterUnits="userSpaceOnUse" color-interpolation-filters="sRGB">
<feFlood flood-opacity="0" result="BackgroundImageFix"/>
<feColorMatrix in="SourceAlpha" type="matrix" values="0 0 0 0 0 0 0 0 0 0 0 0 0 0 0 0 0 0 127 0" result="hardAlpha"/>
<feOffset dx="2.27564" dy="2.27564"/>
<feGaussianBlur stdDeviation="3.64103"/>
<feComposite in2="hardAlpha" operator="out"/>
<feColorMatrix type="matrix" values="0 0 0 0 0 0 0 0 0 0 0 0 0 0 0 0 0 0 0.12 0"/>
<feBlend mode="normal" in2="BackgroundImageFix" result="effect1_dropShadow_1955_13143"/>
<feBlend mode="normal" in="SourceGraphic" in2="effect1_dropShadow_1955_13143" result="shape"/>
</filter>
<filter id="filter1_ii_1955_13143" x="-6.57692" y="-20.5681" width="330.423" height="374.846" filterUnits="userSpaceOnUse" color-interpolation-filters="sRGB">
<feFlood flood-opacity="0" result="BackgroundImageFix"/>
<feBlend mode="normal" in="SourceGraphic" in2="BackgroundImageFix" result="shape"/>
<feColorMatrix in="SourceAlpha" type="matrix" values="0 0 0 0 0 0 0 0 0 0 0 0 0 0 0 0 0 0 127 0" result="hardAlpha"/>
<feOffset dx="-20.9359" dy="-32.7692"/>
<feGaussianBlur stdDeviation="25.9423"/>
<feComposite in2="hardAlpha" operator="arithmetic" k2="-1" k3="1"/>
<feColorMatrix type="matrix" values="0 0 0 0 0 0 0 0 0 0 0 0 0 0 0 0 0 0 0.14 0"/>
<feBlend mode="normal" in2="shape" result="effect1_innerShadow_1955_13143"/>
<feColorMatrix in="SourceAlpha" type="matrix" values="0 0 0 0 0 0 0 0 0 0 0 0 0 0 0 0 0 0 127 0" result="hardAlpha"/>
<feOffset dx="18.2051" dy="14.5641"/>
<feGaussianBlur stdDeviation="24.5769"/>
<feComposite in2="hardAlpha" operator="arithmetic" k2="-1" k3="1"/>
<feColorMatrix type="matrix" values="0 0 0 0 1 0 0 0 0 1 0 0 0 0 1 0 0 0 0.48 0"/>
<feBlend mode="overlay" in2="effect1_innerShadow_1955_13143" result="effect2_innerShadow_1955_13143"/>
</filter>
<filter id="filter2_f_1955_13143" x="45.2911" y="175.695" width="229.571" height="171.804" filterUnits="userSpaceOnUse" color-interpolation-filters="sRGB">
<feFlood flood-opacity="0" result="BackgroundImageFix"/>
<feBlend mode="normal" in="SourceGraphic" in2="BackgroundImageFix" result="shape"/>
<feGaussianBlur stdDeviation="14.5641" result="effect1_foregroundBlur_1955_13143"/>
</filter>
<filter id="filter3_d_1955_13143" x="99.6923" y="61.7193" width="120.616" height="123.2" filterUnits="userSpaceOnUse" color-interpolation-filters="sRGB">
<feFlood flood-opacity="0" result="BackgroundImageFix"/>
<feColorMatrix in="SourceAlpha" type="matrix" values="0 0 0 0 0 0 0 0 0 0 0 0 0 0 0 0 0 0 127 0" result="hardAlpha"/>
<feOffset/>
<feGaussianBlur stdDeviation="10.9231"/>
<feComposite in2="hardAlpha" operator="out"/>
<feColorMatrix type="matrix" values="0 0 0 0 0 0 0 0 0 0.333333 0 0 0 0 0.823529 0 0 0 0.35 0"/>
<feBlend mode="normal" in2="BackgroundImageFix" result="effect1_dropShadow_1955_13143"/>
<feBlend mode="normal" in="SourceGraphic" in2="effect1_dropShadow_1955_13143" result="shape"/>
</filter>
<filter id="filter4_f_1955_13143" x="55.1566" y="27.3222" width="75.1628" height="70.0162" filterUnits="userSpaceOnUse" color-interpolation-filters="sRGB">
<feFlood flood-opacity="0" result="BackgroundImageFix"/>
<feBlend mode="normal" in="SourceGraphic" in2="BackgroundImageFix" result="shape"/>
<feGaussianBlur stdDeviation="9.10256" result="effect1_foregroundBlur_1955_13143"/>
</filter>
<linearGradient id="paint0_linear_1955_13143" x1="160.076" y1="358.381" x2="151.046" y2="541.176" gradientUnits="userSpaceOnUse">
<stop stop-color="white"/>
<stop offset="1" stop-color="#EDEDED"/>
</linearGradient>
<linearGradient id="paint1_linear_1955_13143" x1="159.833" y1="336.156" x2="159.833" y2="358.542" gradientUnits="userSpaceOnUse">
<stop stop-color="#005BCA"/>
<stop offset="0.65" stop-color="#0055D2"/>
</linearGradient>
<linearGradient id="paint2_linear_1955_13143" x1="159.451" y1="351.165" x2="159.451" y2="361.484" gradientUnits="userSpaceOnUse">
<stop stop-color="#00409F"/>
<stop offset="1" stop-color="#002C6C"/>
</linearGradient>
<radialGradient id="paint3_radial_1955_13143" cx="0" cy="0" r="1" gradientTransform="matrix(166.042 293.623 293.522 -166.004 139.751 68.1741)" gradientUnits="userSpaceOnUse">
<stop offset="0.253496" stop-color="#58B3FF"/>
<stop offset="0.731106" stop-color="#0055D2"/>
</radialGradient>
<linearGradient id="paint4_linear_1955_13143" x1="160.076" y1="232.667" x2="160.076" y2="442.445" gradientUnits="userSpaceOnUse">
<stop stop-color="#C8E6FF"/>
<stop offset="1" stop-color="#C8E6FF" stop-opacity="0"/>
</linearGradient>
<linearGradient id="paint5_linear_1955_13143" x1="160.076" y1="334.904" x2="160.076" y2="341.784" gradientUnits="userSpaceOnUse">
<stop stop-color="white"/>
<stop offset="1" stop-color="#EDEDED"/>
</linearGradient>
<linearGradient id="paint6_linear_1955_13143" x1="137.799" y1="83.5654" x2="137.799" y2="116.744" gradientUnits="userSpaceOnUse">
<stop stop-color="#E7F4FF"/>
<stop offset="1" stop-color="#F7F7F7"/>
</linearGradient>
<linearGradient id="paint7_linear_1955_13143" x1="182.202" y1="83.5654" x2="182.202" y2="116.744" gradientUnits="userSpaceOnUse">
<stop stop-color="#E7F4FF"/>
<stop offset="1" stop-color="#F7F7F7"/>
</linearGradient>
<linearGradient id="paint8_linear_1955_13143" x1="160" y1="127.391" x2="160" y2="163.073" gradientUnits="userSpaceOnUse">
<stop stop-color="#E7F4FF"/>
<stop offset="1" stop-color="#F7F7F7"/>
</linearGradient>
<clipPath id="clip0_1955_13143">
<rect width="320" height="504" fill="white"/>
</clipPath>
</defs>
</svg>
