<svg width="201" height="162" viewBox="0 0 201 162" fill="none" xmlns="http://www.w3.org/2000/svg">
<g clip-path="url(#clip0_652_851)">
<path d="M11.9289 2.61865H188.18C193.334 2.61865 197.516 6.80064 197.516 11.9553V131.638C197.516 136.793 193.334 140.975 188.18 140.975H11.9289C6.77427 140.975 2.59229 136.793 2.59229 131.638V11.9553C2.59229 6.80064 6.77427 2.61865 11.9289 2.61865Z" stroke="#121212" stroke-width="5" stroke-linecap="round" stroke-linejoin="round"/>
<path d="M188.716 11.9546V112.53C188.716 112.825 188.476 113.067 188.18 113.067L11.9292 113.067C11.6338 113.067 11.3921 112.825 11.3921 112.53V11.9546C11.3923 11.6594 11.6336 11.4185 11.9292 11.4185L188.18 11.4185C188.475 11.4187 188.716 11.6592 188.716 11.9546Z" stroke="#121212" stroke-width="5" stroke-linecap="round" stroke-linejoin="round"/>
<path d="M100.052 133.099C103.117 133.099 105.601 130.615 105.601 127.55C105.601 124.485 103.117 122 100.052 122C96.9866 122 94.502 124.485 94.502 127.55C94.502 130.615 96.9866 133.099 100.052 133.099Z" stroke="#121212" stroke-width="5" stroke-linecap="round" stroke-linejoin="round"/>
<path d="M122.122 140.97H77.9814V149.432H122.122V140.97Z" stroke="#121212" stroke-width="5" stroke-linecap="round" stroke-linejoin="round"/>
<path d="M148.34 159.209H51.7642C51.7642 153.807 56.1387 149.433 61.5402 149.433H138.564C143.965 149.433 148.34 153.807 148.34 159.209Z" stroke="#121212" stroke-width="5" stroke-linecap="round" stroke-linejoin="round"/>
<path d="M100.051 44.4683C94.7445 44.4683 90.439 48.7827 90.439 54.1038C90.439 57.6603 92.3629 60.7543 95.2254 62.4256V78.4357H95.2371C95.2603 79.3141 95.9702 80.0176 96.8507 80.0176H103.266C104.147 80.0176 104.849 79.3141 104.88 78.4357H104.888V62.4256C107.742 60.7543 109.67 57.6564 109.67 54.1038C109.67 48.7827 105.365 44.4683 100.058 44.4683H100.051Z" fill="#121212"/>
</g>
<defs>
<clipPath id="clip0_652_851">
<rect width="201" height="162" fill="white"/>
</clipPath>
</defs>
</svg>
